<svg xmlns="http://www.w3.org/2000/svg" viewBox="0 0 37.1836 37.1836"><defs><style>.cls-1{fill:#58595b;}.cls-2{fill:#fff;}.cls-3{fill:none;}.cls-4{fill:#f1f2f2;}</style></defs><g id="Layer_2" data-name="Layer 2"><g id="Layer_1-2" data-name="Layer 1"><g id="page_1" data-name="page 1"><g id="Icons"><g id="Icons-Shape"><g id="Denitrification_Icon" data-name="Denitrification Icon"><path class="cls-1" d="M7.48,18.9945l-.0329.0247v-.0411Z"/><path class="cls-1" d="M8.7452,10.57A12.5435,12.5435,0,0,0,5.91,18.0905L1.8575,15.7562v1.6931H.1069V20.548A17.0176,17.0176,0,0,1,0,18.5918,18.4353,18.4353,0,0,1,4.1425,6.9041L5.3836,8.1452l-1.2,1.1918Z"/><path class="cls-1" d="M5.8027,31.9562l1.0685,1.0685A18.5114,18.5114,0,0,1,.1069,20.548H1.8575v1.6931L5.9507,19.874A12.6834,12.6834,0,0,0,9.263,27.2055L4.7507,28.4138l1.2,1.2L4.7014,30.8548Z"/><path class="cls-1" d="M10.4548,11.0219l-.0329-.0082.0083-.0082s0-.0164.0082-.0164Z"/><polygon class="cls-1" points="11.006 26.745 10.997 26.762 10.989 26.762 10.989 26.753 11.006 26.745"/><path class="cls-1" d="M17.31,5.9507A12.5951,12.5951,0,0,0,9.9863,9.2712l-1.2082-4.52L7.57,5.9507,6.3288,4.71,4.1425,6.9041A18.5065,18.5065,0,0,1,16.6521.1069V1.8657H14.9507Z"/><path class="cls-1" d="M18.2219,7.4466l-.0246.0328-.0164-.0328h.041Z"/><polygon class="cls-1" points="19.003 29.737 18.986 29.737 18.995 29.721 19.003 29.737"/><path class="cls-1" d="M20.49,37.0932c-.6164.0575-1.2575.09-1.8986.09A18.5158,18.5158,0,0,1,6.8959,33.0494L8.137,31.8l1.2,1.2,1.2165-4.5781a12.5424,12.5424,0,0,0,7.537,2.8521l-2.3425,4.06h1.6932v1.7589Z"/><path class="cls-1" d="M28.1918,18.5918a9.6041,9.6041,0,1,1-9.6-9.6A9.613,9.613,0,0,1,28.1918,18.5918Z"/><path class="cls-1" d="M26.2028,10.4466l-.0329.0082.0083-.0329.0164.0164A.0081.0081,0,0,1,26.2028,10.4466Z"/><path class="cls-1" d="M26.77,26.1863c-.0082,0-.0082.0083-.0082.0165,0,0-.0164.0164-.0246.0164l-.0083-.0411Z"/><path class="cls-1" d="M29.737,18.1809v.041l-.0328-.0246Z"/><path class="cls-1" d="M30.2878,4.1425,29.0549,5.3836l-1.2-1.2L26.622,8.7616A12.5557,12.5557,0,0,0,19.11,5.91l2.3343-4.0439H19.7508V.1069H16.6521A16.6314,16.6314,0,0,1,18.5918,0,18.5053,18.5053,0,0,1,30.2878,4.1425Z"/><path class="cls-1" d="M35.3179,16.6521V14.9589L31.2329,17.31a12.571,12.571,0,0,0-3.32-7.3151l4.5288-1.2164-1.2-1.1918L32.4823,6.337,31.3891,5.2356,30.3124,4.1671a18.5476,18.5476,0,0,1,6.7644,12.485Z"/><path class="cls-1" d="M32.9672,30.37A18.5577,18.5577,0,0,1,20.54,37.0768V35.3343h1.6931L19.874,31.2329a12.73,12.73,0,0,0,7.3316-3.3041l1.2082,4.5123,1.2-1.2,1.2329,1.241Z"/><path class="cls-1" d="M37.1836,18.5918a18.5281,18.5281,0,0,1-4.1424,11.7041L31.8,29.0548l1.2-1.2L28.422,26.63A12.5991,12.5991,0,0,0,31.274,19.11l4.0439,2.3343V19.7507H37.085V16.6932A17.9954,17.9954,0,0,1,37.1836,18.5918Z"/><path class="cls-1" d="M7.48,18.9945l-.0329.0247v-.0411Z"/><path class="cls-1" d="M10.4548,11.0219l-.0329-.0082.0083-.0082s0-.0164.0082-.0164Z"/><polygon class="cls-1" points="11.006 26.745 10.997 26.762 10.989 26.762 10.989 26.753 11.006 26.745"/><path class="cls-1" d="M18.2219,7.4466l-.0246.0328-.0164-.0328h.041Z"/><polygon class="cls-1" points="19.003 29.737 18.986 29.737 18.995 29.721 19.003 29.737"/><path class="cls-1" d="M28.1918,18.5918a9.6041,9.6041,0,1,1-9.6-9.6A9.613,9.613,0,0,1,28.1918,18.5918Z"/><path class="cls-1" d="M26.2028,10.4466l-.0329.0082.0083-.0329.0164.0164A.0081.0081,0,0,1,26.2028,10.4466Z"/><path class="cls-1" d="M26.77,26.1863c-.0082,0-.0082.0083-.0082.0165,0,0-.0164.0164-.0246.0164l-.0083-.0411Z"/><path class="cls-1" d="M29.737,18.1809v.041l-.0328-.0246Z"/><path class="cls-2" d="M29.7042,18.1973l.0328.0246v-.041Zm-2.9754,7.9808.0083.0411c.0082,0,.0246-.0164.0246-.0164,0-.0082,0-.0165.0082-.0165Zm-.5342-15.74-.0164-.0164-.0083.0329.0329-.0082A.0081.0081,0,0,0,26.1946,10.4383Zm-7.2,19.2823-.0081.0164h.0164Zm-.7972-22.274h-.0164l.0164.0328.0246-.0328ZM10.9891,26.7535v.0082h.0082l.0082-.0165Zm-.5507-15.7644c-.0082,0-.0082.0164-.0082.0164l-.0083.0082.0329.0082Zm-2.9918,7.989v.0411l.0329-.0247Z"/><path class="cls-2" d="M28.422,26.63A12.5991,12.5991,0,0,0,31.274,19.11l-1.537-.8877-.0328-.0246.0328-.0164,1.4959-.8549V17.31a12.571,12.571,0,0,0-3.32-7.3151l-1.71.4521-.0329.0082.0083-.0329.4438-1.66A12.5557,12.5557,0,0,0,19.11,5.91l-.8877,1.537-.0246.0328-.0164-.0328-.863-1.4959H17.31A12.5951,12.5951,0,0,0,9.9863,9.2712l.4521,1.7179.0164.0328-.0329-.0082L8.7452,10.57A12.5435,12.5435,0,0,0,5.91,18.0905l1.537.8876.0329.0164-.0329.0247-1.4959.8548A12.6834,12.6834,0,0,0,9.263,27.2055l1.7178-.452h.0083l.0164-.0083-.0082.0165V26.77l-.4438,1.652a12.5424,12.5424,0,0,0,7.537,2.8521l.8959-1.537.0081-.0164.0083.0164.8712,1.4959a12.73,12.73,0,0,0,7.3316-3.3041l-.4685-1.71-.0083-.0411.0411.0082Zm-9.83,1.57a9.6042,9.6042,0,1,1,9.6-9.6083A9.6148,9.6148,0,0,1,18.5918,28.2Z"/><path class="cls-2" d="M14.679,13.853h2.3457l2.4668,3.4453V13.853h2.8027v8.9424h-2.36l-2.4532-3.4316v3.4316H14.679Zm1.5947,7.87V15.5288l4.4248,6.1943h.3486V14.9253h-.3486V21.12l-4.4248-6.1943h-.3486v6.7978Z"/><line class="cls-3" x1="18.1976" y1="7.4808" x2="18.1976" y2="7.4498"/><path class="cls-2" d="M21.4439,1.8657,19.11,5.91l-.8877,1.537h-.041l-.863-1.4959H17.31l-2.3589-4.085h1.7014V.1069h3.0987V1.8657Z"/><path class="cls-4" d="M18.2219,7.4466l-.0246.0328-.0164-.0328h.041Z"/><line class="cls-3" x1="10.4518" y1="11.0232" x2="10.4311" y2="11.0026"/><path class="cls-2" d="M10.4384,10.9891c-.0082,0-.0082.0164-.0082.0164l-.0083.0082L8.7452,10.57,4.1836,9.337l1.2-1.1918L4.1425,6.9041,6.3288,4.71,7.57,5.9507l1.2082-1.2L9.9863,9.2712Z"/><path class="cls-4" d="M10.4548,11.0219l-.0329-.0082.0083-.0082s0-.0164.0082-.0164Z"/><line class="cls-3" x1="7.4774" y1="18.9963" x2="7.4464" y2="18.9963"/><path class="cls-2" d="M7.4466,18.9781v.0411l-1.4959.8548L1.8575,22.2411V20.548H.1069V17.4493H1.8575V15.7562L5.91,18.0905Z"/><path class="cls-4" d="M7.48,18.9945l-.0329.0247v-.0411Z"/><polygon class="cls-2" points="10.997 26.762 10.997 26.77 10.553 28.422 9.337 33 8.137 31.8 6.896 33.049 6.871 33.025 5.803 31.956 4.701 30.855 5.951 29.614 4.751 28.414 9.263 27.206 10.981 26.753 10.989 26.753 10.989 26.762 10.997 26.762"/><polygon class="cls-2" points="11.006 26.745 10.997 26.762 10.989 26.762 10.989 26.753 11.006 26.745"/><line class="cls-3" x1="18.9929" y1="29.7373" x2="18.9929" y2="29.7166"/><path class="cls-4" d="M20.5421,37.08v.01H20.49C20.5111,37.0907,20.5214,37.08,20.5421,37.08Z"/><path class="cls-2" d="M22.2329,35.3343H20.54v1.7425c-.0164,0-.0247.0164-.0494.0164H17.4412V35.3343H15.748l2.3425-4.06.8959-1.537h.0164l.8712,1.4959Z"/><polygon class="cls-4" points="19.003 29.737 18.986 29.737 18.995 29.721 19.003 29.737"/><line class="cls-3" x1="26.7594" y1="26.2052" x2="26.7284" y2="26.1742"/><path class="cls-2" d="M33.0412,30.2959l-.074.074-2.12,2.1123-1.2329-1.241-1.2,1.2-1.2082-4.5123-.4685-1.71c.0082,0,.0246-.0164.0246-.0164,0-.0082,0-.0165.0082-.0165l1.6521.4439L33,27.8548l-1.2,1.2Z"/><path class="cls-4" d="M26.77,26.1863c-.0082,0-.0082.0083-.0082.0165,0,0-.0164.0164-.0246.0164l-.0083-.0411Z"/><line class="cls-3" x1="29.7338" y1="18.2011" x2="29.7029" y2="18.2011"/><line class="cls-3" x1="37.0769" y1="18.2011" x2="35.3212" y2="18.2011"/><path class="cls-2" d="M37.085,16.6521v3.0986H35.3179v1.6932L31.274,19.11l-1.537-.8877v-.041l1.4959-.8549V17.31l4.085-2.3507v1.6932Z"/><path class="cls-4" d="M29.737,18.1809v.041l-.0328-.0246Z"/><line class="cls-3" x1="26.1914" y1="10.4346" x2="26.1707" y2="10.4552"/><path class="cls-2" d="M31.2412,7.5863l1.2,1.1918L27.9124,9.9945l-1.71.4521a.0081.0081,0,0,0-.0082-.0083l-.0164-.0164.4438-1.66,1.2329-4.5781,1.2,1.2,1.2329-1.2411.0246.0246,1.0767,1.0685L32.4823,6.337Z"/><path class="cls-4" d="M26.2028,10.4466l-.0329.0082.0083-.0329.0164.0164A.0081.0081,0,0,1,26.2028,10.4466Z"/></g></g></g></g></g></g></svg>