<svg xmlns="http://www.w3.org/2000/svg" viewBox="0 0 135.0488 32.4478"><defs><style>.cls-1{fill:#2e3192;}.cls-2{fill:#8dc63f;}</style></defs><g id="Layer_2" data-name="Layer 2"><g id="Layer_1-2" data-name="Layer 1"><g id="page_1" data-name="page 1"><g id="ProductNames-TM"><g id="IntegraTM"><path class="cls-1" d="M128.0615,9.6011H126.98V5.3984h-1.3857v-.9h3.8535v.9h-1.3858Z" transform="translate(-0.6396 -3.5518)"/><path class="cls-1" d="M132.3926,9.6011l-1.2285-4.0034h-.0313q.066,1.2216.0664,1.63V9.6011h-.9668V4.498h1.4727L132.9131,8.4h.0205l1.2812-3.9024h1.4737V9.6011H134.68V7.1855c0-.1137.001-.2456.0049-.3945s.02-.5444.0468-1.1865H134.7l-1.3154,3.9966Z" transform="translate(-0.6396 -3.5518)"/><path class="cls-2" d="M.64,28.4478V23.2H2.24V8.8H.64V3.5518H12.8V8.8H11.2V23.2h1.6v5.2481Z" transform="translate(-0.6396 -3.5518)"/><path class="cls-2" d="M35.2646,23.2v5.2481H25.1523V23.2h1.3438v-5.248A2.2705,2.2705,0,0,0,26.0488,16.4a1.7232,1.7232,0,0,0-1.3447-.4961q-1.9189,0-1.92,2.0479V23.2h1.3447v5.2481H14.0166V23.2h1.4082V15.9038H14.0166v-5.248h8.7676v2.4961a7.0419,7.0419,0,0,1,5.76-2.9444,4.7927,4.7927,0,0,1,3.9844,1.6641,7.1517,7.1517,0,0,1,1.3281,4.5762V23.2Z" transform="translate(-0.6396 -3.5518)"/><path class="cls-2" d="M39.0879,27.2476Q37.3755,25.6,37.376,21.6958v-5.792H35.9678v-5.248a2.4389,2.4389,0,0,0,1.8242-.6241A2.3482,2.3482,0,0,0,38.4,8.32V6.88h6.7832v3.7759h4.32v5.248h-4.32v5.2481a2.2154,2.2154,0,0,0,.4639,1.5517A1.8163,1.8163,0,0,0,47.04,23.2a13.6257,13.6257,0,0,0,2.6563-.2881v5.0239a14.6982,14.6982,0,0,1-2.416.6563,15.7173,15.7173,0,0,1-3.0879.3042A7.0922,7.0922,0,0,1,39.0879,27.2476Z" transform="translate(-0.6396 -3.5518)"/><path class="cls-2" d="M53.1514,26.5117q-2.5607-2.3832-2.56-6.96t2.56-6.96a10.0233,10.0233,0,0,1,7.1045-2.3843q4.5117,0,6.5117,2.3521a8.7062,8.7062,0,0,1,2,5.84v2.3037H58.3994v.1924a2.0916,2.0916,0,0,0,.7041,1.7436,3.7913,3.7913,0,0,0,2.336.56,22.9886,22.9886,0,0,0,3.7119-.2881,19.15,19.15,0,0,0,3.0722-.7358v5.12a13.4743,13.4743,0,0,1-3.28,1.104,20.9328,20.9328,0,0,1-4.6875.4961A10.021,10.021,0,0,1,53.1514,26.5117Zm8.96-9.3281V16.8a2.2033,2.2033,0,0,0-.4638-1.5679,1.8513,1.8513,0,0,0-1.3916-.48,1.82,1.82,0,0,0-1.3926.4956A2.2126,2.2126,0,0,0,58.3994,16.8v.3838Z" transform="translate(-0.6396 -3.5518)"/><path class="cls-2" d="M74.7031,35.68a18.1063,18.1063,0,0,1-3.248-.7359v-5.248a34.8853,34.8853,0,0,0,6.08.6079,4.7911,4.7911,0,0,0,2.6406-.56,2.3717,2.3717,0,0,0,.8154-2.0958V26.272a8.0319,8.0319,0,0,1-2.0635,1.8237,5.3048,5.3048,0,0,1-2.8965.8,5.5432,5.5432,0,0,1-4.9121-2.4321,12.26,12.26,0,0,1-1.6474-6.9121A12.262,12.262,0,0,1,71.1191,12.64a5.5443,5.5443,0,0,1,4.9121-2.4321,5.3048,5.3048,0,0,1,2.8965.8,8.0505,8.0505,0,0,1,2.0635,1.8237V10.6558H89.76v5.248H88.3516V27.168q0,4.6391-2.3037,6.7358T79.1035,36A29.2062,29.2062,0,0,1,74.7031,35.68Zm5.8242-12.9761a2.2154,2.2154,0,0,0,.4639-1.5517v-3.2A2.2165,2.2165,0,0,0,80.5273,16.4a2.2011,2.2011,0,0,0-2.7841,0,2.2117,2.2117,0,0,0-.4639,1.5518v3.2a2.2106,2.2106,0,0,0,.4639,1.5517,2.2011,2.2011,0,0,0,2.7841,0Z" transform="translate(-0.6396 -3.5518)"/><path class="cls-2" d="M105.5352,10.3359a4.2139,4.2139,0,0,1,.96.32v6.1118a7.2876,7.2876,0,0,0-2.8164-.544,4.2732,4.2732,0,0,0-3.1035,1.0562,4.1784,4.1784,0,0,0-1.0879,3.1357V23.2h2.88v5.2481H90.7188V23.2H92.127V15.9038H90.7188v-5.248h8.7685v2.3359a6.8657,6.8657,0,0,1,2.0479-2.064,5.15,5.15,0,0,1,2.7841-.72A5.6233,5.6233,0,0,1,105.5352,10.3359Z" transform="translate(-0.6396 -3.5518)"/><path class="cls-2" d="M126.1748,23.2v5.2481h-8.4482V26.272a6.6666,6.6666,0,0,1-1.9678,1.8237,5.6655,5.6655,0,0,1-3.0889.8,5.3268,5.3268,0,0,1-3.7754-1.28A4.6926,4.6926,0,0,1,107.5186,24q0-6.0476,10.2714-6.2075a1.7255,1.7255,0,0,0-.832-1.4883,5.6082,5.6082,0,0,0-2.4961-.4,17.1216,17.1216,0,0,0-3.0879.3037,18.0992,18.0992,0,0,0-3.0234.8164V11.1357a33.56,33.56,0,0,1,3.68-.6718,30.2927,30.2927,0,0,1,3.872-.2564q4.7682,0,6.8165,1.728,2.0463,1.7286,2.0478,5.3443V23.2Zm-8.4482-2.24a5.1786,5.1786,0,0,0-2.2246.3838,1.32,1.32,0,0,0-.7832,1.28,1.1877,1.1877,0,0,0,.3359.88,1.2758,1.2758,0,0,0,.9433.3359,1.4306,1.4306,0,0,0,1.28-.7041,3.6891,3.6891,0,0,0,.4483-1.9838Z" transform="translate(-0.6396 -3.5518)"/></g></g></g></g></g></svg>