<svg xmlns="http://www.w3.org/2000/svg" viewBox="0 0 36 36"><defs><style>.cls-1{fill:#58595b;}.cls-2{fill:#fff;}</style></defs><g id="Layer_2" data-name="Layer 2"><g id="Layer_1-2" data-name="Layer 1"><g id="page_1" data-name="page 1"><g id="Icons"><g id="Icons-Shape"><g id="Leaching_Icon" data-name="Leaching Icon"><path class="cls-1" d="M16.94,27.47H2.7A17.98,17.98,0,0,1,14,.46V9.27H6.43Z"/><path class="cls-1" d="M7.3,32.47H28.7a17.9817,17.9817,0,0,1-21.4,0Z"/><path class="cls-1" d="M36,18a17.8906,17.8906,0,0,1-2.7,9.47H19.06L29.57,9.27H22V.46A17.9764,17.9764,0,0,1,36,18Z"/><path class="cls-2" d="M29.57,9.27,19.06,27.47,18,29.31l-1.06-1.84L6.43,9.27H14V.46a17.6213,17.6213,0,0,1,8,0V9.27Z"/><path class="cls-2" d="M33.3,27.47a17.7045,17.7045,0,0,1-4.6,5H7.3a17.7045,17.7045,0,0,1-4.6-5H16.94L18,29.31l1.06-1.84Z"/></g></g></g></g></g></g></svg>