<svg xmlns="http://www.w3.org/2000/svg" viewBox="0 0 110.8104 64.7035"><defs><style>.cls-1{fill:#fff;}</style></defs><g id="Layer_2" data-name="Layer 2"><g id="Layer_1-2" data-name="Layer 1"><g id="page_5" data-name="page 5"><g id="WeGrow_Logo" data-name="WeGrow Logo"><path class="cls-1" d="M76.4146,8.2307c-1.8134,0-5.5857.9388-5.7891,6.2783a11.2485,11.2485,0,0,1-1.8126,5.9789l-.0008.0017c-1.6475,7.35-5.88,12.7-12.1147,15.3833l3.34.0485c9.9932.1365,17.4157-4.8152,20.681-13.4211S81.1662,8.2307,76.4146,8.2307Z"/><path class="cls-1" d="M68.3952,13.5981a18.0321,18.0321,0,0,0-.3663-3.4557l-.0188.0023a13.1638,13.1638,0,0,0-5.4519-8.0033S59.7682,0,54.4992,0c-3.8363,0-13.0054,2.48-12.422,14.9645.0044.169.0108.3393.0219.5129.054.8553-.0158,6.5869,5.4586,7.5764,4.4086.7971,6.4021-2.1073,6.5112-5.5959.0424-1.3521.0283-2.2843.0009-2.4656,0-1.0822.0507-2.9706,1.484-3.1289,1.5292-.1687,1.5273,1.3317,1.5317,3.02a11.8308,11.8308,0,0,1-1.1658,5.05,7.0264,7.0264,0,0,1-5.73,4.2854,8.9532,8.9532,0,0,1-1.2649.091,8.4355,8.4355,0,0,1-5.8423-2.3658,10.3223,10.3223,0,0,1-3.1287-7.4789c-.2034-5.34-3.9756-6.2783-5.7891-6.2783-3.349,0-5.737,2.8137-5.7117,7.4881a19.5383,19.5383,0,0,0,1.4078,6.872c3.2653,8.6059,10.6878,13.5577,20.681,13.4211a16.5491,16.5491,0,0,0,4.16-.5813q.3038-.1029.6015-.2143A19.2018,19.2018,0,0,0,66.95,22.9236q.0885-.3049.1667-.6129c.0156-.0617.033-.1231.048-.185a28.8864,28.8864,0,0,0,1.1887-6.6486c.0313-.4937.0449-.97.0457-1.4333q0-.1059,0-.2108Q68.3971,13.7151,68.3952,13.5981Z"/><path class="cls-1" d="M.7086,43.26H3.5833a.72.72,0,0,1,.484.1474.8306.8306,0,0,1,.2989.4862q.0706.3093.1565.6336.1134.413.1992.84t.1992.84a.7268.7268,0,0,1,.0568.25,1.34,1.34,0,0,0,.0285.25q.1134.413.1851.8252a8.3685,8.3685,0,0,0,.185.8252,4.01,4.01,0,0,1,.1709.6778q.0565.3536.1424.7073a20.0146,20.0146,0,0,1,.47,1.9745q.1845,1.002.4413,1.9745a6,6,0,0,1,.2133.884q.0707.4417.1851.884.1134.3535.1709.604a1.033,1.033,0,0,0,.2845.4862.1136.1136,0,0,1,.0712.0146c.0094.01.033.0052.0712-.0146a.4551.4551,0,0,0,.2562-.3241c.0571-.177.1042-.3241.1424-.442a7.2513,7.2513,0,0,0,.1851-.7811,4.49,4.49,0,0,1,.2133-.781c.0188-.0981.038-.1916.0571-.28s.0377-.1813.0568-.28a4.5335,4.5335,0,0,0,.2133-.781,7.0339,7.0339,0,0,1,.185-.781c.0189-.0783.038-.1569.0568-.2358s.038-.1666.0571-.265a5.2365,5.2365,0,0,0,.1424-.5453,5.0091,5.0091,0,0,1,.1424-.5452,1.6768,1.6768,0,0,0,.0568-.3537q.0564-.2056.1138-.4124t.1139-.4125a17.1584,17.1584,0,0,0,.4269-1.665q.1707-.84.3986-1.665a5.2593,5.2593,0,0,0,.2133-.8252,8.4337,8.4337,0,0,1,.1851-.8252q.1134-.324.1992-.6041a.6955.6955,0,0,1,.3983-.4273,1.6164,1.6164,0,0,1,.4555-.0588h2.1915c.2087,0,.4028.0051.5835.0149a.8516.8516,0,0,1,.47.162.68.68,0,0,1,.2563.4274q.0565.28.1424.5745.1421.5306.2562,1.0756t.2563,1.0756a7.6513,7.6513,0,0,1,.185.7661,7.2889,7.2889,0,0,0,.1851.7661c.0571.2166.1041.4274.1424.6336a4.1479,4.1479,0,0,0,.1709.6336q.3129,1.0906.5408,2.2249t.5407,2.2249A5.8312,5.8312,0,0,1,18,54.7529a4.9392,4.9392,0,0,0,.2133.884q.0852.2946.1424.5452a1.2918,1.2918,0,0,0,.1992.4569.6271.6271,0,0,0,.1424.0884h.1139a.2305.2305,0,0,1,.0567-.0442.2238.2238,0,0,0,.0571-.0442,1.3184,1.3184,0,0,0,.2277-.5157q.057-.28.1424-.5748a6.7158,6.7158,0,0,0,.2133-.9431,6.6964,6.6964,0,0,1,.2133-.943q.37-1.2963.612-2.5935t.612-2.5935a6.7537,6.7537,0,0,0,.2133-.9431,6.6964,6.6964,0,0,1,.2133-.943.7193.7193,0,0,0,.057-.25,1.3532,1.3532,0,0,1,.0286-.2507q.1134-.4122.1992-.8252t.1991-.8252q.057-.2354.128-.53a.8147.8147,0,0,1,.2422-.442.9643.9643,0,0,1,.4836-.177,6.5522,6.5522,0,0,1,.6547-.03h2.1774a1.1536,1.1536,0,0,1,.47.0884.472.472,0,0,1,.2562.5008,3.275,3.275,0,0,1-.1138.6485,12.3858,12.3858,0,0,0-.3843,1.4292,14.2986,14.2986,0,0,1-.3842,1.4588,2.4533,2.4533,0,0,0-.0853.3388,2.6089,2.6089,0,0,1-.0854.339q-.1429.5016-.27,1.0461t-.27,1.046a1.1024,1.1024,0,0,0-.0712.2949,1.1272,1.1272,0,0,1-.0712.2945,4.5353,4.5353,0,0,0-.2133.7661,4.6458,4.6458,0,0,1-.2136.7661.744.744,0,0,0-.0568.2654.7505.7505,0,0,1-.0568.2653,5.0882,5.0882,0,0,0-.2133.84,5.2139,5.2139,0,0,1-.2136.84c-.0568.1965-.1094.3881-.1565.5745s-.1.3786-.1565.5748q-.3417,1.12-.5835,2.2691a19.5161,19.5161,0,0,1-.6119,2.24,3.4005,3.4005,0,0,0-.0853.3832,3.7143,3.7143,0,0,1-.0854.3832q-.1429.5016-.27,1.0461t-.2989,1.0463q-.1138.3834-.1991.7073a.6931.6931,0,0,1-.4269.4715,1.7159,1.7159,0,0,1-.484.0588H17.8156c-.2091,0-.4083-.0045-.5978-.0149a.8655.8655,0,0,1-.4837-.162.7064.7064,0,0,1-.2277-.3683c-.0382-.1474-.0853-.2992-.1424-.4569q-.1709-.5891-.2845-1.164t-.2563-1.1642a6.1578,6.1578,0,0,1-.185-.7219q-.0715-.3683-.1851-.7515a3.4853,3.4853,0,0,1-.128-.5453,3.5369,3.5369,0,0,0-.1279-.5452,12.03,12.03,0,0,1-.37-1.4588q-.1428-.7517-.3415-1.4883a5.4813,5.4813,0,0,1-.2133-.7957q-.0715-.3825-.1851-.7956-.1429-.5008-.2277-.9724a8.5448,8.5448,0,0,0-.2277-.9431,3.1984,3.1984,0,0,1-.128-.4419,1.1307,1.1307,0,0,0-.1565-.3832.684.684,0,0,0-.1707-.1179c-.0571-.0192-.0953-.0192-.1138,0a.46.46,0,0,0-.2846.3536q-.0851.2948-.1423.5008a9.2686,9.2686,0,0,0-.3131,1.2818q-.1138.663-.2845,1.3114-.37,1.326-.64,2.6523t-.6405,2.6522a6.7286,6.7286,0,0,0-.2133.9285,6.879,6.879,0,0,1-.2136.9282,5.211,5.211,0,0,0-.2133.8252q-.0714.413-.185.8251c-.0568.1968-.11.3735-.1566.53a.6851.6851,0,0,1-.2989.3832.9324.9324,0,0,1-.4837.1179H5.9187a2.0238,2.0238,0,0,0-.3416-.0737.5339.5339,0,0,1-.2845-.1326.6748.6748,0,0,1-.2845-.4861q-.0574-.3387-.1424-.6632-.1429-.471-.27-.9723t-.27-1.0022a1.5291,1.5291,0,0,1-.0712-.3387,2.142,2.142,0,0,0-.0712-.3683,9.8077,9.8077,0,0,1-.2845-1.0022q-.1139-.5007-.2562-1.0018a.5042.5042,0,0,1-.0568-.2212.9487.9487,0,0,0-.0286-.2208,7.5838,7.5838,0,0,1-.2421-.8694q-.1-.4564-.2418-.8989a.57.57,0,0,1-.0286-.177.4925.4925,0,0,0-.0568-.2062,5.0961,5.0961,0,0,1-.2135-.84,6.1774,6.1774,0,0,0-.2134-.8694c-.0567-.1962-.1094-.3978-.1565-.6041s-.1-.4075-.1565-.604-.1044-.3927-.1424-.5894a3.5167,3.5167,0,0,0-.1706-.59q-.2565-.8544-.4413-1.7387t-.4414-1.7387a2.3193,2.3193,0,0,1-.0853-.3537,2.4423,2.4423,0,0,0-.0853-.3536q-.1995-.6192-.3416-1.2672T.1977,44.761Q.14,44.5554.0412,44.1421a.7677.7677,0,0,1,.0427-.619.6921.6921,0,0,1,.3986-.2358.1583.1583,0,0,1,.1139-.0146A.1389.1389,0,0,0,.7086,43.26Z"/><path class="cls-1" d="M39.9025,56.522a1.2538,1.2538,0,0,1,0,.53.555.555,0,0,1-.1991.3832.8584.8584,0,0,1-.4128.1621,5.0985,5.0985,0,0,1-.5978.0588q-.3274.015-.6547,0t-.5834-.0146H30.1254a.8551.8551,0,0,0-.3275.0588.62.62,0,0,0-.2845.2357.64.64,0,0,0-.1138.2209.5824.5824,0,0,0-.0286.3095,1.5958,1.5958,0,0,1,.0712.3387,1.53,1.53,0,0,0,.0712.339,4.2,4.2,0,0,0,.5552,1.1643,3.07,3.07,0,0,0,.8967.81,1.2764,1.2764,0,0,0,.47.1916,3.4492,3.4492,0,0,1,.4981.1326,3.6406,3.6406,0,0,0,.6261.0883,2.4889,2.4889,0,0,0,.6831-.0295h.2563q.2843-.0586.5266-.1326c.161-.0487.3175-.1032.47-.162a7.02,7.02,0,0,0,.64-.3832,2.0178,2.0178,0,0,0,.5266-.4716q.1421-.2056.2989-.3978a.92.92,0,0,1,.3842-.28,1.4652,1.4652,0,0,1,.7259-.1325q.4409.015.8111.0146c.1138,0,.2321-.0046.3557-.0146a.7058.7058,0,0,1,.3272.0441h.2845a1.0245,1.0245,0,0,1,.3986.1475.2974.2974,0,0,1,.128.2653.8266.8266,0,0,1-.0427.3536,5.2935,5.2935,0,0,1-.313.7369,5.9391,5.9391,0,0,1-.3987.6482A5.8565,5.8565,0,0,1,37.1985,63.3a7.3761,7.3761,0,0,1-1.9924,1.0018,2.4351,2.4351,0,0,1-.6261.1475,4.101,4.101,0,0,0-.6546.1179.6706.6706,0,0,1-.2419.0149.6477.6477,0,0,0-.2418.0146h-.3131a.7077.7077,0,0,1-.3274.0442,2.82,2.82,0,0,1-.3275-.0442,1.336,1.336,0,0,0-.3983,0,.8134.8134,0,0,1-.37-.0295.8062.8062,0,0,0-.3131-.0588.815.815,0,0,1-.313-.0588q-.3133-.0594-.6261-.1326a2.0638,2.0638,0,0,1-.5693-.2211q-.3138-.1174-.5834-.2209a2.62,2.62,0,0,1-.4981-.25,8.2176,8.2176,0,0,1-1.6226-1.37,6.6355,6.6355,0,0,1-1.1668-1.8124,4.14,4.14,0,0,1-.2277-.6632,5.3985,5.3985,0,0,0-.2277-.6927.9291.9291,0,0,1-.0286-.2208.9583.9583,0,0,0-.0285-.2212,3.2022,3.2022,0,0,1-.1424-.7661q-.0287-.4125-.0568-.8252c0-.0981-.005-.2062-.0141-.3241a1.1906,1.1906,0,0,1,.0141-.3244v-.3536l.0853-.7073q.1135-.5008.1992-.9727a4.3163,4.3163,0,0,1,.2563-.884,7.5831,7.5831,0,0,1,4.1557-4.3322,3.5286,3.5286,0,0,1,.8111-.25q.4122-.073.8679-.1916a3.4183,3.4183,0,0,1,.4269-.0295,3.317,3.317,0,0,0,.4269-.03,7.0549,7.0549,0,0,1,2.49.3391,7.5236,7.5236,0,0,1,1.8644.9577,5.9721,5.9721,0,0,1,.5122.3978,4.1054,4.1054,0,0,1,.4555.4569.6592.6592,0,0,0,.2277.2358q.2272.3244.4269.6628t.4269.6927a4.0332,4.0332,0,0,1,.2418.5453q.0994.2805.2134.604a5.48,5.48,0,0,1,.2277.7957q.0852.413.1992.8252a1.82,1.82,0,0,1,.0426.5157,1.7842,1.7842,0,0,0,.0427.5157v.3244Zm-4.2692-1.7387a.7638.7638,0,0,0,.0426-.722q-.1566-.4267-.2418-.6336a3.055,3.055,0,0,0-1.0533-1.223,3.4892,3.4892,0,0,0-1.8217-.4569.231.231,0,0,1-.1992.0295.35.35,0,0,0-.1992,0,1.0392,1.0392,0,0,1-.313.0737,1.0569,1.0569,0,0,0-.3131.0738,3.0666,3.0666,0,0,0-1.85,1.6208q-.0574.1179-.128.3095a1.8853,1.8853,0,0,0-.1.3832.9528.9528,0,0,0,.0144.3683.5346.5346,0,0,0,.1851.2945,1.14,1.14,0,0,0,.6261.1475H34.21q.3984,0,.84-.0149A.6566.6566,0,0,0,35.6333,54.7833Z"/><path class="cls-1" d="M50.8892,42.73a9.1,9.1,0,0,1,4.81,1.061,8.3736,8.3736,0,0,1,3.0171,2.888A9.4171,9.4171,0,0,1,59.599,48.86a3.04,3.04,0,0,1,.0853.5157.5611.5611,0,0,1-.1139.4569.5355.5355,0,0,1-.3983.2358,5.003,5.003,0,0,1-.5693.03h-1.85q-.3133,0-.5834-.0146a.7108.7108,0,0,1-.4413-.1621.91.91,0,0,1-.3557-.5011,4.4158,4.4158,0,0,0-.2422-.6189,9.3923,9.3923,0,0,0-.5407-.7811,3.4469,3.4469,0,0,0-.6832-.6628,4.5816,4.5816,0,0,0-1.3092-.619,1.0765,1.0765,0,0,0-.313-.0737,2.6489,2.6489,0,0,1-.3131-.0442.8509.8509,0,0,0-.2562-.0295,3.4385,3.4385,0,0,0-.8538-.0149,7.219,7.219,0,0,0-.797.1032,3.15,3.15,0,0,1-.37.0884,1.18,1.18,0,0,0-.3415.1178,6.4959,6.4959,0,0,0-1.3237.7664,4.176,4.176,0,0,0-1.01,1.12,4.8468,4.8468,0,0,0-.6264,1.2081q-.228.6484-.4269,1.3851a3.8493,3.8493,0,0,0-.1138.6482q-.0287.3245-.0853.6482v.3832a1.0024,1.0024,0,0,0-.0427.3832q.0141.2066.0141.4125,0,.5016.0286,1.0022a4.8467,4.8467,0,0,0,.1424.943.9229.9229,0,0,1,.0285.2063.8864.8864,0,0,0,.0285.2062,8.7212,8.7212,0,0,0,1.0815,2.549A4.538,4.538,0,0,0,49.01,60.3821a4.8557,4.8557,0,0,0,.5266.2062q.27.0882.5834.177a1.2126,1.2126,0,0,0,.3275.0146.6237.6237,0,0,1,.2989.0442,1.3194,1.3194,0,0,0,.4269.0588,1.6006,1.6006,0,0,0,.4554-.0588.7908.7908,0,0,1,.2563-.0149.59.59,0,0,0,.2277-.0147.72.72,0,0,1,.2421-.0149.3467.3467,0,0,0,.2133-.0442q.3981-.1174.74-.2211a3.22,3.22,0,0,0,.6546-.28,4.0729,4.0729,0,0,0,1.1386-1.0168,5.6493,5.6493,0,0,0,.74-1.4293,3.2911,3.2911,0,0,0,.1566-.7661.58.58,0,0,0-.27-.619.7632.7632,0,0,0-.4413-.1179H53.3082c-.1138,0-.2374.0052-.37.015a.908.908,0,0,1-.37-.0442h-.2563a1.9531,1.9531,0,0,0-.2277-.0442.4386.4386,0,0,1-.1992-.0737.63.63,0,0,1-.1991-.3537,2.7635,2.7635,0,0,1-.0712-.5157q-.0146-.28,0-.5894t.0141-.5748c0-.1569.0044-.3043.0144-.442a1.21,1.21,0,0,1,.0712-.3536.6324.6324,0,0,1,.313-.3537.9157.9157,0,0,1,.2845-.0588h.3131a.6732.6732,0,0,1,.2133-.03h6.3193a.9761.9761,0,0,1,.8111.2653,1.1888,1.1888,0,0,1,.1424.6189v8.6346q0,.56-.0141,1.0756a.6539.6539,0,0,1-.3842.6629.888.888,0,0,1-.4128.0883h-.47a9.4229,9.4229,0,0,1-.982-.0442.6783.6783,0,0,1-.5835-.4569,2.6511,2.6511,0,0,1-.1709-.5894,1.6245,1.6245,0,0,0-.1992-.56c-.0382-.039-.0853-.0834-.1424-.1325a.2549.2549,0,0,0-.2277-.0442.7548.7548,0,0,0-.3842.2358,3.4218,3.4218,0,0,1-.3272.3241q-.285.2362-.5408.4274t-.5692.3978a3.8642,3.8642,0,0,1-.7829.3832c-.2754.0987-.5549.1962-.84.2946a1.05,1.05,0,0,1-.2989.0737,2.6646,2.6646,0,0,0-.2989.0442,1.9414,1.9414,0,0,1-.484.0588,2.2746,2.2746,0,0,0-.5122.0588,1.1054,1.1054,0,0,1-.3275.0149,1.3609,1.3609,0,0,1-.2989-.0442h-.2845a1.3273,1.3273,0,0,0-.27-.0295,1.3444,1.3444,0,0,1-.27-.03h-.2278a3.6057,3.6057,0,0,0-.4554-.0883,3.767,3.767,0,0,1-.4554-.0884q-.1995-.0593-.3987-.1032c-.1329-.03-.2659-.0634-.3983-.1033a8.4534,8.4534,0,0,1-1.5087-.6189,9.3448,9.3448,0,0,1-2.7326-2.1661,11.2787,11.2787,0,0,1-1.7932-3.1092,4.585,4.585,0,0,1-.2563-.8252,6.7166,6.7166,0,0,0-.2277-.8252,1.3413,1.3413,0,0,1-.0286-.25.7273.7273,0,0,0-.0567-.25,1.5827,1.5827,0,0,1-.0571-.4274,1.96,1.96,0,0,0-.0568-.4569.51.51,0,0,1-.0427-.25.7853.7853,0,0,0-.0144-.25v-.53a1.8665,1.8665,0,0,1,0-.9139v-.3244a1.5944,1.5944,0,0,0,.0144-.3682.769.769,0,0,1,.0427-.3391,2.5178,2.5178,0,0,0,.0568-.53,2.116,2.116,0,0,1,.0571-.5011q.0851-.324.1424-.6336a4.1836,4.1836,0,0,1,.1709-.6336q.1421-.4122.27-.81a7.73,7.73,0,0,1,.2989-.781,7.054,7.054,0,0,1,.3983-.81q.2278-.3979.4555-.7514a9.8606,9.8606,0,0,1,1.9356-2.1071,9.6926,9.6926,0,0,1,2.6187-1.4587,2.9471,2.9471,0,0,1,.6832-.2209q.3693-.0732.74-.1621a.7774.7774,0,0,1,.2989-.0588.7755.7755,0,0,0,.2989-.0588.8707.8707,0,0,1,.3843-.0295.8583.8583,0,0,0,.3842-.0295.2149.2149,0,0,1,.1565,0A.2072.2072,0,0,0,50.8892,42.73Z"/><path class="cls-1" d="M71.1264,48.6828a2.3549,2.3549,0,0,1,.5549.0591.6387.6387,0,0,1,.3842.265,1.4331,1.4331,0,0,1,.1709.8106v1.0168q0,.3243.0142.7365a1.41,1.41,0,0,1-.1.6485.5233.5233,0,0,1-.3274.2653,1.81,1.81,0,0,1-.484.0588q-.2709,0-.5693-.0295a1.7182,1.7182,0,0,0-.5549.0295,1.8781,1.8781,0,0,1-.3986.0738,1.468,1.468,0,0,0-.37.0737,4.2427,4.2427,0,0,0-.9108.4273,2.4417,2.4417,0,0,0-.7114.6336q-.1429.2362-.2989.4862t-.2989.5157c-.0568.1575-.1095.3195-.1566.4862s-.09.3293-.128.4862a1.5891,1.5891,0,0,0-.057.4273,1.6082,1.6082,0,0,1-.0568.4274.5794.5794,0,0,0-.0141.2209.4313.4313,0,0,1-.0144.1916v.4715a1.1908,1.1908,0,0,0-.0286.4569,4.3317,4.3317,0,0,1,.0286.4862v4.391q0,.3832-.0286.7073a1.0873,1.0873,0,0,1-.1709.53.3425.3425,0,0,1-.1851.1325,2.1433,2.1433,0,0,1-.27.0738h-.1424a1.538,1.538,0,0,1-.3131.0295H64.1525a2.1385,2.1385,0,0,0-.3557-.0295h-.3843c-.0953-.039-.19-.0738-.2845-.1033a.3.3,0,0,1-.1992-.1916.75.75,0,0,1-.128-.4274q-.0144-.28-.0141-.5748V49.8763a.8286.8286,0,0,1,.1139-.4569.6228.6228,0,0,1,.4269-.2946,3.4375,3.4375,0,0,1,.6831-.0588h1.4517a3.5432,3.5432,0,0,1,.5978.0442.5629.5629,0,0,1,.3986.28.9406.9406,0,0,1,.1.4125q.0141.2654.0426.5157a2.1171,2.1171,0,0,0,.1.4569.2686.2686,0,0,0,.27.2062.162.162,0,0,1,.1139-.0588.1613.1613,0,0,0,.1139-.0588,1.6659,1.6659,0,0,0,.2989-.339,1.3685,1.3685,0,0,1,.3274-.3388,1.2526,1.2526,0,0,0,.1992-.1916,1.2624,1.2624,0,0,1,.1992-.1916q.2564-.1767.5266-.3536a6.3135,6.3135,0,0,1,.5549-.3241,5.9082,5.9082,0,0,1,.5834-.2063q.2988-.0882.612-.1766a1.01,1.01,0,0,1,.3271-.015C70.9884,48.7373,71.0882,48.7224,71.1264,48.6828Z"/><path class="cls-1" d="M87.4644,56.0505a2.2384,2.2384,0,0,1,0,1.0021v.2946a1.5765,1.5765,0,0,0-.0427.4715,1.6,1.6,0,0,1-.0426.4716,3.4831,3.4831,0,0,0-.0856.3832c-.0191.1178-.0383.2458-.0568.3832q-.1143.3243-.1992.6631a3.3107,3.3107,0,0,1-.2277.6336,6.4673,6.4673,0,0,1-1.5655,2.2986,8.2877,8.2877,0,0,1-2.334,1.4734,3.5943,3.5943,0,0,1-.6972.2212c-.2374.0487-.4793.1032-.7258.162a.8173.8173,0,0,1-.3131.0588,1.5332,1.5332,0,0,0-.313.03,1.2081,1.2081,0,0,0-.1851.0149,1.2882,1.2882,0,0,1-.185.0146,3.3277,3.3277,0,0,1-.4555.0442,1.3616,1.3616,0,0,1-.4839-.0442h-.2846a.981.981,0,0,0-.2989-.0146.6225.6225,0,0,1-.2989-.0442.849.849,0,0,0-.2133-.0295,1.2367,1.2367,0,0,1-.2421-.03q-.2847-.0882-.5693-.1474a2.5169,2.5169,0,0,1-.5408-.1767q-.3416-.1175-.6405-.2358a4.9143,4.9143,0,0,1-.6119-.2945,7.037,7.037,0,0,1-2.9036-3.4187,2.32,2.32,0,0,1-.2135-.56q-.0716-.2943-.1566-.6189a.7389.7389,0,0,1-.0568-.2654.7508.7508,0,0,0-.057-.2653,2.0508,2.0508,0,0,1-.0568-.4861,2.0854,2.0854,0,0,0-.0568-.4865,1.3992,1.3992,0,0,1-.0285-.2653v-.265a1.4816,1.4816,0,0,1-.0427-.5011,1.9879,1.9879,0,0,1,.0712-.5011v-.2062a1.13,1.13,0,0,0,.0144-.3095.676.676,0,0,1,.0427-.3095,1.4917,1.4917,0,0,0,.0285-.28.7712.7712,0,0,1,.0571-.28q.1134-.3825.1992-.7514a4.8123,4.8123,0,0,1,.2277-.722,7.4286,7.4286,0,0,1,1.2239-2.0187,8.618,8.618,0,0,1,1.7361-1.488,5.5955,5.5955,0,0,1,.5978-.2653q.3129-.1174.6261-.2653a3.443,3.443,0,0,1,.7685-.2063,6.8509,6.8509,0,0,0,.8255-.1766,3.3643,3.3643,0,0,1,.4269-.03,2.7028,2.7028,0,0,0,.3984-.0295,9.0046,9.0046,0,0,1,2.8606.3536,7.53,7.53,0,0,1,2.1489,1.061q.3129.2362.6405.5157a3.3149,3.3149,0,0,1,.5552.6041q.2272.2951.4127.5894t.3843.619a3.0476,3.0476,0,0,1,.313.6926q.1134.3687.2563.7811a3.9686,3.9686,0,0,1,.1423.5008q.0566.2654.1139.53a1.0257,1.0257,0,0,1,.0285.2358.9927.9927,0,0,0,.0286.2357.6224.6224,0,0,1,.0285.3242A.6048.6048,0,0,0,87.4644,56.0505ZM83.48,57.1114a3.2071,3.2071,0,0,0,0-.8547v-.2358a.8862.8862,0,0,1-.0568-.3241,1.7275,1.7275,0,0,0-.0285-.3241.43.43,0,0,0-.0285-.177c-.0383-.1572-.0712-.3192-.1-.4862a2.84,2.84,0,0,0-.1279-.4861,5.49,5.49,0,0,0-.74-1.3114,2.9879,2.9879,0,0,0-1.1386-.8694c-.1138-.039-.2277-.0737-.3415-.1032s-.2375-.0634-.37-.1033a1.5759,1.5759,0,0,0-.4839-.0442c-.1709.01-.3416.0147-.5122.0147a.2721.2721,0,0,1-.1992.0441.4435.4435,0,0,0-.1992.0147c-.133.04-.2612.0737-.3842.1032a1.1045,1.1045,0,0,0-.3275.1325,2.8761,2.8761,0,0,0-1.1527.9285,4.8919,4.8919,0,0,0-.6973,1.4,4.2324,4.2324,0,0,0-.128.619q-.0427.3243-.0994.6482a1.5363,1.5363,0,0,0-.0286.2946v.2945a2.184,2.184,0,0,0-.0426.619,2.8427,2.8427,0,0,0,.0712.619v.2653a4.4053,4.4053,0,0,1,.0853.4569,4.1007,4.1007,0,0,0,.0853.4569,6.9426,6.9426,0,0,0,.612,1.4293,3.0466,3.0466,0,0,0,1.0388.9872,1.717,1.717,0,0,0,.4413.2358,4.2024,4.2024,0,0,0,.4981.1474.4707.4707,0,0,0,.1992.0149.4867.4867,0,0,1,.1992.0146,1.6832,1.6832,0,0,0,.2418.0442.6446.6446,0,0,0,.2422-.0149h.2277a3.786,3.786,0,0,1,.4554-.0883,1.5155,1.5155,0,0,0,.4269-.1179,3.1619,3.1619,0,0,0,1.1954-.7957,4.3551,4.3551,0,0,0,.7685-1.2376,3.5237,3.5237,0,0,0,.1709-.5894q.0566-.2943.1424-.619a.95.95,0,0,0,.0285-.2209.9377.9377,0,0,1,.0285-.2208v-.28A1.4264,1.4264,0,0,1,83.48,57.1114Z"/><path class="cls-1" d="M89.1435,49.0367H91.25q.3129,0,.5978.0147a.8755.8755,0,0,1,.4555.1325.8442.8442,0,0,1,.27.3095,1.8717,1.8717,0,0,1,.1565.4419q.0564.251.1138.5011t.1139.4569a21.7948,21.7948,0,0,1,.5834,2.122q.2415,1.0907.5552,2.1514a2.6132,2.6132,0,0,1,.0853.3391,2.4774,2.4774,0,0,0,.0853.3387q.1422.4419.2419.8989t.2418.8989q.057.2066.1424.4716a.4425.4425,0,0,0,.3131.3244c.0947.02.1709-.0342.2277-.1621a2.2179,2.2179,0,0,1,.1424-.28,5.1363,5.1363,0,0,0,.2136-.8548,5.048,5.048,0,0,1,.2135-.8547,5.1562,5.1562,0,0,0,.1424-.5453q.057-.28.1139-.5452.1986-.7072.3557-1.4442t.3557-1.4441q.0857-.324.1424-.619t.1424-.5894q.1134-.4419.2277-1.061a1.3268,1.3268,0,0,1,.4269-.8547.9958.9958,0,0,1,.4554-.1325c.171-.01.36-.0147.5693-.0147h1.48a6.15,6.15,0,0,1,.6261.03.97.97,0,0,1,.484.1767.6227.6227,0,0,1,.1991.3094c.0377.128.0757.25.1139.3683q.1134.4131.185.81a5.3257,5.3257,0,0,0,.2134.81q.3415,1.1491.5834,2.3577t.5551,2.3577a6.285,6.285,0,0,1,.1851.7219,4.8031,4.8031,0,0,0,.185.6927,2.9767,2.9767,0,0,0,.2278.619.1706.1706,0,0,0,.0712.0441.1332.1332,0,0,1,.0711.0738.367.367,0,0,0,.3275-.1916c.0471-.1079.1-.2307.1565-.3683a7.8534,7.8534,0,0,0,.2845-.9873q.1135-.5149.2563-1.0168.0852-.2943.1424-.5745t.1424-.5748a15.7471,15.7471,0,0,0,.5122-1.8566,18.0979,18.0979,0,0,1,.484-1.8271,7.6486,7.6486,0,0,0,.2562-.9872,1.3077,1.3077,0,0,1,.37-.7811.932.932,0,0,1,.4555-.1766,5.0348,5.0348,0,0,1,.5692-.03h1.9924a1.3311,1.3311,0,0,1,.4269.0588.4571.4571,0,0,1,.3134.3832,1.36,1.36,0,0,1-.0854.5894q-.1993.6782-.3842,1.3114t-.4128,1.3114q-.6831,2.1516-1.3236,4.3173t-1.3237,4.3172q-.1429.472-.27.9282t-.27.9285q-.1143.3248-.2136.5748a.6606.6606,0,0,1-.3842.3682,1.4021,1.4021,0,0,1-.74.1179q-.4558-.0292-.8255-.0295-.4556,0-1.1386.0146a2.1636,2.1636,0,0,1-.9679-.1325.9619.9619,0,0,1-.2563-.3387,2.4837,2.4837,0,0,1-.1424-.4274,5.2708,5.2708,0,0,1-.2133-.8106q-.0714-.398-.1851-.81a5.1061,5.1061,0,0,1-.1423-.5452,3.6464,3.6464,0,0,0-.171-.5748q-.2559-.8544-.4413-1.7683a16.7385,16.7385,0,0,0-.4695-1.7975,9.5182,9.5182,0,0,1-.2846-1.12,1.8183,1.8183,0,0,0-.4554-.9431.3279.3279,0,0,0-.3557.2212q-.0711.2211-.1565.4569a7.6333,7.6333,0,0,0-.2989,1.1788,7.756,7.756,0,0,1-.2989,1.1789q-.3133,1.061-.5267,2.1661T97.54,62.3279q-.0573.2066-.1139.4715t-.1138.5011a2.213,2.213,0,0,1-.1566.442.9449.9449,0,0,1-.2421.3241.6686.6686,0,0,1-.3983.1325q-.2565.0151-.5693.015H93.6119q-.1707-.0293-.313-.0588a.9686.9686,0,0,1-.2563-.0884.8.8,0,0,1-.2845-.4124q-.0852-.2655-.1709-.53-.1425-.4417-.2845-.9135t-.2845-.9431q-.7119-2.18-1.3519-4.3614t-1.3237-4.3615q-.1994-.59-.37-1.1493t-.3415-1.12q-.0575-.1768-.128-.4862a.6242.6242,0,0,1,.0426-.4864.8841.8841,0,0,1,.37-.2358A.5934.5934,0,0,0,89.1435,49.0367Z"/></g></g></g></g></svg>