<svg xmlns="http://www.w3.org/2000/svg" viewBox="0 0 35.07 7.1158"><defs><style>.cls-1{fill:#93ad3c;}.cls-2{fill:#11159a;}</style></defs><g id="Layer_2" data-name="Layer 2"><g id="Capa_1" data-name="Capa 1"><path class="cls-1" d="M9.8235,1.6282A1.1587,1.1587,0,0,0,8.6378,2.87,2.1725,2.1725,0,0,1,8.2665,4.053l0,0A4.1623,4.1623,0,0,1,5.785,7.0965l.6842.01a4.1991,4.1991,0,0,0,4.2358-2.655C11.3739,2.7486,10.7967,1.6282,9.8235,1.6282Z"/><path class="cls-2" d="M8.181,2.69a3.4469,3.4469,0,0,0-.0751-.6836l-.0038,0A2.6149,2.6149,0,0,0,6.9854.4236,2.9212,2.9212,0,0,0,5.3348,0,2.5537,2.5537,0,0,0,2.7905,2.96c.001.0334.0023.0672.0045.1015A1.42,1.42,0,0,0,3.913,4.5606a1.0505,1.0505,0,0,0,1.3337-1.107,4.829,4.829,0,0,0,0-.4878c0-.2141.01-.5876.304-.619.3132-.0333.3128.2635.3137.5974a2.2726,2.2726,0,0,1-.2387.999,1.4315,1.4315,0,0,1-1.1737.8477,1.8851,1.8851,0,0,1-.259.018,1.76,1.76,0,0,1-1.1966-.468,2.0091,2.0091,0,0,1-.6409-1.48A1.1587,1.1587,0,0,0,1.17,1.6194c-.6859,0-1.175.5567-1.17,1.4814A3.75,3.75,0,0,0,.2884,4.46a4.199,4.199,0,0,0,4.2359,2.655A3.5017,3.5017,0,0,0,5.3763,7q.0622-.02.1232-.0424A3.8593,3.8593,0,0,0,7.885,4.5348q.0182-.06.0342-.1212l.01-.0366a5.5376,5.5376,0,0,0,.2434-1.3153c.0065-.0976.0092-.1919.0094-.2835l0-.0417Z"/><path class="cls-2" d="M12.519,1.4909h.5888a.1512.1512,0,0,1,.0992.0292.1636.1636,0,0,1,.0612.0961c.01.0408.02.0827.032.1254q.0232.0817.0408.1661t.0408.1662a.1378.1378,0,0,1,.0117.05.2563.2563,0,0,0,.0058.0495,1.6657,1.6657,0,0,1,.0379.1633,1.6228,1.6228,0,0,0,.0379.1632.774.774,0,0,1,.035.1341q.0115.07.0292.14a3.8443,3.8443,0,0,1,.0962.3906q.0378.1983.09.3906A1.1524,1.1524,0,0,1,13.77,3.73q.0145.0875.038.1749.0231.07.035.12a.2029.2029,0,0,0,.0582.0961.0245.0245,0,0,1,.0146.0029c.0019.002.0068.0011.0146-.0029a.0908.0908,0,0,0,.0525-.0641l.0291-.0874a1.3819,1.3819,0,0,0,.0379-.1545.8718.8718,0,0,1,.0437-.1545l.0117-.0554.0117-.0554a.88.88,0,0,0,.0437-.1545,1.324,1.324,0,0,1,.0379-.1545l.0116-.0466c.0038-.0155.0078-.033.0117-.0525a.9926.9926,0,0,0,.0291-.1078.9783.9783,0,0,1,.0292-.1079.3215.3215,0,0,0,.0116-.07l.0234-.0815.0233-.0816a3.3113,3.3113,0,0,0,.0874-.3294q.035-.1662.0817-.3294a1.0171,1.0171,0,0,0,.0437-.1632,1.61,1.61,0,0,1,.0379-.1633c.0154-.0427.0291-.0825.0408-.1195a.1394.1394,0,0,1,.0815-.0845.3429.3429,0,0,1,.0933-.0117h.4489c.0427,0,.0825.0011.12.003a.179.179,0,0,1,.0962.0321.134.134,0,0,1,.0525.0845c.0077.037.0174.0748.0291.1137q.0291.1049.0525.2127t.0525.2128a1.4794,1.4794,0,0,1,.0379.1516,1.3919,1.3919,0,0,0,.0379.1515c.0117.0429.0213.0846.0292.1254a.7958.7958,0,0,0,.035.1253q.064.2157.1107.44t.1108.44a1.1156,1.1156,0,0,1,.0437.1807.96.96,0,0,0,.0437.1749q.0175.0582.0292.1078a.2512.2512,0,0,0,.0408.09.1261.1261,0,0,0,.0292.0175h.0233l.0116-.0087.0117-.0088a.2564.2564,0,0,0,.0466-.102q.0117-.0553.0292-.1137a1.2918,1.2918,0,0,0,.0437-.1866,1.2736,1.2736,0,0,1,.0437-.1865q.0757-.2565.1253-.5131t.1254-.513a1.2975,1.2975,0,0,0,.0436-.1866,1.3043,1.3043,0,0,1,.0437-.1866.1374.1374,0,0,0,.0117-.05.26.26,0,0,1,.0059-.05q.0233-.0815.0408-.1632t.0408-.1633l.0262-.1049a.1592.1592,0,0,1,.05-.0874.2017.2017,0,0,1,.099-.035c.0388-.0038.0836-.0059.1341-.0059h.446a.2444.2444,0,0,1,.0962.0175.0927.0927,0,0,1,.0525.0991.6339.6339,0,0,1-.0234.1283,2.4044,2.4044,0,0,0-.0787.2827,2.7424,2.7424,0,0,1-.0787.2886.4743.4743,0,0,0-.0174.067.5213.5213,0,0,1-.0175.0671q-.0293.0991-.0554.2069t-.0554.2069a.2166.2166,0,0,0-.0146.0584.2141.2141,0,0,1-.0145.0582.8677.8677,0,0,0-.0437.1516.8978.8978,0,0,1-.0438.1515.1435.1435,0,0,0-.0116.0525.1443.1443,0,0,1-.0116.0525.9751.9751,0,0,0-.0437.1661,1.0074,1.0074,0,0,1-.0438.1662c-.0116.0388-.0224.0768-.032.1136s-.02.0749-.0321.1137q-.07.2217-.1195.4489a3.7691,3.7691,0,0,1-.1253.4431.6417.6417,0,0,0-.0175.0758.7131.7131,0,0,1-.0175.0758q-.0293.0993-.0554.2069a2.1115,2.1115,0,0,1-.0612.207q-.0232.0759-.0408.14a.139.139,0,0,1-.0874.0932.3605.3605,0,0,1-.0991.0117h-.49c-.0429,0-.0836-.0009-.1225-.003a.1817.1817,0,0,1-.099-.032.1391.1391,0,0,1-.0467-.0729c-.0078-.0292-.0174-.0592-.0291-.09q-.0351-.1166-.0583-.23t-.0525-.23a1.1918,1.1918,0,0,1-.0379-.1429q-.0147-.0728-.0379-.1486a.6739.6739,0,0,1-.0262-.1079.6863.6863,0,0,0-.0262-.1078,2.3054,2.3054,0,0,1-.0758-.2886q-.0293-.1488-.07-.2945a1.053,1.053,0,0,1-.0437-.1574q-.0145-.0756-.0379-.1574a1.9244,1.9244,0,0,1-.0466-.1923,1.6578,1.6578,0,0,0-.0467-.1866.6252.6252,0,0,1-.0262-.0874.2186.2186,0,0,0-.032-.0758.1408.1408,0,0,0-.035-.0233c-.0117-.0038-.0195-.0038-.0233,0a.0917.0917,0,0,0-.0583.07c-.0116.0389-.0214.072-.0291.0991a1.7724,1.7724,0,0,0-.0642.2536q-.0232.1311-.0582.2594-.0759.2624-.1312.5247t-.1312.5247a1.2964,1.2964,0,0,0-.0437.1836,1.3286,1.3286,0,0,1-.0437.1836.99.99,0,0,0-.0437.1633q-.0147.0816-.0379.1632c-.0117.0389-.0225.0739-.0321.1049a.1363.1363,0,0,1-.0612.0758.1966.1966,0,0,1-.0991.0234h-.63a.4164.4164,0,0,0-.07-.0146.1121.1121,0,0,1-.0583-.0262A.133.133,0,0,1,13.4,5.5043c-.0079-.0447-.0175-.0884-.0292-.1312q-.0292-.0932-.0554-.1923T13.26,4.9825a.2927.2927,0,0,1-.0145-.067.4165.4165,0,0,0-.0146-.0729,1.8716,1.8716,0,0,1-.0583-.1982q-.0234-.0992-.0525-.1982a.0976.0976,0,0,1-.0116-.0438.1812.1812,0,0,0-.0059-.0437,1.4755,1.4755,0,0,1-.05-.1719q-.02-.09-.05-.1779a.1093.1093,0,0,1-.0058-.035.0955.0955,0,0,0-.0117-.0408.98.98,0,0,1-.0437-.1661,1.1926,1.1926,0,0,0-.0437-.172c-.0116-.0388-.0224-.0787-.0321-.12s-.02-.0806-.032-.1195-.0214-.0776-.0292-.1166a.6732.6732,0,0,0-.0349-.1166q-.0525-.169-.09-.3439t-.09-.344a.4451.4451,0,0,1-.0175-.07.47.47,0,0,0-.0175-.07q-.0408-.1226-.07-.2507t-.07-.2565q-.0117-.0407-.032-.1225a.1469.1469,0,0,1,.0087-.1224.1432.1432,0,0,1,.0816-.0467.0337.0337,0,0,1,.0234-.0029A.0291.0291,0,0,0,12.519,1.4909Z"/><path class="cls-2" d="M20.5467,4.1144a.24.24,0,0,1,0,.1049.1089.1089,0,0,1-.0408.0758.1789.1789,0,0,1-.0845.032,1.07,1.07,0,0,1-.1225.0117q-.067.003-.1341,0t-.1195-.0029H18.5442a.1807.1807,0,0,0-.0671.0116.1546.1546,0,0,0-.0816.09.1113.1113,0,0,0-.0058.0613.3049.3049,0,0,1,.0145.067.2985.2985,0,0,0,.0146.067.8222.8222,0,0,0,.1137.23.6219.6219,0,0,0,.1837.16.2663.2663,0,0,0,.0962.038.7125.7125,0,0,1,.102.0262.7741.7741,0,0,0,.1282.0174.5246.5246,0,0,0,.14-.0058h.0525q.0582-.0115.1079-.0262t.0962-.0321a1.4471,1.4471,0,0,0,.1312-.0758.408.408,0,0,0,.1078-.0933q.0291-.0406.0612-.0787a.1877.1877,0,0,1,.0787-.0553.31.31,0,0,1,.1487-.0263q.09.003.1661.0029c.0234,0,.0476-.0009.0729-.0029a.15.15,0,0,1,.067.0088h.0583a.2153.2153,0,0,1,.0816.0291.0582.0582,0,0,1,.0262.0525.1577.1577,0,0,1-.0087.07,1.0323,1.0323,0,0,1-.0641.1458,1.1718,1.1718,0,0,1-.0817.1282,1.1751,1.1751,0,0,1-.2914.309,1.5347,1.5347,0,0,1-.4081.1982.5167.5167,0,0,1-.1283.0292.8652.8652,0,0,0-.134.0233.1429.1429,0,0,1-.05.0029.1375.1375,0,0,0-.0495.0029h-.0641a.15.15,0,0,1-.0671.0088.6.6,0,0,1-.0671-.0088.2839.2839,0,0,0-.0815,0,.1716.1716,0,0,1-.0759-.0058.1708.1708,0,0,0-.0641-.0116.1724.1724,0,0,1-.0641-.0117q-.0642-.0117-.1282-.0262a.43.43,0,0,1-.1166-.0437c-.0429-.0155-.0826-.03-.12-.0437a.5451.5451,0,0,1-.102-.05,1.6671,1.6671,0,0,1-.3324-.2711,1.3081,1.3081,0,0,1-.239-.3585.7979.7979,0,0,1-.0466-.1312,1.0314,1.0314,0,0,0-.0466-.137.1751.1751,0,0,1-.0059-.0437.186.186,0,0,0-.0058-.0438.6131.6131,0,0,1-.0292-.1515l-.0116-.1633q0-.0291-.0029-.0641a.2279.2279,0,0,1,.0029-.0642v-.07l.0175-.14c.0154-.0661.0291-.13.0407-.1924a.8365.8365,0,0,1,.0525-.1749,1.5245,1.5245,0,0,1,.8512-.857.74.74,0,0,1,.1661-.05q.0845-.0144.1778-.0379a.7235.7235,0,0,1,.0874-.0058.6886.6886,0,0,0,.0875-.0059,1.4917,1.4917,0,0,1,.51.0671,1.561,1.561,0,0,1,.3818.1895,1.2161,1.2161,0,0,1,.105.0787.8192.8192,0,0,1,.0932.09.1336.1336,0,0,0,.0467.0466q.0465.0642.0874.1311t.0875.1371a.7864.7864,0,0,1,.0495.1078l.0437.1195a1.0546,1.0546,0,0,1,.0466.1574q.0174.0817.0408.1633a.3486.3486,0,0,1,.0088.102.3414.3414,0,0,0,.0087.102v.0642Zm-.8744-.344a.1467.1467,0,0,0,.0087-.1428q-.0321-.0845-.05-.1254a.6109.6109,0,0,0-.2158-.2419.7341.7341,0,0,0-.3731-.09.0489.0489,0,0,1-.0408.0059.0741.0741,0,0,0-.0408,0,.2194.2194,0,0,1-.0641.0145.2253.2253,0,0,0-.0641.0146.622.622,0,0,0-.379.3207q-.0117.0233-.0262.0612a.3615.3615,0,0,0-.02.0758.1828.1828,0,0,0,.0029.0728.1055.1055,0,0,0,.0379.0583.24.24,0,0,0,.1283.0292h.8045c.0544,0,.1117-.0009.172-.003A.1362.1362,0,0,0,19.6723,3.77Z"/><path class="cls-1" d="M22.797,1.386a1.9174,1.9174,0,0,1,.9852.21,1.69,1.69,0,0,1,.618.5713,1.8281,1.8281,0,0,1,.1807.4314.5773.5773,0,0,1,.0175.102.1083.1083,0,0,1-.0233.09.1107.1107,0,0,1-.0816.0466,1.0348,1.0348,0,0,1-.1166.0059h-.379q-.0642,0-.12-.0029a.1481.1481,0,0,1-.09-.0321.18.18,0,0,1-.0728-.0991.8677.8677,0,0,0-.05-.1224,1.8639,1.8639,0,0,0-.1108-.1545.6967.6967,0,0,0-.14-.1312.9525.9525,0,0,0-.2682-.1224.2261.2261,0,0,0-.0641-.0146.556.556,0,0,1-.0641-.0087A.18.18,0,0,0,22.966,2.15a.73.73,0,0,0-.1749-.0029,1.5145,1.5145,0,0,0-.1632.02.6671.6671,0,0,1-.0758.0175.2464.2464,0,0,0-.07.0233,1.345,1.345,0,0,0-.2711.1516.8387.8387,0,0,0-.2069.2215.9462.9462,0,0,0-.1283.239q-.0468.1283-.0874.274a.7315.7315,0,0,0-.0234.1282q-.0059.0642-.0174.1283v.0758a.1905.1905,0,0,0-.0088.0758c.002.0272.0029.0545.0029.0816q0,.0991.0059.1982a.9252.9252,0,0,0,.0291.1866.1763.1763,0,0,1,.0059.0408.17.17,0,0,0,.0058.0408,1.6938,1.6938,0,0,0,.2215.5042.9226.9226,0,0,0,.4023.3236,1.04,1.04,0,0,0,.1078.0408q.0554.0174.12.035a.26.26,0,0,0,.0671.0029.1311.1311,0,0,1,.0612.0087.28.28,0,0,0,.0875.0116.339.339,0,0,0,.0932-.0116.1686.1686,0,0,1,.0525-.0029.1273.1273,0,0,0,.0467-.0029.1509.1509,0,0,1,.05-.003.0729.0729,0,0,0,.0436-.0087q.0816-.0232.1516-.0438a.6694.6694,0,0,0,.1341-.0553.8264.8264,0,0,0,.2332-.2012,1.1018,1.1018,0,0,0,.1515-.2827.6349.6349,0,0,0,.0321-.1516.1133.1133,0,0,0-.0554-.1224.16.16,0,0,0-.09-.0233h-.4052q-.0349,0-.0758.0029a.1924.1924,0,0,1-.0758-.0087h-.0525a.4019.4019,0,0,0-.0466-.0088.0907.0907,0,0,1-.0408-.0146.1234.1234,0,0,1-.0408-.07.5386.5386,0,0,1-.0146-.102,1.133,1.133,0,0,1,0-.1166c.002-.0408.0029-.0787.0029-.1137,0-.0311.0009-.06.003-.0875a.2286.2286,0,0,1,.0146-.07.1259.1259,0,0,1,.0641-.07.1933.1933,0,0,1,.0582-.0116h.0642a.142.142,0,0,1,.0437-.0059h1.2943a.2041.2041,0,0,1,.1661.0525.2289.2289,0,0,1,.0292.1224V5.2744c0,.0738-.0011.1448-.0029.2127a.1291.1291,0,0,1-.0787.1312.1875.1875,0,0,1-.0846.0174h-.0962a1.9987,1.9987,0,0,1-.2011-.0087.1383.1383,0,0,1-.12-.09.5134.5134,0,0,1-.035-.1166.3137.3137,0,0,0-.0408-.1107c-.0078-.0078-.0175-.0165-.0292-.0263a.0537.0537,0,0,0-.0466-.0087.1546.1546,0,0,0-.0787.0467.6944.6944,0,0,1-.067.0641q-.0583.0466-.1108.0845t-.1166.0787a.8.8,0,0,1-.16.0758c-.0564.0195-.1137.0388-.172.0583a.2224.2224,0,0,1-.0612.0146.5634.5634,0,0,0-.0612.0087.4124.4124,0,0,1-.0992.0116.48.48,0,0,0-.1049.0117.2353.2353,0,0,1-.0671.0029.2891.2891,0,0,1-.0612-.0087h-.0582a.2842.2842,0,0,0-.0554-.0059.2814.2814,0,0,1-.0554-.0058h-.0466a.7719.7719,0,0,0-.0933-.0175.7769.7769,0,0,1-.0933-.0175c-.0272-.0078-.0545-.0145-.0817-.02s-.0544-.0125-.0816-.02a1.7621,1.7621,0,0,1-.309-.1225,1.9031,1.9031,0,0,1-.56-.4285A2.2131,2.2131,0,0,1,20.99,4.47a.88.88,0,0,1-.0525-.1633,1.3084,1.3084,0,0,0-.0467-.1632.2572.2572,0,0,1-.0058-.05.14.14,0,0,0-.0116-.05.301.301,0,0,1-.0117-.0845.3709.3709,0,0,0-.0117-.09.0978.0978,0,0,1-.0087-.05.1536.1536,0,0,0-.0029-.05V3.6652a.3551.3551,0,0,1,0-.1808V3.42a.3084.3084,0,0,0,.0029-.0729A.1476.1476,0,0,1,20.85,3.28a.48.48,0,0,0,.0117-.1049.4023.4023,0,0,1,.0117-.0991c.0116-.0427.0212-.0846.0291-.1253a.8109.8109,0,0,1,.035-.1254c.0194-.0543.0379-.1079.0554-.16a1.5122,1.5122,0,0,1,.0612-.1545,1.4059,1.4059,0,0,1,.0816-.16q.0466-.0787.0933-.1486a1.9767,1.9767,0,0,1,.3965-.4169,2.0065,2.0065,0,0,1,.5363-.2885.6208.6208,0,0,1,.14-.0437q.0756-.0146.1515-.0321a.1644.1644,0,0,1,.0612-.0116.1657.1657,0,0,0,.0613-.0116.1835.1835,0,0,1,.0787-.0059.1819.1819,0,0,0,.0786-.0058.0458.0458,0,0,1,.0321,0A.0441.0441,0,0,0,22.797,1.386Z"/><path class="cls-1" d="M26.9419,2.5636a.4969.4969,0,0,1,.1137.0117.131.131,0,0,1,.0787.0524.2759.2759,0,0,1,.035.16v.2011q0,.0642.0029.1457a.27.27,0,0,1-.02.1283.1068.1068,0,0,1-.067.0525.3854.3854,0,0,1-.0992.0116q-.0555,0-.1166-.0058a.3617.3617,0,0,0-.1136.0058.3976.3976,0,0,1-.0817.0146.31.31,0,0,0-.0758.0146.8818.8818,0,0,0-.1865.0845.4945.4945,0,0,0-.1458.1254c-.02.0311-.04.0632-.0612.0961s-.0418.0671-.0612.1021c-.0116.0311-.0224.0632-.0321.0961s-.0185.0652-.0262.0962a.3054.3054,0,0,0-.0117.0846.3089.3089,0,0,1-.0116.0845.1119.1119,0,0,0-.0029.0437.0835.0835,0,0,1-.0029.0379v.0933a.2269.2269,0,0,0-.0059.09.82.82,0,0,1,.0059.0961v.8687q0,.0758-.0059.14a.21.21,0,0,1-.035.1049.07.07,0,0,1-.0379.0262.4354.4354,0,0,1-.0554.0146h-.0291a.3277.3277,0,0,1-.0642.0059h-.3148a.4518.4518,0,0,0-.0728-.0059H25.362c-.0195-.0077-.0389-.0146-.0583-.02a.0608.0608,0,0,1-.0408-.0379.1455.1455,0,0,1-.0262-.0846c-.002-.0368-.0029-.0747-.0029-.1137V2.8a.16.16,0,0,1,.0233-.09.1279.1279,0,0,1,.0875-.0583.7292.7292,0,0,1,.14-.0116h.2973a.7577.7577,0,0,1,.1225.0087.1155.1155,0,0,1,.0816.0554.181.181,0,0,1,.02.0816c.002.035.0049.0691.0088.102a.4011.4011,0,0,0,.02.09.0548.0548,0,0,0,.0554.0408.0336.0336,0,0,1,.0233-.0116.0331.0331,0,0,0,.0233-.0117.3338.3338,0,0,0,.0612-.067.2754.2754,0,0,1,.0671-.067.2561.2561,0,0,0,.0408-.0379.2475.2475,0,0,1,.0408-.0379q.0525-.0351.1079-.07t.1136-.0641a1.2263,1.2263,0,0,1,.12-.0408c.0408-.0116.0825-.0233.1254-.035a.2149.2149,0,0,1,.067-.0029C26.9137,2.5744,26.9341,2.5714,26.9419,2.5636Z"/><path class="cls-1" d="M30.2883,4.0211a.4291.4291,0,0,1,0,.1982v.0583a.2994.2994,0,0,0-.0088.0933.3048.3048,0,0,1-.0087.0933.6671.6671,0,0,0-.0175.0758q-.006.0349-.0117.0758c-.0156.0428-.0291.0865-.0408.1312a.6376.6376,0,0,1-.0466.1253,1.28,1.28,0,0,1-.3206.4547,1.708,1.708,0,0,1-.4781.2915.7507.7507,0,0,1-.1428.0437q-.0729.0145-.1487.0321A.1728.1728,0,0,1,29,5.7059a.3259.3259,0,0,0-.0641.0059.2614.2614,0,0,0-.0379.0029.2614.2614,0,0,1-.0379.0029.6959.6959,0,0,1-.0933.0088.2888.2888,0,0,1-.0991-.0088h-.0583a.21.21,0,0,0-.0612-.0029.1305.1305,0,0,1-.0612-.0087A.1812.1812,0,0,0,28.4432,5.7a.2581.2581,0,0,1-.05-.0058q-.0583-.0174-.1166-.0292a.53.53,0,0,1-.1108-.0349q-.07-.0233-.1312-.0467a1.0214,1.0214,0,0,1-.1253-.0582,1.4945,1.4945,0,0,1-.35-.2857,1.4511,1.4511,0,0,1-.2449-.3906.45.45,0,0,1-.0437-.1108q-.0147-.0582-.0321-.1224a.1423.1423,0,0,1-.0116-.0525.1434.1434,0,0,0-.0117-.0525.3935.3935,0,0,1-.0116-.0962.4.4,0,0,0-.0117-.0962.2685.2685,0,0,1-.0058-.0525V4.2135a.2839.2839,0,0,1-.0088-.0991.3857.3857,0,0,1,.0146-.0992V3.9744a.2169.2169,0,0,0,.003-.0612.13.13,0,0,1,.0087-.0612.2818.2818,0,0,0,.0059-.0554.1488.1488,0,0,1,.0116-.0554q.0232-.0756.0408-.1486a.9379.9379,0,0,1,.0467-.1428A1.46,1.46,0,0,1,27.56,3.05a1.7453,1.7453,0,0,1,.3556-.2943,1.1465,1.1465,0,0,1,.1224-.0525q.064-.0232.1282-.0525a.7242.7242,0,0,1,.1574-.0408,1.4316,1.4316,0,0,0,.1691-.035A.7238.7238,0,0,1,28.58,2.57a.56.56,0,0,0,.0815-.0059,1.9067,1.9067,0,0,1,.5859.07,1.5646,1.5646,0,0,1,.44.21q.064.0467.1312.102a.6673.6673,0,0,1,.1137.1195q.0465.0583.0845.1166t.0787.1225a.5906.5906,0,0,1,.0641.137q.0233.0729.0525.1545a.75.75,0,0,1,.0292.0991L30.265,3.8a.1964.1964,0,0,1,.0059.0466.1908.1908,0,0,0,.0058.0467.1191.1191,0,0,1,.0058.0641A.1154.1154,0,0,0,30.2883,4.0211Zm-.8162.21a.6088.6088,0,0,0,0-.1691V4.0152a.17.17,0,0,1-.0116-.0641.3267.3267,0,0,0-.0059-.0641.0817.0817,0,0,0-.0058-.035q-.0117-.0467-.02-.0962a.5584.5584,0,0,0-.0262-.0962A1.0774,1.0774,0,0,0,29.2506,3.4a.6105.6105,0,0,0-.2332-.172q-.0349-.0116-.07-.02c-.0233-.0058-.0486-.0125-.0758-.02a.3315.3315,0,0,0-.0991-.0087q-.0525.0029-.1049.0028a.0572.0572,0,0,1-.0408.0088.0942.0942,0,0,0-.0408.0029c-.0272.0078-.0535.0146-.0787.02A.23.23,0,0,0,28.44,3.24a.5858.5858,0,0,0-.2361.1837.9564.9564,0,0,0-.1428.2769.8086.8086,0,0,0-.0262.1224q-.0087.0642-.02.1283a.2953.2953,0,0,0-.0058.0582v.0583A.4169.4169,0,0,0,28,4.19a.5465.5465,0,0,0,.0145.1224V4.365a.839.839,0,0,1,.0175.09.797.797,0,0,0,.0175.09,1.3486,1.3486,0,0,0,.1253.2827.616.616,0,0,0,.2128.1953.3546.3546,0,0,0,.09.0466A.879.879,0,0,0,28.58,5.1a.1019.1019,0,0,0,.0408.003.1.1,0,0,1,.0408.0029.3665.3665,0,0,0,.05.0087.1359.1359,0,0,0,.05-.003h.0467a.7967.7967,0,0,1,.0933-.0174.3183.3183,0,0,0,.0874-.0234.6494.6494,0,0,0,.2448-.1574.8555.8555,0,0,0,.1574-.2448.6773.6773,0,0,0,.035-.1166q.0115-.0582.0292-.1224a.18.18,0,0,0,.0058-.0437.18.18,0,0,1,.0059-.0437V4.2864A.2729.2729,0,0,1,29.4721,4.231Z"/><path class="cls-1" d="M30.6322,2.6336h.4314q.0641,0,.1224.0029a.184.184,0,0,1,.0933.0262.17.17,0,0,1,.0554.0612.3626.3626,0,0,1,.032.0875l.0234.0991q.0115.05.0233.09a4.21,4.21,0,0,1,.12.42q.0493.2157.1137.4256a.52.52,0,0,1,.0175.067.4708.4708,0,0,0,.0174.067q.0291.0874.05.1779a1.7987,1.7987,0,0,0,.0495.1778q.0117.0408.0292.0933a.0887.0887,0,0,0,.0641.0641c.0194.004.035-.0067.0466-.032A.4476.4476,0,0,1,31.95,4.406a.978.978,0,0,0,.0437-.1691.9809.9809,0,0,1,.0438-.1691,1.0163,1.0163,0,0,0,.0292-.1078q.0115-.0554.0233-.1079.0406-.14.0728-.2857t.0729-.2857c.0117-.0427.0213-.0835.0292-.1224s.0174-.0777.0291-.1166q.0232-.0875.0467-.21a.26.26,0,0,1,.0874-.1691.21.21,0,0,1,.0933-.0262c.035-.0019.0737-.0029.1166-.0029h.3031q.07,0,.1283.0058a.2044.2044,0,0,1,.0991.035.1228.1228,0,0,1,.0408.0612q.0115.038.0233.0729c.0155.0545.0282.1078.0379.16a1.0288,1.0288,0,0,0,.0437.16q.07.2272.12.4664t.1137.4664a1.1952,1.1952,0,0,1,.0379.1428.9287.9287,0,0,0,.0379.137.573.573,0,0,0,.0467.1225.0352.0352,0,0,0,.0145.0087.0266.0266,0,0,1,.0146.0146.0756.0756,0,0,0,.0671-.0379c.01-.0213.02-.0456.032-.0729a1.4926,1.4926,0,0,0,.0583-.1953q.0233-.1018.0525-.2011.0174-.0582.0292-.1137t.0291-.1137a3.0012,3.0012,0,0,0,.1049-.3673,3.5168,3.5168,0,0,1,.0992-.3614,1.4717,1.4717,0,0,0,.0525-.1953.2554.2554,0,0,1,.0758-.1545.1953.1953,0,0,1,.0932-.035,1.0843,1.0843,0,0,1,.1166-.0058h.4081a.2831.2831,0,0,1,.0875.0116.091.091,0,0,1,.0641.0758.26.26,0,0,1-.0174.1166q-.041.1342-.0787.26t-.0846.2594q-.14.4255-.2711.854t-.2711.8541q-.0293.0933-.0554.1836t-.0554.1837q-.0234.0642-.0437.1137a.1329.1329,0,0,1-.0787.0728.2955.2955,0,0,1-.1516.0234q-.0933-.0058-.169-.0059-.0933,0-.2332.0029a.4572.4572,0,0,1-.1983-.0262.1914.1914,0,0,1-.0525-.067.4763.4763,0,0,1-.0291-.0846,1.0043,1.0043,0,0,1-.0437-.16c-.01-.0525-.0224-.1058-.0379-.16a.9723.9723,0,0,1-.0292-.1079.7036.7036,0,0,0-.035-.1137q-.0525-.1691-.09-.35a3.2282,3.2282,0,0,0-.0962-.3556,1.8132,1.8132,0,0,1-.0582-.2215.3551.3551,0,0,0-.0933-.1865.0673.0673,0,0,0-.0729.0437q-.0145.0438-.032.09a1.4678,1.4678,0,0,0-.0613.2332,1.4833,1.4833,0,0,1-.0612.2332q-.0642.21-.1079.4285t-.1078.4285q-.0117.0408-.0233.0933c-.0079.0349-.0156.068-.0234.0991a.4313.4313,0,0,1-.032.0875.1881.1881,0,0,1-.05.0641.1406.1406,0,0,1-.0816.0262c-.035.002-.0739.0029-.1166.0029h-.4781q-.0349-.0057-.0641-.0116a.2025.2025,0,0,1-.0525-.0175.1586.1586,0,0,1-.0583-.0816l-.035-.1049q-.0291-.0874-.0583-.1807t-.0582-.1866q-.1458-.4312-.2769-.8628t-.2711-.8628q-.0409-.1166-.0758-.2273l-.07-.2215q-.0117-.0351-.0262-.0962a.12.12,0,0,1,.0087-.0962.182.182,0,0,1,.0758-.0467A.1247.1247,0,0,0,30.6322,2.6336Z"/></g></g></svg>