<svg xmlns="http://www.w3.org/2000/svg" xmlns:xlink="http://www.w3.org/1999/xlink" viewBox="0 0 150.2361 261.2617"><defs><style>.cls-1{fill:#2c328b;}.cls-2{fill:#91ab3c;}.cls-3{opacity:0.82;fill:url(#linear-gradient);}.cls-4{fill:url(#linear-gradient-2);}.cls-5{fill:#d9d9d9;}.cls-6{fill:url(#linear-gradient-3);}.cls-7{fill:url(#linear-gradient-4);}.cls-8{fill:#d0d2d3;}.cls-9{fill:url(#linear-gradient-5);}.cls-10{fill:url(#linear-gradient-6);}.cls-11{fill:#231f20;}.cls-12{fill:url(#linear-gradient-7);}.cls-13{fill:url(#linear-gradient-8);}.cls-14{fill:#fff;}</style><linearGradient id="linear-gradient" x1="174.3694" y1="189.7941" x2="-33.067" y2="70.0306" gradientUnits="userSpaceOnUse"><stop offset="0"/><stop offset="0.0074" stop-color="#090909"/><stop offset="0.0477" stop-color="#373737"/><stop offset="0.0931" stop-color="#626262"/><stop offset="0.1419" stop-color="#888"/><stop offset="0.195" stop-color="#a8a8a8"/><stop offset="0.2537" stop-color="#c4c4c4"/><stop offset="0.32" stop-color="#dadada"/><stop offset="0.3974" stop-color="#ebebeb"/><stop offset="0.4931" stop-color="#f6f6f6"/><stop offset="0.6274" stop-color="#fdfdfd"/><stop offset="1" stop-color="#fff"/></linearGradient><linearGradient id="linear-gradient-2" x1="45.7978" y1="136.6566" x2="-15.4978" y2="125.8486" gradientUnits="userSpaceOnUse"><stop offset="0" stop-color="#383838"/><stop offset="0.0836" stop-color="#606060"/><stop offset="0.1869" stop-color="#8a8a8a"/><stop offset="0.2961" stop-color="#aeaeae"/><stop offset="0.41" stop-color="#ccc"/><stop offset="0.5303" stop-color="#e2e2e2"/><stop offset="0.6599" stop-color="#f2f2f2"/><stop offset="0.8054" stop-color="#fcfcfc"/><stop offset="1" stop-color="#fff"/></linearGradient><linearGradient id="linear-gradient-3" x1="142.6339" y1="50.2745" x2="140.9187" y2="49.2842" gradientUnits="userSpaceOnUse"><stop offset="0" stop-color="#142800"/><stop offset="0.0479" stop-color="#233807"/><stop offset="0.1741" stop-color="#445b17"/><stop offset="0.3077" stop-color="#607925"/><stop offset="0.4489" stop-color="#768f2f"/><stop offset="0.6009" stop-color="#859f36"/><stop offset="0.7716" stop-color="#8ea93b"/><stop offset="1" stop-color="#91ac3c"/></linearGradient><linearGradient id="linear-gradient-4" x1="166.0003" y1="204.2919" x2="20.2562" y2="120.1465" gradientUnits="userSpaceOnUse"><stop offset="0" stop-color="#142800"/><stop offset="0.1102" stop-color="#3c3229"/><stop offset="0.2281" stop-color="#5e3b4c"/><stop offset="0.3529" stop-color="#7b436a"/><stop offset="0.4849" stop-color="#914980"/><stop offset="0.627" stop-color="#a14d90"/><stop offset="0.7866" stop-color="#aa4f9a"/><stop offset="1" stop-color="#ad509d"/></linearGradient><linearGradient id="linear-gradient-5" x1="146.9001" y1="129.4193" x2="145.1951" y2="128.4349" xlink:href="#linear-gradient-3"/><linearGradient id="linear-gradient-6" x1="108.648" y1="257.9471" x2="67.4165" y2="150.5355" gradientUnits="userSpaceOnUse"><stop offset="0" stop-color="#142800"/><stop offset="0.0065" stop-color="#182903"/><stop offset="0.0872" stop-color="#43382a"/><stop offset="0.1743" stop-color="#69444b"/><stop offset="0.2667" stop-color="#8a4f68"/><stop offset="0.366" stop-color="#a4587f"/><stop offset="0.4749" stop-color="#b85f91"/><stop offset="0.5982" stop-color="#c6639d"/><stop offset="0.7482" stop-color="#ce66a5"/><stop offset="1" stop-color="#d167a7"/></linearGradient><linearGradient id="linear-gradient-7" x1="23.7169" y1="153.3307" x2="-2.9078" y2="148.636" gradientUnits="userSpaceOnUse"><stop offset="0" stop-color="#142800"/><stop offset="0.1078" stop-color="#3b3228"/><stop offset="0.2261" stop-color="#5e3b4b"/><stop offset="0.3513" stop-color="#7b4369"/><stop offset="0.4836" stop-color="#91497f"/><stop offset="0.6261" stop-color="#a14d8f"/><stop offset="0.786" stop-color="#aa4f99"/><stop offset="1" stop-color="#ad509c"/></linearGradient><linearGradient id="linear-gradient-8" x1="21.4293" y1="94.1271" x2="-3.3322" y2="89.761" gradientUnits="userSpaceOnUse"><stop offset="0" stop-color="#a85186"/><stop offset="0.0148" stop-color="#ab5388"/><stop offset="0.1264" stop-color="#bc5c95"/><stop offset="0.2646" stop-color="#c7629e"/><stop offset="0.4594" stop-color="#ce66a4"/><stop offset="1" stop-color="#d067a5"/></linearGradient><symbol id="wegrowlogo" data-name="wegrowlogo" viewBox="0 0 72.657 45.586"><path class="cls-2" d="M64.9242,10.431c-2.4548,0-7.5612,1.19-7.8365,7.9566a13.6228,13.6228,0,0,1-2.4536,7.5771l-.0011.0022c-2.23,9.315-7.9591,16.0954-16.3993,19.4955l4.5214.0615c13.5275.173,23.575-6.1024,27.9951-17.0089S71.3562,10.431,64.9242,10.431Z"/><path class="cls-1" d="M54.0686,17.2331a21.4476,21.4476,0,0,0-.4958-4.3794l-.0255.0029c-1.2975-6.5724-7.38-10.1427-7.38-10.1427S42.3906,0,35.2581,0C30.065,0,17.6532,3.1432,18.4429,18.9648c.006.2141.0147.43.03.65.0732,1.0839-.0213,8.3477,7.3891,9.6018,5.9678,1.01,8.6663-2.6706,8.8141-7.0919A30.2591,30.2591,0,0,0,34.6768,19c0-1.3715.0686-3.7648,2.0089-3.9654,2.07-.2138,2.0674,1.6877,2.0734,3.8269a14.1783,14.1783,0,0,1-1.578,6.4,9.4263,9.4263,0,0,1-7.7566,5.431,12.9221,12.9221,0,0,1-1.7123.1152A11.842,11.842,0,0,1,19.8038,27.81a12.6979,12.6979,0,0,1-4.2353-9.4783c-.2752-6.7668-5.3816-7.9566-7.8364-7.9566-4.5334,0-7.766,3.5659-7.7318,9.49A23.3937,23.3937,0,0,0,1.906,28.5736C6.3262,39.48,16.3737,45.7554,29.9011,45.5824a23.8383,23.8383,0,0,0,5.6315-.7368q.4111-.13.8141-.2715A25.1142,25.1142,0,0,0,52.1126,29.0516q.12-.3867.2257-.7768c.021-.0782.0446-.156.0649-.2345a34.5059,34.5059,0,0,0,1.6091-8.4259c.0424-.6256.0608-1.2294.0619-1.8164q.0006-.1341,0-.2672C54.0723,17.4312,54.0705,17.332,54.0686,17.2331Z"/></symbol><symbol id="wegrow" data-name="wegrow" viewBox="0 0 150 27.867"><path class="cls-1" d="M.9592.6918H4.8506a1.02,1.02,0,0,1,.6551.1869,1.045,1.045,0,0,1,.4047.6161c.0637.2614.135.5293.2118.803q.1536.5235.27,1.0643t.27,1.0643a.8729.8729,0,0,1,.0769.3174,1.5908,1.5908,0,0,0,.0386.3173,10.5183,10.5183,0,0,1,.25,1.0458,10.0248,10.0248,0,0,0,.25,1.0458,4.8212,4.8212,0,0,1,.2314.8589q.0765.4482.1927.8964A24.0284,24.0284,0,0,1,8.3378,11.41q.25,1.27.5973,2.5024a7.1876,7.1876,0,0,1,.2888,1.12,11.4313,11.4313,0,0,0,.25,1.12q.1536.4482.2314.7655a1.2917,1.2917,0,0,0,.3851.6161.1623.1623,0,0,1,.0964.0186c.0127.0127.0446.0065.0963-.0186a.5873.5873,0,0,0,.3469-.4107c.0773-.2243.141-.4108.1928-.56a8.72,8.72,0,0,0,.2505-.99,5.4017,5.4017,0,0,1,.2887-.99q.0382-.1864.0773-.3548c.0251-.1119.051-.23.0769-.3547a5.456,5.456,0,0,0,.2887-.99,8.4555,8.4555,0,0,1,.25-.99c.0255-.0992.0514-.1988.0769-.2988s.0514-.2111.0772-.3358a6.2887,6.2887,0,0,0,.1928-.691,6.0268,6.0268,0,0,1,.1927-.691,2.0025,2.0025,0,0,0,.0769-.4482q.0765-.2607.1541-.5228c.0514-.1737.1024-.3482.1542-.5227a20.5876,20.5876,0,0,0,.5778-2.11q.2313-1.0643.54-2.11a6.3389,6.3389,0,0,0,.2887-1.0458,10.1422,10.1422,0,0,1,.25-1.0458q.1536-.4106.27-.7655A.9062.9062,0,0,1,15.4463.766a2.328,2.328,0,0,1,.6165-.0745H19.03q.4235,0,.79.0189a1.2042,1.2042,0,0,1,.6357.2054.8544.8544,0,0,1,.3468.5416q.0765.3555.1928.7281.1923.6723.3469,1.3631t.3468,1.3631a9.1884,9.1884,0,0,1,.2505.9709,8.7676,8.7676,0,0,0,.25.9709c.0773.2745.141.5416.1928.803a4.9909,4.9909,0,0,0,.2314.803q.4235,1.3821.732,2.82t.732,2.82a7.0141,7.0141,0,0,1,.2891,1.1577,5.9227,5.9227,0,0,0,.2888,1.12q.1152.3735.1927.691a1.5849,1.5849,0,0,0,.27.5791.8646.8646,0,0,0,.1928.112h.1541a.3093.3093,0,0,1,.0769-.056.3009.3009,0,0,0,.0772-.056,1.6211,1.6211,0,0,0,.3083-.6536q.0771-.3544.1928-.7284a8.0809,8.0809,0,0,0,.2887-1.1952,8.0237,8.0237,0,0,1,.2888-1.1952q.5006-1.6428.8283-3.2867t.8284-3.2868a8.0874,8.0874,0,0,0,.2888-1.1952,8.0232,8.0232,0,0,1,.2887-1.1952.8611.8611,0,0,0,.0773-.3173,1.606,1.606,0,0,1,.0386-.3177q.1536-.5223.27-1.0458t.27-1.0458q.0769-.2982.1732-.6721a1.018,1.018,0,0,1,.3278-.56,1.361,1.361,0,0,1,.6547-.2243c.2565-.0244.552-.0375.8861-.0375H34.576a1.655,1.655,0,0,1,.6356.112.59.59,0,0,1,.3469.6347,3.9049,3.9049,0,0,1-.1542.8218,14.912,14.912,0,0,0-.52,1.8114,17.2193,17.2193,0,0,1-.52,1.8487,2.9447,2.9447,0,0,0-.1155.4293,3.1251,3.1251,0,0,1-.1155.43q-.1935.6357-.366,1.3256-.1732.6915-.366,1.3257a1.3282,1.3282,0,0,0-.0964.3737,1.3531,1.3531,0,0,1-.0964.3733,5.4694,5.4694,0,0,0-.2887.9709,5.5846,5.5846,0,0,1-.2892.9709.891.891,0,0,0-.0768.3363.9.9,0,0,1-.0769.3362,6.1222,6.1222,0,0,0-.2888,1.0643,6.25,6.25,0,0,1-.2891,1.0644c-.0769.249-.1481.4918-.2119.728s-.135.48-.2118.7285q-.4625,1.42-.79,2.8756a23.4988,23.4988,0,0,1-.8284,2.8386,4.119,4.119,0,0,0-.1155.4856,4.4363,4.4363,0,0,1-.1155.4857q-.1935.6357-.366,1.3256a13.361,13.361,0,0,1-.4046,1.3261q-.1542.4859-.27.8964a.9018.9018,0,0,1-.5779.5976,2.4754,2.4754,0,0,1-.6551.0745H24.1164c-.2832,0-.5528-.0058-.8093-.0189a1.2256,1.2256,0,0,1-.6547-.2054.8876.8876,0,0,1-.3083-.4667c-.0517-.1869-.1155-.3792-.1927-.5791q-.2313-.7464-.3852-1.4751t-.3468-1.4754a7.3805,7.3805,0,0,1-.25-.9149,9.7049,9.7049,0,0,0-.2506-.9524,4.1813,4.1813,0,0,1-.1732-.691,4.23,4.23,0,0,0-.1733-.691,14.47,14.47,0,0,1-.501-1.8488q-.1935-.9525-.4623-1.8862a6.588,6.588,0,0,1-.2888-1.0083q-.0968-.4848-.2505-1.0084a12.0477,12.0477,0,0,1-.3082-1.2322,10.233,10.233,0,0,0-.3083-1.1952,3.86,3.86,0,0,1-.1732-.56,1.3867,1.3867,0,0,0-.2119-.4856.93.93,0,0,0-.231-.1494c-.0773-.0243-.129-.0243-.1542,0a.5944.5944,0,0,0-.3851.4482q-.1153.3735-.1927.6347a11.14,11.14,0,0,0-.4238,1.6245q-.1541.84-.3851,1.6619-.5011,1.68-.867,3.3612t-.867,3.3613a8.073,8.073,0,0,0-.2888,1.1767,8.2758,8.2758,0,0,1-.2891,1.1763,6.2714,6.2714,0,0,0-.2888,1.0457,10.4128,10.4128,0,0,1-.2505,1.0458c-.0768.2494-.1481.4733-.2118.6721a.8793.8793,0,0,1-.4047.4857,1.332,1.332,0,0,1-.6547.1494H8.0119a2.8994,2.8994,0,0,0-.4624-.0935.7447.7447,0,0,1-.3851-.1679.8483.8483,0,0,1-.3852-.6161q-.0776-.4291-.1927-.84-.1935-.5971-.366-1.2323t-.366-1.27a1.83,1.83,0,0,1-.0964-.4293,2.5633,2.5633,0,0,0-.0964-.4667,11.8206,11.8206,0,0,1-.3851-1.27q-.1542-.6346-.3469-1.27a.6079.6079,0,0,1-.0769-.28,1.1335,1.1335,0,0,0-.0386-.28,9.1309,9.1309,0,0,1-.3277-1.1018,11.8289,11.8289,0,0,0-.3274-1.1392.6794.6794,0,0,1-.0386-.2243.5935.5935,0,0,0-.0769-.2613,6.133,6.133,0,0,1-.2891-1.0643,7.4142,7.4142,0,0,0-.2888-1.1018c-.0769-.2486-.1481-.5042-.2119-.7655s-.135-.5166-.2118-.7656-.1414-.4976-.1928-.747a4.2325,4.2325,0,0,0-.231-.7469q-.3471-1.0829-.5974-2.2036T1.4234,6.7394a2.7872,2.7872,0,0,1-.1155-.4482,2.93,2.93,0,0,0-.1155-.4482A16.4536,16.4536,0,0,1,.73,4.2371Q.5366,3.4159.2677,2.5937.19,2.333.0558,1.8093a.917.917,0,0,1,.0578-.7845A.9505.9505,0,0,1,.6532.726.2266.2266,0,0,1,.8073.7075.1989.1989,0,0,0,.9592.6918Z"/><path class="cls-1" d="M54.0146,17.4986a1.4911,1.4911,0,0,1,0,.6721.6926.6926,0,0,1-.27.4856,1.2059,1.2059,0,0,1-.5588.2054,7.3451,7.3451,0,0,1-.8092.0745q-.4433.0191-.8862,0t-.79-.0185H40.78a1.2274,1.2274,0,0,0-.4432.0745.826.826,0,0,0-.3851.2988.7955.7955,0,0,0-.1542.28.6946.6946,0,0,0-.0386.3922,1.9177,1.9177,0,0,1,.0964.4293,1.8286,1.8286,0,0,0,.0964.43,5.1853,5.1853,0,0,0,.7515,1.4754,4.0729,4.0729,0,0,0,1.2138,1.0269,1.7969,1.7969,0,0,0,.6357.2428,4.9041,4.9041,0,0,1,.6742.1679,5.2336,5.2336,0,0,0,.8475.112,3.5937,3.5937,0,0,0,.9248-.0374h.3469q.3848-.0742.7129-.168c.2178-.0618.43-.1308.636-.2054a9.6429,9.6429,0,0,0,.8666-.4856,2.6748,2.6748,0,0,0,.7129-.5976q.1923-.2605.4046-.5041a1.2439,1.2439,0,0,1,.52-.3548,2.1022,2.1022,0,0,1,.9825-.168q.5968.0192,1.098.0186c.1542,0,.3143-.0058.4815-.0186a1.0169,1.0169,0,0,1,.4429.056h.3851a1.4449,1.4449,0,0,1,.54.1869.37.37,0,0,1,.1732.3362.9853.9853,0,0,1-.0577.4482,6.4817,6.4817,0,0,1-.4238.9338,7.462,7.462,0,0,1-.54.8215,7.6258,7.6258,0,0,1-1.9264,1.98,10.2557,10.2557,0,0,1-2.697,1.27,3.4819,3.4819,0,0,1-.8475.1869,5.8922,5.8922,0,0,0-.8862.1494.965.965,0,0,1-.3273.0189.9376.9376,0,0,0-.3274.0185H44.845a1.0154,1.0154,0,0,1-.4432.056,4.0218,4.0218,0,0,1-.4433-.056,1.93,1.93,0,0,0-.5392,0,1.1732,1.1732,0,0,1-.501-.0374,1.1567,1.1567,0,0,0-.4238-.0745,1.1678,1.1678,0,0,1-.4237-.0746q-.4242-.0752-.8475-.1679a2.9151,2.9151,0,0,1-.7707-.28q-.4246-.1489-.79-.28a3.652,3.652,0,0,1-.6743-.3174,10.9768,10.9768,0,0,1-2.1964-1.7368,8.367,8.367,0,0,1-1.58-2.2969,5.0133,5.0133,0,0,1-.3082-.84,6.5208,6.5208,0,0,0-.3083-.8779,1.11,1.11,0,0,1-.0386-.28,1.1377,1.1377,0,0,0-.0386-.28,3.83,3.83,0,0,1-.1928-.9709q-.0388-.5229-.0769-1.0458c0-.1243-.0067-.2614-.0191-.4108a1.4169,1.4169,0,0,1,.0191-.4111V16.901l.1155-.8964q.1536-.6347.27-1.2326a5.2036,5.2036,0,0,1,.3468-1.12,9.9248,9.9248,0,0,1,5.6255-5.49,5.0124,5.0124,0,0,1,1.098-.3173q.558-.0927,1.1749-.2429a4.9424,4.9424,0,0,1,.5778-.0374,4.81,4.81,0,0,0,.5779-.0374,10.1541,10.1541,0,0,1,3.3713.43A10.459,10.459,0,0,1,49.9305,9.17a8.0545,8.0545,0,0,1,.6933.5042,5.4054,5.4054,0,0,1,.6165.5791.8641.8641,0,0,0,.3083.2988q.3077.411.5779.84t.5779.8779a4.9492,4.9492,0,0,1,.3273.691q.1346.3555.2888.7655a6.5948,6.5948,0,0,1,.3082,1.0084q.1153.5234.27,1.0457a2.1588,2.1588,0,0,1,.0577.6536,2.12,2.12,0,0,0,.0578.6536v.4111ZM48.2355,15.295a.9146.9146,0,0,0,.0577-.9149q-.2121-.5409-.3274-.8029a3.9572,3.9572,0,0,0-1.4257-1.55,4.9754,4.9754,0,0,0-2.4661-.5791.33.33,0,0,1-.27.0375.5032.5032,0,0,0-.27,0,1.4929,1.4929,0,0,1-.4238.0934,1.5075,1.5075,0,0,0-.4237.0934,4.079,4.079,0,0,0-2.5047,2.0542,4.2825,4.2825,0,0,0-.1732.3922,2.2648,2.2648,0,0,0-.135.4856,1.131,1.131,0,0,0,.02.4667.673.673,0,0,0,.25.3733,1.6265,1.6265,0,0,0,.8475.1869h5.3172q.5394,0,1.1366-.0189A.9139.9139,0,0,0,48.2355,15.295Z"/><path class="cls-2" d="M68.8869.02a13.0115,13.0115,0,0,1,6.5115,1.3446,11.0443,11.0443,0,0,1,4.0842,3.66A11.5138,11.5138,0,0,1,80.677,7.7881a3.6361,3.6361,0,0,1,.1155.6535.6788.6788,0,0,1-.1542.5791.7345.7345,0,0,1-.5392.2988,7.1933,7.1933,0,0,1-.7706.0374H76.8238q-.4241,0-.79-.0185a1.0017,1.0017,0,0,1-.5974-.2054,1.16,1.16,0,0,1-.4815-.635,5.4032,5.4032,0,0,0-.3278-.7844,11.9446,11.9446,0,0,0-.732-.99,4.5425,4.5425,0,0,0-.9247-.84,6.3944,6.3944,0,0,0-1.7723-.7844,1.5387,1.5387,0,0,0-.4238-.0935,3.8065,3.8065,0,0,1-.4237-.0559,1.2232,1.2232,0,0,0-.3469-.0375,4.9721,4.9721,0,0,0-1.1558-.0189,10.4379,10.4379,0,0,0-1.0788.1309,4.4914,4.4914,0,0,1-.501.1119,1.6712,1.6712,0,0,0-.4624.1494,8.9472,8.9472,0,0,0-1.7918.9713,5.4307,5.4307,0,0,0-1.3676,1.4191,6.0062,6.0062,0,0,0-.8479,1.5311q-.3088.8217-.5779,1.7553a4.59,4.59,0,0,0-.1541.8215q-.0388.4111-.1155.8215v.4856a1.1957,1.1957,0,0,0-.0578.4857q.0192.2618.0192.5227,0,.6357.0386,1.27a5.7865,5.7865,0,0,0,.1927,1.1951,1.0921,1.0921,0,0,1,.0387.2614,1.0553,1.0553,0,0,0,.0386.2614,10.6913,10.6913,0,0,0,1.464,3.23,6.0616,6.0616,0,0,0,2.6584,2.0726,6.85,6.85,0,0,0,.7129.2614q.3656.1118.79.2243a1.7536,1.7536,0,0,0,.4433.0185.8958.8958,0,0,1,.4046.056,1.8974,1.8974,0,0,0,.5779.0745,2.3051,2.3051,0,0,0,.6165-.0745,1.1433,1.1433,0,0,1,.3469-.0189.85.85,0,0,0,.3082-.0186,1.0408,1.0408,0,0,1,.3278-.0189.4956.4956,0,0,0,.2887-.0559q.5389-.1489,1.0017-.28a4.5117,4.5117,0,0,0,.8861-.3548,5.4063,5.4063,0,0,0,1.5413-1.2886,7.01,7.01,0,0,0,1.0016-1.8113,3.9391,3.9391,0,0,0,.2119-.9709.7183.7183,0,0,0-.366-.7844,1.0858,1.0858,0,0,0-.5974-.1494H72.1614c-.1541,0-.3214.0065-.501.0189a1.3068,1.3068,0,0,1-.501-.056h-.3469a2.7893,2.7893,0,0,0-.3082-.056.619.619,0,0,1-.27-.0934.788.788,0,0,1-.27-.4482,3.3108,3.3108,0,0,1-.0964-.6536,7.1,7.1,0,0,1,0-.747q.0192-.3919.0192-.7284c0-.1988.006-.3857.02-.56a1.45,1.45,0,0,1,.0963-.4482.8233.8233,0,0,1,.4238-.4482,1.314,1.314,0,0,1,.3851-.0745h.4238a.9693.9693,0,0,1,.2887-.0374h8.5542a1.3754,1.3754,0,0,1,1.098.3362,1.43,1.43,0,0,1,.1928.7845V24.93q0,.71-.0191,1.3632a.8243.8243,0,0,1-.52.84,1.27,1.27,0,0,1-.5587.112h-.6357q-.7712,0-1.3293-.056a.9105.9105,0,0,1-.79-.5791,3.1964,3.1964,0,0,1-.2314-.747,1.9771,1.9771,0,0,0-.27-.7095c-.0518-.0494-.1155-.1058-.1928-.168a.3637.3637,0,0,0-.3082-.0559,1.0348,1.0348,0,0,0-.52.2988,4.5021,4.5021,0,0,1-.4429.4107q-.386.2994-.732.5416t-.7707.5042a5.3815,5.3815,0,0,1-1.06.4856c-.3728.1251-.7511.2487-1.1367.3734a1.5016,1.5016,0,0,1-.4046.0934,3.8393,3.8393,0,0,0-.4046.056,2.7993,2.7993,0,0,1-.6551.0745,3.28,3.28,0,0,0-.6934.0745,1.5929,1.5929,0,0,1-.4433.0189,1.9475,1.9475,0,0,1-.4046-.056h-.3851a1.9144,1.9144,0,0,0-.366-.0374,1.941,1.941,0,0,1-.366-.0375h-.3083a5.1888,5.1888,0,0,0-.6165-.1119,5.4236,5.4236,0,0,1-.6165-.112q-.27-.0752-.54-.1308c-.18-.0375-.36-.08-.5393-.1309A11.8948,11.8948,0,0,1,63.068,26.46a12.5481,12.5481,0,0,1-3.6991-2.7452,14.1084,14.1084,0,0,1-2.4274-3.94,5.5372,5.5372,0,0,1-.3468-1.0458,8.0825,8.0825,0,0,0-.3083-1.0458,1.5908,1.5908,0,0,1-.0386-.3173.87.87,0,0,0-.0769-.3173,1.8917,1.8917,0,0,1-.0772-.5417,2.334,2.334,0,0,0-.0769-.579.6091.6091,0,0,1-.0578-.3174.9367.9367,0,0,0-.02-.3173v-.6721a1.61,1.61,0,0,1-.0769-.579,1.6128,1.6128,0,0,1,.0769-.5791v-.4111a1.9013,1.9013,0,0,0,.02-.4668.9159.9159,0,0,1,.0578-.43,2.9992,2.9992,0,0,0,.0769-.6721,2.5248,2.5248,0,0,1,.0772-.635c.0769-.2738.1406-.5417.1928-.803a5.0375,5.0375,0,0,1,.2313-.803q.1925-.5223.366-1.0269a9.4244,9.4244,0,0,1,.4047-.99,8.7027,8.7027,0,0,1,.5392-1.0269q.3083-.5043.6165-.9523a12.8522,12.8522,0,0,1,2.62-2.67A13.3918,13.3918,0,0,1,64.6865.7275a4.1819,4.1819,0,0,1,.9247-.28q.5-.0927,1.0017-.2054a1.1126,1.1126,0,0,1,.4046-.0745,1.1126,1.1126,0,0,0,.4046-.0746,1.2538,1.2538,0,0,1,.52-.0374,1.2376,1.2376,0,0,0,.52-.0374.31.31,0,0,1,.2119,0A.2979.2979,0,0,0,68.8869.02Z"/><path class="cls-2" d="M96.2812,7.5638a3.3949,3.3949,0,0,1,.7511.0749.868.868,0,0,1,.52.3358,1.7235,1.7235,0,0,1,.2313,1.0273V10.29q0,.4112.0192.9335a1.6861,1.6861,0,0,1-.1347.8218.7009.7009,0,0,1-.4432.3363,2.6133,2.6133,0,0,1-.6552.0745q-.3668,0-.7706-.0375a2.4811,2.4811,0,0,0-.7511.0375,2.7027,2.7027,0,0,1-.54.0934,2.1066,2.1066,0,0,0-.501.0934,5.9431,5.9431,0,0,0-1.2331.5416,3.24,3.24,0,0,0-.963.803q-.1935.2994-.4046.6161t-.4046.6536c-.0769.2-.1481.405-.2119.6161s-.1222.4173-.1732.6162a1.8916,1.8916,0,0,0-.0773.5416,1.9177,1.9177,0,0,1-.0769.5416.69.69,0,0,0-.0191.28.5115.5115,0,0,1-.0195.2428v.5976a1.418,1.418,0,0,0-.0386.5791,5.16,5.16,0,0,1,.0386.6161v5.5648q0,.4859-.0386.8964a1.3185,1.3185,0,0,1-.2314.6721.4636.4636,0,0,1-.2505.168,3.0954,3.0954,0,0,1-.366.0934h-.1927a2.219,2.219,0,0,1-.4238.0374H86.8409a3.0907,3.0907,0,0,0-.4815-.0374h-.52q-.1935-.0743-.3851-.1309a.3961.3961,0,0,1-.27-.2428.9081.9081,0,0,1-.1733-.5416q-.02-.3544-.0191-.7285V9.0763a.999.999,0,0,1,.1541-.579.8454.8454,0,0,1,.5779-.3734,4.9646,4.9646,0,0,1,.9248-.0745h1.965a5.131,5.131,0,0,1,.8093.056.7637.7637,0,0,1,.54.3548,1.1307,1.1307,0,0,1,.135.5227q.019.3364.0577.6536a2.5359,2.5359,0,0,0,.135.579.3611.3611,0,0,0,.366.2614.2244.2244,0,0,1,.1542-.0745.2238.2238,0,0,0,.1541-.0746,2.16,2.16,0,0,0,.4046-.43,1.7942,1.7942,0,0,1,.4433-.4293,1.66,1.66,0,0,0,.27-.2428,1.6583,1.6583,0,0,1,.27-.2428q.3471-.2241.7129-.4482t.7511-.4108q.3847-.1488.79-.2613t.8284-.224A1.4575,1.4575,0,0,1,95.877,7.62Q96.2033,7.6393,96.2812,7.5638Z"/><path class="cls-2" d="M118.3974,16.901a2.66,2.66,0,0,1,0,1.27v.3734a1.8707,1.8707,0,0,0-.0577.5976,1.9043,1.9043,0,0,1-.0578.5975,4.2226,4.2226,0,0,0-.1159.4857q-.0387.2241-.0768.4856-.1548.4111-.27.84a4.016,4.016,0,0,1-.3082.803,8.2009,8.2009,0,0,1-2.1192,2.9131,11.3482,11.3482,0,0,1-3.1594,1.8673,5.1043,5.1043,0,0,1-.9438.28q-.4821.0927-.9825.2054a1.1735,1.1735,0,0,1-.4238.0745,2.2134,2.2134,0,0,0-.4238.0375,1.7389,1.7389,0,0,0-.2505.0189,1.8586,1.8586,0,0,1-.25.0185,4.7838,4.7838,0,0,1-.6165.056,1.9645,1.9645,0,0,1-.6551-.056h-.3851a1.42,1.42,0,0,0-.4047-.0185.8951.8951,0,0,1-.4046-.056,1.2224,1.2224,0,0,0-.2887-.0375,1.7837,1.7837,0,0,1-.3278-.0374q-.3854-.1118-.7706-.1868a3.5733,3.5733,0,0,1-.732-.224q-.4624-.1488-.867-.2988a6.8355,6.8355,0,0,1-.8284-.3733,9.8215,9.8215,0,0,1-2.3119-1.83,9.2539,9.2539,0,0,1-1.6185-2.5023,2.8361,2.8361,0,0,1-.2892-.71q-.0968-.3729-.2118-.7844a.8833.8833,0,0,1-.0769-.3362.8984.8984,0,0,0-.0773-.3363,2.4417,2.4417,0,0,1-.0768-.6161,2.4836,2.4836,0,0,0-.0769-.6165,1.6618,1.6618,0,0,1-.0386-.3362v-.3359a1.7641,1.7641,0,0,1-.0578-.635,2.37,2.37,0,0,1,.0964-.6351v-.2613a1.3416,1.3416,0,0,0,.0195-.3922.8083.8083,0,0,1,.0577-.3922,1.7708,1.7708,0,0,0,.0387-.3548.9259.9259,0,0,1,.0772-.3548q.1536-.4847.27-.9523a5.8368,5.8368,0,0,1,.3083-.915,9.33,9.33,0,0,1,1.6568-2.5583,11.4882,11.4882,0,0,1,2.35-1.8858,7.8154,7.8154,0,0,1,.8093-.3362q.4235-.1489.8475-.3363a4.907,4.907,0,0,1,1.04-.2613,9.85,9.85,0,0,0,1.1175-.224,4.8584,4.8584,0,0,1,.5779-.0374,3.9026,3.9026,0,0,0,.5393-.0374,12.9674,12.9674,0,0,1,3.8722.4482,10.4835,10.4835,0,0,1,2.9089,1.3445q.4236.2994.867.6536a4.31,4.31,0,0,1,.7515.7656q.3078.374.5588.7469t.52.7845a3.7486,3.7486,0,0,1,.4238.8778q.1536.4673.3468.99a4.7675,4.7675,0,0,1,.1928.6347q.0765.3365.1541.6721a1.22,1.22,0,0,1,.0387.2988,1.18,1.18,0,0,0,.0386.2988.741.741,0,0,1,.0386.4108A.72.72,0,0,0,118.3974,16.901Zm-5.394,1.3446a3.82,3.82,0,0,0,0-1.0833v-.2988a1.0576,1.0576,0,0,1-.0769-.4107,2.0507,2.0507,0,0,0-.0386-.4108.5122.5122,0,0,0-.0387-.2242q-.0776-.2988-.135-.6162a3.4175,3.4175,0,0,0-.1732-.6161,6.8557,6.8557,0,0,0-1.0016-1.6619,4.0247,4.0247,0,0,0-1.5413-1.1018c-.1541-.0494-.3083-.0934-.4624-.1309s-.3214-.08-.501-.1308a2.2677,2.2677,0,0,0-.6551-.056q-.3471.0191-.6934.0185a.3886.3886,0,0,1-.27.056.6381.6381,0,0,0-.27.0186q-.27.0751-.52.1308a1.5534,1.5534,0,0,0-.4432.1679,3.8555,3.8555,0,0,0-1.56,1.1767,6.0531,6.0531,0,0,0-.9439,1.7739,5.0606,5.0606,0,0,0-.1733.7844q-.0579.4111-.1346.8215a1.8329,1.8329,0,0,0-.0386.3733v.3733a2.594,2.594,0,0,0-.0578.7845,3.3966,3.3966,0,0,0,.0964.7844v.3362a5.2536,5.2536,0,0,1,.1155.5791,4.913,4.913,0,0,0,.1155.579,8.5124,8.5124,0,0,0,.8284,1.8114,4.0165,4.0165,0,0,0,1.4063,1.2511,2.3758,2.3758,0,0,0,.5973.2988,5.9827,5.9827,0,0,0,.6743.1869.6824.6824,0,0,0,.27.0189.6991.6991,0,0,1,.27.0185,2.4292,2.4292,0,0,0,.3273.056.9342.9342,0,0,0,.3278-.0189h.3082a5.4316,5.4316,0,0,1,.6165-.112,2.1547,2.1547,0,0,0,.5779-.1494,4.3081,4.3081,0,0,0,1.6181-1.0083,5.4745,5.4745,0,0,0,1.04-1.5685,4.2431,4.2431,0,0,0,.2314-.747q.0765-.3729.1927-.7844a1.13,1.13,0,0,0,.0387-.28,1.1149,1.1149,0,0,1,.0386-.28v-.3548A1.685,1.685,0,0,1,113.0034,18.2456Z"/><path class="cls-2" d="M120.67,8.0124h2.8511q.4236,0,.8093.0185a1.2442,1.2442,0,0,1,.6165.1679,1.0952,1.0952,0,0,1,.366.3922,2.2755,2.2755,0,0,1,.2119.56q.0765.3178.1541.635t.1541.5791a26.2272,26.2272,0,0,1,.79,2.6891q.3269,1.3823.7515,2.7266a3.1519,3.1519,0,0,1,.1155.43,2.985,2.985,0,0,0,.1155.4293,11.7594,11.7594,0,0,1,.3274,1.1392,11.4061,11.4061,0,0,0,.3274,1.1392q.077.2618.1927.5976a.58.58,0,0,0,.4238.4111c.1282.0251.2314-.0432.3082-.2054a2.7427,2.7427,0,0,1,.1928-.3547,6.1663,6.1663,0,0,0,.2891-1.0833,6.0687,6.0687,0,0,1,.2891-1.0832,6.2229,6.2229,0,0,0,.1928-.691q.0771-.3544.1541-.691.269-.8964.4815-1.83.2109-.933.4815-1.83c.0773-.2738.141-.5351.1928-.7845s.1155-.498.1927-.747q.1536-.56.3083-1.3445a1.6505,1.6505,0,0,1,.5778-1.0833,1.418,1.418,0,0,1,.6166-.1679c.2313-.0124.4875-.0185.7706-.0185h2.0036q.4624,0,.8475.0374a1.3713,1.3713,0,0,1,.6552.2239.7876.7876,0,0,1,.27.3922q.0765.2431.1541.4668.1536.5234.25,1.0268a6.42,6.42,0,0,0,.2888,1.0269q.4623,1.4563.79,2.988t.7515,2.9879a7.5594,7.5594,0,0,1,.25.915,5.7734,5.7734,0,0,0,.25.8778,3.615,3.615,0,0,0,.3083.7844.2345.2345,0,0,0,.0964.056.1744.1744,0,0,1,.0963.0934.5013.5013,0,0,0,.4433-.2428c.0637-.1366.135-.2922.2119-.4667a9.4888,9.4888,0,0,0,.3851-1.2512q.1536-.6527.3469-1.2886.1152-.3729.1927-.7281t.1928-.7284a18.9932,18.9932,0,0,0,.6934-2.3529,21.7746,21.7746,0,0,1,.6551-2.3155,9.2093,9.2093,0,0,0,.3469-1.2512,1.6193,1.6193,0,0,1,.501-.99,1.3116,1.3116,0,0,1,.6165-.2239,7.281,7.281,0,0,1,.7706-.0375h2.697a1.9141,1.9141,0,0,1,.5779.0746.5886.5886,0,0,1,.4241.4856,1.6215,1.6215,0,0,1-.1155.747q-.27.8594-.52,1.6619t-.5587,1.6619q-.9249,2.7268-1.7918,5.4714t-1.7918,5.4714q-.1935.5982-.366,1.1763-.1732.58-.366,1.1766-.1546.4117-.2891.7285a.87.87,0,0,1-.52.4667,2.0135,2.0135,0,0,1-1.0017.1494q-.6169-.0371-1.1175-.0374-.6165,0-1.5412.0185a3.1147,3.1147,0,0,1-1.31-.1679,1.232,1.232,0,0,1-.3469-.4293,3.0078,3.0078,0,0,1-.1927-.5416,6.3479,6.3479,0,0,1-.2888-1.0273q-.0968-.5043-.2505-1.0269a6.137,6.137,0,0,1-.1927-.691,4.4013,4.4013,0,0,0-.2314-.7284q-.3465-1.0829-.5974-2.241a20.1417,20.1417,0,0,0-.6356-2.2781,11.4229,11.4229,0,0,1-.3851-1.4191,2.25,2.25,0,0,0-.6166-1.1951.4456.4456,0,0,0-.4815.28q-.0961.28-.2118.5791a9.186,9.186,0,0,0-.4047,1.494,9.3118,9.3118,0,0,1-.4046,1.4939,27.7943,27.7943,0,0,0-.7129,2.7452,27.8834,27.8834,0,0,1-.7129,2.7451q-.0775.2617-.1541.5976t-.1541.635a2.696,2.696,0,0,1-.2119.56,1.2083,1.2083,0,0,1-.3278.4107.9462.9462,0,0,1-.5392.168q-.3471.0191-.7706.0189h-3.16q-.2311-.037-.4238-.0745a1.3677,1.3677,0,0,1-.3468-.112,1.0147,1.0147,0,0,1-.3852-.5227q-.1152-.3364-.2314-.6721-.1929-.56-.3851-1.1577t-.3851-1.1952q-.9636-2.7633-1.83-5.5274T120.94,12.4579q-.27-.7469-.501-1.4565t-.4624-1.4191q-.0775-.2241-.1732-.6161a.7469.7469,0,0,1,.0577-.6165,1.2045,1.2045,0,0,1,.501-.2988A.8562.8562,0,0,0,120.67,8.0124Z"/></symbol></defs><g id="Layer_2" data-name="Layer 2"><g id="Layer_2-2" data-name="Layer 2"><path class="cls-3" d="M147.5958,227.273q-.6067,5.6919-1.3483,11.23-2.2537,3.3662-4.4881,6.7321-49.7389,6.5442-99.478,13.0981-9.0723,1.1991-18.1447,2.3884c-.0674-.01-.1348-.01-.2118-.0192-4.0451-27.7179-4.5459-41.6635-3.3709-49.7438a28.7127,28.7127,0,0,1,1.1365-4.95c.0193-.0577.0385-.1155.0674-.1926.0674-.1926.1733-.4526.2889-.77.0482-.1445.1156-.3082.1734-.4816a.0354.0354,0,0,0,.01-.0289c.0674-.1829.1445-.3756.2119-.5875.01,0,0-.01,0-.01.077-.2119.1541-.4334.2311-.6741.2408-.7031.4912-1.5314.732-2.4367.0289-.1252.0674-.2408.0963-.366.1252-.5008.25-1.03.366-1.5794.0385-.1638.077-.3371.1059-.52.1059-.53.2023-1.069.2889-1.6277.0289-.1829.0482-.3755.0771-.5681.077-.5972.1445-1.2039.1926-1.83.0193-.183.0289-.366.0385-.5394a31.199,31.199,0,0,0,.01-3.5538,50.3376,50.3376,0,0,0-3.5924-16.1607c-.183-.4334-.3467-.8668-.51-1.31-.0482-.1348-.0963-.26-.1349-.3949-.1637-.443-.3178-.8957-.4526-1.3483-.183-.6068-.3564-1.2328-.5105-1.8588-.0578-.2311-.1155-.4623-.1637-.6934a50.555,50.555,0,0,1-1.1364-9.13c-.0289-.6934-.0482-1.4157-.0578-2.138-.183-11.9809,1.9743-27.3615,2.0707-50.0231.077-17.904-1.2617-10.5363-2.4656-44.8995-.7319-20.8317-.6453-34.7966-7.6373-52.0745C8.7946,7.2541,7.5619,3.96,6.3965,1.6778Q68.5739,4.2637,130.7609,6.85c7.3388,15.0724,9.9584,27.4771,10.7482,36.7709.1251,1.5218.2022,2.9568.25,4.305.1541,4.6133-.1541,7.1848.2216,15.034.6741,14.2923,2.4655,22.6616,3.5923,31.2042,1.5506,11.73.6549,14.6968.8957,37.0406C146.9794,178.2226,151.3326,191.9371,147.5958,227.273Z"/><use width="72.6569" height="45.5859" transform="matrix(0.3547, -0.0129, 0.0129, 0.3547, 102.4275, 29.8536)" xlink:href="#wegrowlogo"/><path class="cls-4" d="M24.57,193.7594v.0385c-.01.1733-.0192.3563-.0385.5393-.0481.6261-.1156,1.2328-.1926,1.83-.0289.1927-.0482.3853-.0771.5682-.0866.5586-.183,1.098-.2889,1.6276-.0289.183-.0674.3564-.1059.52-.1156.5489-.2408,1.0786-.366,1.5794-.0289.1252-.0674.2408-.0963.366-.2408.9053-.4912,1.7336-.732,2.4366-.077.2408-.1541.4623-.2311.6742v.01c-.0674.2119-.1445.4045-.2119.5875a.0354.0354,0,0,1-.01.0289c-.0578.1734-.1252.3371-.1734.4815-.1156.3179-.2215.5779-.2889.77-.0289.077-.0481.1348-.0674.1926a28.7135,28.7135,0,0,0-1.1365,4.95c-.0963.6261-.1733,1.281-.2407,1.9648-.0385.3467-.0675.703-.0963,1.069-.029.3467-.0578.7127-.0771,1.0787,0,.01-.01.0288,0,.0481-.0193.366-.0386.7513-.0578,1.1365a116.1205,116.1205,0,0,0,.1734,11.73c.0481.9439.1155,1.9166.1926,2.9279.0385.5585.077,1.1268.1252,1.7046.0963,1.2328.2119,2.5137.3371,3.8524v.0193c.01.1155.0192.2215.0385.337.0578.6742.1348,1.358.2022,2.0611.27,2.6292.5875,5.4511.9631,8.4945.1252.9534.2408,1.9358.3757,2.9374.4044,3.1108.8571,6.4239,1.3772,9.9681.0193.1347.0385.2792.0578.4141-3.8524-.3467-11.0178-1.6084-15.7274-7.1654-3.573-4.2088-4.1894-9.0532-4.488-11.6727C.56,214.3792.1171,196.302.175,187.3741c.0192-4.3821.1637-6.5587.1637-6.5587,1.3-19.6471,1.772-19.9361,2.4655-31.4258A324.1671,324.1671,0,0,0,3.18,114.1115v-.0674C2.2937,95.0807-.1236,83.514.2809,69.27A117.84,117.84,0,0,1,1.9085,53.09c.1348-.7993.3949-2.2921.732-4.4013A308.2172,308.2172,0,0,0,6.175,12.2354c.0963-2.5619.2022-6.1831.2215-10.5555,1.1654,2.2825,2.3981,5.5763,3.5924,8.533,6.992,17.2779,6.9054,31.2428,7.6373,52.0745,1.2039,34.3632,2.5426,26.9955,2.4656,44.8994-.0964,22.6617-2.2537,38.0423-2.0707,50.0231q.0144,1.098.0578,2.1381a50.5562,50.5562,0,0,0,1.1364,9.13c.0482.2311.1059.4622.1637.6934.1541.626.3275,1.252.5105,1.8588.1348.4526.2889.9052.4526,1.3483.0386.1348.0867.26.1349.3949.1541.443.3274.8764.51,1.31A50.3376,50.3376,0,0,1,24.58,190.2441,30.5266,30.5266,0,0,1,24.57,193.7594Z"/><path class="cls-5" d="M25.1616,193.7769c-.0806.934-.2217,1.7663-.3435,2.6508-.154.8755-.293,1.71-.4851,2.6-.2075.85-.3572,1.7077-.6318,2.5515-.26.8445-.4854,1.6946-.7891,2.53l.03-.1706v.0959l-.0236.0654-.22.6084.0307-.1716v.002a.59.59,0,0,1-.1533.3825l.1221-.1972c-.0884.4519-.188.9006-.2988,1.341-.0823.4124-.1768.8528-.2481,1.28q-.223,1.2924-.37,2.5962c-.1155.8658-.1546,1.7547-.2376,2.6241-.0439.4358-.0632.8745-.0874,1.3122l-.0368.64-.0193.3159-.01.1579-.0049.0789-.0012.02c-.0005-.0164-.0005.07-.001-.0518a1.0652,1.0652,0,0,0-.13-.4744l.1292.6216c-.07,1.7744-.1348,3.503-.1309,5.2725.0049,1.761.0391,3.5268.0891,5.2956l.2205,5.31c.0757,1.7708.2109,3.5444.3169,5.3176l.0046.0767,0,.0142,0,.019-.0034-.0806.0207.26.01.0759c.1352,1.9861.323,3.98.4953,5.9722.1836,1.9921.3291,3.9875.5442,5.98.4336,3.9841.9558,7.9568,1.47,11.9341l.0813.6284-.6211-.06a29.4336,29.4336,0,0,1-8.3614-1.967,19.5391,19.5391,0,0,1-7.1169-4.833,18.3266,18.3266,0,0,1-4.1562-7.5181,50.2172,50.2172,0,0,1-1.2835-8.4378C1.7773,227.1973.8564,215.9182.3516,204.6174c-.2435-5.65-.39-11.3064-.3428-16.9631L.1252,183.41c.0391-1.4146.0667-2.83.1922-4.2375L.96,170.717c.4235-5.6381,1.0444-11.26,1.4689-16.894q.6171-8.4543.8707-16.9312A300.4377,300.4377,0,0,0,2.4255,103.01C1.5518,91.75-.0825,80.5066.2815,69.1836A121.4823,121.4823,0,0,1,2.0129,52.3267Q3.4463,43.97,4.3718,35.5378C4.9785,29.9185,5.4138,24.282,5.7131,18.64c.1294-2.8218.2881-5.6431.302-8.4685l.0628-4.2363a18.7932,18.7932,0,0,0-.1824-4.2366l.001-.0208L6.27,0,6.842,1.4526C7.5164,3.1641,8.0869,4.8706,8.6907,6.57c.594,1.7012,1.2336,3.3814,1.86,5.0689a88.39,88.39,0,0,1,3.271,10.2788,113.9423,113.9423,0,0,1,3.0406,21.3384c.4389,7.1826.5908,14.3794,1.0051,21.5637.2019,3.592.4067,7.1841.72,10.7678.2839,3.5852.6211,7.165,1.06,10.7275.4092,3.5638,1.0095,7.1011,1.3554,10.7444.34,3.6328.47,7.2537.5809,10.866.1884,7.2263.0827,14.4636-.2469,21.676-.1386,3.607-.38,7.2044-.7011,10.7852-.3277,3.5805-.7415,7.1445-1.0462,10.7036a72.6314,72.6314,0,0,0-.2878,10.6494,41.09,41.09,0,0,0,.6242,5.2422c.1734.865.3548,1.7246.6006,2.56.1194.4211.2283.8481.3592,1.2634l.4272,1.2156.0242.0742c.2737.7456.6308,1.574.9948,2.4563.3536.8725.6734,1.7536.9678,2.643a52.0457,52.0457,0,0,1,1.4768,5.4153,46.642,46.642,0,0,1,.8177,5.5525c.049.4654.0715.9336.1027,1.4009a5.28,5.28,0,0,1-.03,1.41A24.6935,24.6935,0,0,0,25.1616,193.7769Zm-1.1828-.035a21.19,21.19,0,0,0-.4895-2.6875c-.0933-.8837-.13-1.7807-.2339-2.6687-.1936-1.7785-.4453-3.5517-.7979-5.3064a49.741,49.741,0,0,0-1.27-5.2138c-.2576-.8562-.54-1.7046-.8518-2.5376-.3086-.82-.665-1.6795-.9871-2.6648l.0242.074c-2.396-7.1-2.582-14.5122-2.7527-21.75q-.078-5.4484.1223-10.8511c.1438-3.6.3763-7.1826.65-10.76.4973-7.1553.917-14.3039,1.1948-21.47.1428-3.582.2666-7.1616.1853-10.7133-.084-3.5415-.4336-7.1438-.5881-10.7539-.6616-14.4227-.51-28.8086-1.3215-43.1836a113.9423,113.9423,0,0,0-3.0406-21.3384,80.8419,80.8419,0,0,0-3.2956-10.2693A67.1805,67.1805,0,0,0,5.9512,1.9075l.9455-.2254v.0208a18.9636,18.9636,0,0,0-.36,4.24l-.115,4.2407c-.0488,2.8279-.2422,5.6511-.4065,8.4736q-.5511,8.465-1.5466,16.8909Q3.5014,43.9737,2.0569,52.334a118.5477,118.5477,0,0,0-1.7708,16.85c-.3432,11.3228,1.3111,22.56,2.2056,33.8211a300.53,300.53,0,0,1,.9355,33.8906q-.235,8.4774-.84,16.9392c-.4116,5.64-1.0327,11.26-1.4309,16.8975l-.5757,8.4585C.4663,180.6.45,182.012.4224,183.4231L.34,187.6558c-.0024,5.6491.1885,11.2973.4761,16.9394.5935,11.2844,1.602,22.544,2.874,33.7713A49.6707,49.6707,0,0,0,5.0124,246.66a17.4894,17.4894,0,0,0,4.024,7.1525,18.6341,18.6341,0,0,0,6.8318,4.5572,28.4738,28.4738,0,0,0,8.1013,1.8364l-.54.5684-1.7927-11.9053c-.3166-1.9822-.5652-3.9788-.8511-5.969-.2744-1.9929-.5678-3.981-.7981-5.989l.01.0757-.0562-.4143-.0017-.013-.0017-.0681,0-.019.0041.09c-.4-3.5464-.7993-7.1228-.9948-10.7-.1111-1.7919-.18-3.5893-.1914-5.3925-.0147-1.7945.0041-3.6309.1411-5.4146l.1291.6211a1.45,1.45,0,0,1-.13-.5588l.0013-.094.0017-.0222.0073-.09.0142-.179.029-.3577c.02-.2375.0352-.4809.0674-.7067.0571-.459.1091-.918.1868-1.3748.1335-.9187.2949-1.8208.5188-2.7251a22.2835,22.2835,0,0,1,.8256-2.6711c.1714-.44.3418-.8606.5577-1.2981l.6362-1.1934.1221-.1977a.4363.4363,0,0,0-.1341.3254v.0017l.031-.1719.2041-.5661-.0234.1513v-.0976l.03-.0828c.291-.7988.5059-1.6333.7637-2.4487.2742-.8086.4463-1.6643.648-2.5037.1586-.8122.3247-1.6909.426-2.5347C23.8721,195.4375,23.96,194.5439,23.9788,193.7419Z"/><path class="cls-6" d="M141.798,51.7223c-.0289-2.4078-.0578-4.334-.0386-3.7946C141.8076,49.3049,141.8076,50.5088,141.798,51.7223Z"/><path class="cls-7" d="M147.5958,227.2751q-.6067,5.6918-1.3483,11.23-2.2537,3.3659-4.4881,6.732C108.6,249.6,57.2961,256.3605,24.1367,260.7233a30.3264,30.3264,0,0,1-3.3323-7.1654c-5.1911-16.0066-.7319-38.61.9535-47.7406.0674-.1926.1733-.4526.2889-.77.0482-.1444.1156-.3081.1734-.4815a.0354.0354,0,0,0,.01-.0289c.0674-.183.1445-.3756.2119-.5875v-.01c.077-.2119.1541-.4334.2311-.6742.2408-.703.4912-1.5313.732-2.4366.0289-.1252.0674-.2408.0963-.366.1252-.5008.25-1.0305.366-1.5794.0385-.1638.077-.3372.1059-.52.1059-.53.2023-1.069.2889-1.6276.0289-.1829.0482-.3755.0771-.5682.077-.5971.1445-1.2038.1926-1.83.0193-.183.0289-.366.0385-.5393.0674-1.1461-3.5152-18.4934-3.5827-19.7166l-.2022-33.7569c4.44-68.8806,56.0809-77.5073,121.0513-81.1382-.0771-3.0819-.0482-5.1814-.0385-7.2039.0578,3.5538.1059,7.9936.0385,7.2328.0289,1.1076.077,2.34.1445,3.7465.6741,14.2922,2.4655,22.6615,3.5923,31.2042,1.5506,11.73.6549,14.6968.8957,37.0406.077,7.4929.26,14.1382.4815,20.1576C148.164,183.1461,150.7355,197.5733,147.5958,227.2751Z"/><path class="cls-8" d="M148.051,227.3235c-.2378,1.8721-.4988,3.7414-.7178,5.6155s-.4311,3.749-.59,5.6316l-.0081.0959-.0723.1165-4.487,6.7307-.1262.1892-.2251.03L24.2021,261.219l-.3137.0413-.1714-.2654a30.2769,30.2769,0,0,1-3.0937-6.4114c-.4092-1.1147-.6682-2.2712-1.0066-3.4058-.3206-1.1394-.4978-2.3095-.7532-3.4631a72.2608,72.2608,0,0,1-.977-14.0754,167.1974,167.1974,0,0,1,3.38-27.9126l.0083-.043.0115-.0315.46-1.2449.1211-.1958a.4332.4332,0,0,0-.1372.324l.031-.1719.2046-.5661-.0237.1513v-.0969l.03-.0832c.2222-.6153.4019-1.2508.5928-1.8809.1848-.6326.396-1.2544.5349-1.9075a38.9252,38.9252,0,0,0,.7454-3.8926l.2009-1.9665a2.4688,2.4688,0,0,0,.0144-.4587,4.2507,4.2507,0,0,0-.0483-.4353q-.0645-.4817-.15-.9751c-.2183-1.31-.4631-2.6246-.71-3.9371l-1.5151-7.8776-.7522-3.9449c-.1214-.6633-.2425-1.3108-.3489-2.0012a6.4976,6.4976,0,0,1-.0518-1.0515l-.0058-1.0034-.1926-32.1089v-.0191l.0009-.0163a117.0279,117.0279,0,0,1,3.1072-20.3838,76.3559,76.3559,0,0,1,7.552-19.19A62.3651,62.3651,0,0,1,43.9126,84.6829,74.6559,74.6559,0,0,1,61.2217,73.4622c12.488-5.909,26.0644-8.962,39.6128-11.0035,13.5888-2.0085,27.2883-2.9878,40.9741-3.7717l-.4719.5117-.0386-7.2187,1-.0059.0516,3.7027.0168,1.8527.0032.9288-.0027.468-.0046.2414-.0074.1438a.81.81,0,0,1-.0207.1192l-.013.0393c-.0363.0339-.007.1806-.3515.3132a.4936.4936,0,0,1-.5554-.2375c-.04-.0748-.0328-.0682-.0328-.0682l-.0119-.0371-.0181-.0761-.0124-.1,0-.0049.998-.0572a175.834,175.834,0,0,0,1.45,20.9566c.9258,6.9492,2.1807,13.86,2.8535,20.8787a183.681,183.681,0,0,1,.3609,21.0749c-.0689,3.5059-.1795,7.0144-.1292,10.5215s.148,7.0139.3272,10.5176c.2014,3.5027.3725,7.0053.667,10.5014.2578,3.4978.6352,6.9883.8813,10.4856.4175,6.9986.8611,14.0015,1.2127,21.0279.2712,7.0285.4013,14.0879.1162,21.1342C149.8013,213.3506,148.9062,220.35,148.051,227.3235Zm-.9106-.0967c.62-6.9849.7485-13.9968.8088-20.9807q.1034-10.4807-.5083-20.9617l-1.0972-21.0188c-.1828-7.0268-.1066-14.0652-.0332-21.0908.0425-7.0254-.3466-14.0383-.4563-21.0642-.051-1.7561-.0358-3.5122-.04-5.2678-.0117-1.7556.0123-3.511.06-5.2635.0441-3.5063.2153-6.9995.0539-10.4934-.2908-6.9983-1.7454-13.896-2.6394-20.8608-.9834-6.959-1.5935-13.9675-1.9526-20.9968l.9978-.0572,0,.002s.0051.0408.0007.0146l-.0124-.0478-.009-.023-.031-.0664a.4875.4875,0,0,0-.552-.2385c-.3433.1323-.3128.2786-.3482.312l-.0115.0366a.2546.2546,0,0,0-.0127.0621l.0039-.0874.0044-.221.0025-.457-.0032-.9217-.0166-1.8474-.0515-3.6977,1-.0056.0386,7.1887.0025.4846-.4746.0273c-13.6727.783-27.3467,1.7613-40.8819,3.7623C87.4875,65.48,73.9968,68.5217,61.65,74.3657A73.6646,73.6646,0,0,0,44.5752,85.4319,61.3665,61.3665,0,0,0,31.814,101.2136a75.35,75.35,0,0,0-7.4512,18.94,116.0261,116.0261,0,0,0-3.0786,20.2028l.001-.0349.1921,32.0855.0058,1.0027a5.8179,5.8179,0,0,0,.0435.9492l.3411,1.9512.7507,3.9375,1.5159,7.8823c.2478,1.3161.4929,2.6313.7143,3.96q.0861.4952.1551,1.0076a4.7491,4.7491,0,0,1,.0566.5615,3.336,3.336,0,0,1-.0176.5418l-.2073,2.0246a39.9881,39.9881,0,0,1-.7627,3.9849c-.14.6563-.3571,1.3042-.5473,1.9548-.1965.65-.3814,1.3018-.6138,1.9449l.03-.17v.0957l-.0234.0654-.2192.6086.0307-.1716a.5864.5864,0,0,1-.1562.3813l.1211-.1955-.4646,1.259.02-.0742a166.2853,166.2853,0,0,0-3.3633,27.749,71.317,71.317,0,0,0,.9617,13.8816c.251,1.1289.4241,2.2791.7375,3.3911.3311,1.106.5833,2.239.9815,3.3221a29.2771,29.2771,0,0,0,2.9895,6.1994l-.4849-.2239L141.6941,244.741l-.3508.2187,4.4887-6.7329v0l-.08.2121c.29-1.8606.5281-3.729.7581-5.5981S146.9289,229.0977,147.14,227.2268Z"/><path class="cls-9" d="M146.0741,130.85c-.0385-2.3981-.0674-4.2858-.0482-3.7561C146.0741,128.4616,146.0838,129.6462,146.0741,130.85Z"/><path class="cls-10" d="M147.5958,227.2751q-.6067,5.6918-1.3483,11.23-2.2537,3.3659-4.4881,6.732C108.6,249.6,57.2961,256.3605,24.1367,260.7233a30.3264,30.3264,0,0,1-3.3323-7.1654c.0193-7.6951.01-14.87-.0192-15.4288l1.5313-19.8012c4.7481-68.8805,54.3281-76.3445,123.7961-79.9754-.0963-3.2359-.0481-5.3933-.0385-7.5024.0482,3.4767.1156,8.0129.0482,7.5892.0288,1.0883.077,2.3114.1444,3.6886.1734,3.38.4045,6.4335.6838,9.2361C148.164,183.1461,150.7355,197.5733,147.5958,227.2751Z"/><path class="cls-11" d="M104.31,111.5339a5.33,5.33,0,0,1-.0361,1.0435,2.3056,2.3056,0,0,1-.2481.791,1.3474,1.3474,0,0,1-.4883.5132,1.582,1.582,0,0,1-.748.2075,1.5045,1.5045,0,0,1-.7363-.13,1.39,1.39,0,0,1-.5371-.4594,2.3543,2.3543,0,0,1-.3458-.76,4.9376,4.9376,0,0,1-.1542-1.0332,5.4434,5.4434,0,0,1,.0361-1.0469,2.3056,2.3056,0,0,1,.2471-.7944,1.3511,1.3511,0,0,1,.4834-.5152,1.5725,1.5725,0,0,1,.747-.2085,1.5085,1.5085,0,0,1,.7324.1294,1.4248,1.4248,0,0,1,.5411.46,2.3583,2.3583,0,0,1,.35.7632A4.8665,4.8665,0,0,1,104.31,111.5339Zm-2.2822.12a4.0691,4.0691,0,0,0,.207,1.2285.5115.5115,0,0,0,.5117.3882c.2276-.0118.3848-.1573.4688-.4366a3.8208,3.8208,0,0,0,.0859-1.2465,3.9027,3.9027,0,0,0-.2148-1.2334c-.1153-.2725-.2852-.4024-.5137-.3907a.4319.4319,0,0,0-.2891.1211.7526.7526,0,0,0-.1787.3223,2.2066,2.2066,0,0,0-.081.5239A6.9061,6.9061,0,0,0,102.0281,111.6536Z"/><path class="cls-11" d="M104.9089,112.3162l-.0429-.8213,1.7646-.0923.043.8213Z"/><path class="cls-11" d="M108.9109,110.6238a1.702,1.702,0,0,1,.58.0649,1.3314,1.3314,0,0,1,.4785.2554,1.2875,1.2875,0,0,1,.332.4419,1.6727,1.6727,0,0,1,.1455.624,1.916,1.916,0,0,1-.0849.7085,1.38,1.38,0,0,1-.3311.544,1.5959,1.5959,0,0,1-.5693.3613,2.5843,2.5843,0,0,1-.7979.1577c-.12.0063-.2392.0073-.3584.0019a3.42,3.42,0,0,1-.3437-.03,2.2325,2.2325,0,0,1-.3125-.0645,1.6282,1.6282,0,0,1-.2715-.1011l-.0459-.8779a1.9078,1.9078,0,0,0,.2724.11,2.7494,2.7494,0,0,0,.32.0815,3.2358,3.2358,0,0,0,.33.0488,2.0654,2.0654,0,0,0,.3135.0083,1.0607,1.0607,0,0,0,.6611-.2172.7.7,0,0,0,.1993-.5923.6575.6575,0,0,0-.2539-.5288,1.0773,1.0773,0,0,0-.7051-.15,1.7256,1.7256,0,0,0-.1817.0191c-.0634.01-.1269.022-.1894.0366s-.1211.0288-.1768.044a1.4289,1.4289,0,0,0-.1455.0454l-.416-.1958.0527-2.458,2.5371-.1333.0459.8608-1.6572.0869-.0293.9478c.0684-.02.15-.0386.2422-.0591A2.2707,2.2707,0,0,1,108.9109,110.6238Z"/><path class="cls-11" d="M114.3074,113.42l-3.2246.1689-.0372-.7065,1.0674-1.28c.1348-.16.2569-.3086.3662-.4434a3.6948,3.6948,0,0,0,.2793-.394,1.7138,1.7138,0,0,0,.1739-.3848,1.2082,1.2082,0,0,0,.0468-.415.4878.4878,0,0,0-.165-.37.56.56,0,0,0-.3994-.1148,1.0582,1.0582,0,0,0-.4942.1548,2.6318,2.6318,0,0,0-.4833.3916l-.587-.6255c.0938-.0947.1934-.1865.2959-.2739a2.1016,2.1016,0,0,1,.7627-.4126,2.2064,2.2064,0,0,1,.52-.085,1.8926,1.8926,0,0,1,.625.0625,1.3453,1.3453,0,0,1,.4824.2471,1.1727,1.1727,0,0,1,.32.41,1.4675,1.4675,0,0,1,.1328.5571,1.5105,1.5105,0,0,1-.07.5459,2.4016,2.4016,0,0,1-.2432.52,4.7294,4.7294,0,0,1-.37.5137c-.1416.1709-.2939.3452-.4551.5234l-.5488.6123.0029.0454,1.959-.1025Z"/><path class="cls-11" d="M114.7869,111.7986l-.044-.8213,1.7656-.0923.043.8213Z"/><path class="cls-11" d="M120.0955,109.3743a1.1834,1.1834,0,0,1-.0577.4531,1.0984,1.0984,0,0,1-.2011.36,1.236,1.236,0,0,1-.3164.2671,1.7378,1.7378,0,0,1-.4.1744l.0009.02a1.54,1.54,0,0,1,.9.3071.993.993,0,0,1,.3388.7422,1.4849,1.4849,0,0,1-.083.5894,1.2237,1.2237,0,0,1-.3242.4838,1.68,1.68,0,0,1-.5752.3379,2.8413,2.8413,0,0,1-.835.1543,3.9459,3.9459,0,0,1-.7324-.0259,2.8736,2.8736,0,0,1-.6484-.1621l-.0449-.8647a2.355,2.355,0,0,0,.3193.1221c.1123.0332.2227.061.334.0825a2.6834,2.6834,0,0,0,.3271.0444,2.52,2.52,0,0,0,.3018.0034,1.7758,1.7758,0,0,0,.4678-.0771.7868.7868,0,0,0,.291-.1631.5352.5352,0,0,0,.1474-.2373.8672.8672,0,0,0,.0323-.293.591.591,0,0,0-.0743-.2651.5213.5213,0,0,0-.2089-.1939,1.1412,1.1412,0,0,0-.3633-.11,2.6833,2.6833,0,0,0-.5449-.0176l-.3418.0176-.0371-.7134.3359-.0176a1.9193,1.9193,0,0,0,.5-.081.9131.9131,0,0,0,.3125-.1641.53.53,0,0,0,.1582-.2275.7457.7457,0,0,0,.0351-.2686.5173.5173,0,0,0-.1806-.393.7346.7346,0,0,0-.5127-.1182,1.3061,1.3061,0,0,0-.292.0464,1.5806,1.5806,0,0,0-.249.0923,1.7521,1.7521,0,0,0-.209.1167c-.0625.042-.1192.0825-.169.122l-.5478-.65a2.3686,2.3686,0,0,1,.291-.2026,2.47,2.47,0,0,1,.3447-.1685,2.6825,2.6825,0,0,1,.4053-.1215,2.944,2.944,0,0,1,.4688-.0606,2.5272,2.5272,0,0,1,.65.043,1.5379,1.5379,0,0,1,.5088.1977,1.0415,1.0415,0,0,1,.3409.3418A1.0228,1.0228,0,0,1,120.0955,109.3743Z"/><path class="cls-11" d="M124.2058,111.9016l-.5781.0308.0527.9961-.99.0517-.0528-.9961-1.9843.104-.0371-.7065,1.8789-3.21.9336-.0488.1582,3.02.5781-.0308Zm-1.6094-.7065-.0429-.8155c-.001-.0283-.002-.0688-.0039-.1225s-.004-.1153-.0059-.1836c0-.0679-.001-.1377-.002-.21s0-.1416-.0009-.208,0-.1235.0009-.1728.002-.0855.003-.1074l-.03.0014c-.0342.0947-.0732.1944-.1172.3a3.4266,3.4266,0,0,1-.1533.3179l-.7373,1.2583Z"/><path class="cls-12" d="M17.7514,187.1622.175,187.3741c.0192-4.3821.1637-6.5587.1637-6.5587,1.3-19.6471,1.772-19.9361,2.4655-31.4258A324.1671,324.1671,0,0,0,3.18,114.1115H17.9055c.2986,2.2247-3.1628,5.7572-2.08,9.7369,3.8606,14.192.3614,34.2791-1.9619,46.52C12.2991,178.61,19.33,177.3059,17.7514,187.1622Z"/><path class="cls-13" d="M17.9055,114.1115q-7.3675-.029-14.7257-.0674C2.2937,95.0807-.1236,83.514.2809,69.27c4.3146.0867,8.6486.1926,12.9632.2793.4527,6.1927.3343,18.014.654,23.953C14.3732,102.326,16.7787,105.8481,17.9055,114.1115Z"/><path class="cls-11" d="M9.8914,138.78a3.8575,3.8575,0,0,1,.7421.0777,1.6374,1.6374,0,0,1,.5518.2168.965.965,0,0,1,.3418.3725,1.1358,1.1358,0,0,1,.11.544,1.0832,1.0832,0,0,1-.1289.5176,1.0055,1.0055,0,0,1-.3545.3608,1.709,1.709,0,0,1-.5585.208,3.5032,3.5032,0,0,1-.7452.0586,3.9224,3.9224,0,0,1-.7441-.0776,1.6738,1.6738,0,0,1-.5527-.2154.97.97,0,0,1-.3428-.3711,1.1289,1.1289,0,0,1-.1123-.5424,1.07,1.07,0,0,1,.13-.5157,1.011,1.011,0,0,1,.3545-.3628,1.6638,1.6638,0,0,1,.56-.2109A3.4409,3.4409,0,0,1,9.8914,138.78Zm-.0274,1.6314a2.9174,2.9174,0,0,0,.8858-.0855.3654.3654,0,0,0,.3017-.3452.3711.3711,0,0,0-.2871-.3564,2.7625,2.7625,0,0,0-.8848-.1226,2.7927,2.7927,0,0,0-.8886.0913c-.2.0679-.3008.1836-.3047.3467a.313.313,0,0,0,.0722.2119.5378.5378,0,0,0,.2207.1436,1.5966,1.5966,0,0,0,.3692.084A5.0467,5.0467,0,0,0,9.864,140.4109Z"/><path class="cls-11" d="M10.4792,138.3923l-.5878-.01.0224-1.2622.5879.01Z"/><path class="cls-11" d="M9.4734,135.4558a1.1831,1.1831,0,0,1,.0752-.4092.9527.9527,0,0,1,.2051-.3281.9123.9123,0,0,1,.331-.2158,1.1891,1.1891,0,0,1,.4522-.0718,1.3765,1.3765,0,0,1,.5009.0952.987.987,0,0,1,.3711.2632,1.1327,1.1327,0,0,1,.23.4233,1.8421,1.8421,0,0,1,.0713.5762,2.4732,2.4732,0,0,1-.0156.2564,2.2817,2.2817,0,0,1-.0391.2431,1.5413,1.5413,0,0,1-.06.22,1.1322,1.1322,0,0,1-.086.1879l-.6269-.0112a1.5631,1.5631,0,0,0,.0918-.189c.0273-.0717.0527-.1459.0742-.2231.02-.0771.0371-.1553.0508-.2329a1.5438,1.5438,0,0,0,.0215-.2236.75.75,0,0,0-.1231-.4815.4928.4928,0,0,0-.4121-.1719.4717.4717,0,0,0-.3887.1543.7751.7751,0,0,0-.1425.4947q0,.0615.0058.13c.0039.0469.01.0923.0156.1372.0079.0445.0157.0879.0235.1285a.8738.8738,0,0,0,.0254.1064l-.1612.2861-1.749-.16.0322-1.8145.6163.0108-.0215,1.1845.6738.0679c-.01-.05-.02-.1089-.0293-.1753A1.6356,1.6356,0,0,1,9.4734,135.4558Z"/><path class="cls-11" d="M11.7341,131.75l-.04,2.3062-.5059-.0088-.8584-.8242c-.1084-.104-.208-.1978-.2978-.2827a2.5788,2.5788,0,0,0-.2666-.2188,1.2153,1.2153,0,0,0-.2656-.1435.8718.8718,0,0,0-.294-.0542.3478.3478,0,0,0-.2715.1.4.4,0,0,0-.1015.28.7588.7588,0,0,0,.0859.3589,1.836,1.836,0,0,0,.2539.3637l-.4746.3872c-.0625-.0717-.1231-.1465-.18-.2241a1.5282,1.5282,0,0,1-.1523-.2568,1.5,1.5,0,0,1-.1036-.3072,1.6,1.6,0,0,1-.0351-.375,1.32,1.32,0,0,1,.0762-.4423.9571.9571,0,0,1,.1992-.3316.8469.8469,0,0,1,.3086-.2075,1.0368,1.0368,0,0,1,.4033-.0659,1.0737,1.0737,0,0,1,.3857.0762,1.6879,1.6879,0,0,1,.3575.1992,3.2112,3.2112,0,0,1,.3486.29c.1142.1094.2314.2261.35.3511l.4092.4209.0332,0,.0244-1.4009Z"/><path class="cls-11" d="M10.6023,131.3284l-.5879-.01.0225-1.2627.5879.01Z"/><path class="cls-11" d="M9.14,127.4246a.841.841,0,0,1,.32.0634.7986.7986,0,0,1,.2461.1617.894.894,0,0,1,.1748.2382,1.2506,1.2506,0,0,1,.1035.2945h.0137a1.0934,1.0934,0,0,1,.2646-.6255.7062.7062,0,0,1,.5459-.2041,1.0422,1.0422,0,0,1,.4151.0884.8765.8765,0,0,1,.3291.2548,1.2142,1.2142,0,0,1,.2119.4268,2.0385,2.0385,0,0,1,.0683.6016,2.7393,2.7393,0,0,1-.0556.5214,2.0822,2.0822,0,0,1-.1465.4542l-.6192-.0108a1.7728,1.7728,0,0,0,.1036-.2222c.0293-.0776.0537-.1557.0752-.2334a2.29,2.29,0,0,0,.0478-.2314,1.8967,1.8967,0,0,0,.0176-.2144,1.249,1.249,0,0,0-.0322-.3369.5613.5613,0,0,0-.1016-.2153.38.38,0,0,0-.1611-.1172.6215.6215,0,0,0-.208-.0381.429.429,0,0,0-.1924.04.3752.3752,0,0,0-.1485.1386.8309.8309,0,0,0-.0976.2539,1.9006,1.9006,0,0,0-.0391.3868l-.0039.2446-.51-.0088.004-.24a1.3739,1.3739,0,0,0-.0333-.36.625.625,0,0,0-.1015-.231.3653.3653,0,0,0-.1543-.1235.51.51,0,0,0-.1895-.0386.3665.3665,0,0,0-.289.1089.5256.5256,0,0,0-.1094.3584.9092.9092,0,0,0,.0186.211,1.08,1.08,0,0,0,.0537.1821,1.0476,1.0476,0,0,0,.0722.1543c.0264.0469.0528.0888.0782.1269l-.49.3584a1.7106,1.7106,0,0,1-.2324-.4716,1.8823,1.8823,0,0,1-.0664-.2955,2.0623,2.0623,0,0,1-.0205-.3364,1.8029,1.8029,0,0,1,.0635-.4609,1.08,1.08,0,0,1,.166-.3535.7354.7354,0,0,1,.26-.2246A.7254.7254,0,0,1,9.14,127.4246Z"/><path class="cls-11" d="M11.1453,124.6208l-.0069.4141.7119.0127-.0117.707-.7129-.0127-.0244,1.4205-.5049-.0088-2.1943-1.4991.0117-.667,2.16.0376.0068-.414Zm-.584,1.1114-.5821-.01-.0878-.0024c-.0391-.0015-.0821-.0034-.1309-.0059s-.0986-.0053-.15-.0083-.1006-.0068-.1475-.01-.0888-.0064-.124-.0093l-.0762-.0069v.021c.0645.0293.1348.0621.2071.0987a2.1307,2.1307,0,0,1,.2187.125l.8594.5888Z"/><path class="cls-14" d="M104.4148,106.37l-2.709-7.42-.06.0034q.2447,2.2947.2862,3.0634l.2343,4.4707-1.8222.0958-.5039-9.6124,2.7754-.1455,2.66,7.232.0391-.002,2.0273-7.4775,2.7744-.1455.5039,9.6123-1.8994.1-.2383-4.5493c-.0117-.2149-.0214-.4634-.0292-.7437s-.0176-1.0273-.0293-2.24l-.0586.0034-2.084,7.6577Z"/><path class="cls-14" d="M120.7722,105.5125l-2.3144.1215-2.7305-3.9179-.8281.6631.18,3.4316-2.0391.1069-.5039-9.6123,2.039-.1069.2305,4.3989.7432-1.1728L117.98,96.02l2.2617-.1187-3.13,4.43Z"/><path class="cls-14" d="M128.2761,98.4875a2.9385,2.9385,0,0,1-.8457,2.4239,4.15,4.15,0,0,1-2.7148.9668l-.8741.0459.1788,3.4184-2.0381.1065-.5039-9.6123,3.0713-.1607a4.0922,4.0922,0,0,1,2.6982.6133A2.7512,2.7512,0,0,1,128.2761,98.4875Zm-4.5215,1.7667.67-.0352a2.2343,2.2343,0,0,0,1.3867-.4453,1.3006,1.3006,0,0,0,.41-1.1065,1.3358,1.3358,0,0,0-.4453-1.038,1.8367,1.8367,0,0,0-1.2441-.2774l-.9278.0488Z"/><path class="cls-14" d="M10.6052,163.7839l-3.83.96-.0009.0293q1.1527-.0022,1.5381.0181l2.2343.1171-.0478.9112-4.8057-.252.0733-1.3872,3.7343-.9453v-.02l-3.6113-1.3989.0732-1.3872,4.8057.2519-.05.95-2.2744-.1191q-.1611-.0088-.3721-.0245-.2094-.0161-1.1142-.1025l-.002.0288,3.6992,1.437Z"/><path class="cls-14" d="M11.0339,155.6052l-.06,1.1573-2.09,1.1528.2852.4468,1.7168.09-.0547,1.019L6.0261,159.22,6.0789,158.2l2.1992.1153-.544-.4312-1.5654-1.3872.0586-1.1308,2.0391,1.7885Z"/><path class="cls-14" d="M7.9333,151.5066a1.4714,1.4714,0,0,1,1.1612.5474,2.072,2.072,0,0,1,.3388,1.4l-.0224.4375,1.709.09-.0547,1.019-4.8047-.2519.08-1.5357a2.0461,2.0461,0,0,1,.4472-1.31A1.3713,1.3713,0,0,1,7.9333,151.5066Zm.6416,2.3418.0176-.3355a1.1133,1.1133,0,0,0-.1484-.7133.6476.6476,0,0,0-.5293-.2618.665.665,0,0,0-.5391.168.92.92,0,0,0-.2031.6035l-.0234.4639Z"/><use width="72.6569" height="45.5859" transform="translate(4.8935 213.4534) rotate(-89.1937) scale(0.2449)" xlink:href="#wegrowlogo"/><use width="150" height="27.8671" transform="translate(58.2408 38.7084) rotate(-3) scale(0.2834)" xlink:href="#wegrow"/></g></g></svg>