<svg xmlns="http://www.w3.org/2000/svg" viewBox="0 0 137.8904 40.155"><defs><style>.cls-1{fill:#231f20;}.cls-2{fill:#58595b;}.cls-3{fill:#fff;}.cls-4{fill:none;}.cls-5{fill:#f1f2f2;}</style></defs><g id="Layer_2" data-name="Layer 2"><g id="Layer_1-2" data-name="Layer 1"><g id="page_5" data-name="page 5"><g id="nitrifiX_Box" data-name="nitrifiX Box"><g id="Denitrification_Tag" data-name="Denitrification Tag"><path class="cls-1" d="M49.7556,14.881a2.1279,2.1279,0,0,1-.6377,1.664,2.6076,2.6076,0,0,1-1.8125.5772H46.73V19.52H45.39V12.7784h2.0185a2.5687,2.5687,0,0,1,1.7481.5274A1.9894,1.9894,0,0,1,49.7556,14.881ZM46.73,15.95h.44a1.4037,1.4037,0,0,0,.9258-.2607.9384.9384,0,0,0,.3067-.7579.971.971,0,0,0-.2578-.7431,1.153,1.153,0,0,0-.8057-.2393H46.73Z"/><path class="cls-1" d="M53.5408,14.2677a2.0236,2.0236,0,0,1,.4453.041l-.1,1.3193a1.3947,1.3947,0,0,0-.3887-.0468,1.3453,1.3453,0,0,0-.9834.3466,1.2953,1.2953,0,0,0-.3516.9678V19.52H50.8445V14.3644h.998l.1944.8671h.0654a1.8856,1.8856,0,0,1,.6074-.6992A1.4294,1.4294,0,0,1,53.5408,14.2677Z"/><path class="cls-1" d="M59.1677,16.9327a2.8851,2.8851,0,0,1-.6221,1.9688,2.1821,2.1821,0,0,1-1.7334.71,2.3077,2.3077,0,0,1-1.2265-.3242,2.1154,2.1154,0,0,1-.8174-.9346,3.3082,3.3082,0,0,1-.2852-1.42,2.8744,2.8744,0,0,1,.6182-1.9648,2.1956,2.1956,0,0,1,1.7373-.7,2.3212,2.3212,0,0,1,1.2275.3222,2.11,2.11,0,0,1,.8165.9268A3.2843,3.2843,0,0,1,59.1677,16.9327Zm-3.3408,0a2.2764,2.2764,0,0,0,.2363,1.1572.8237.8237,0,0,0,.7666.3926.8138.8138,0,0,0,.7588-.39,2.3168,2.3168,0,0,0,.23-1.16,2.2555,2.2555,0,0,0-.2324-1.1484.9537.9537,0,0,0-1.5264-.002A2.2468,2.2468,0,0,0,55.8269,16.9327Z"/><path class="cls-1" d="M62.2917,18.4913a2.7009,2.7009,0,0,0,.83-.1611v1.0469a2.8026,2.8026,0,0,1-1.21.2343,1.4273,1.4273,0,0,1-1.1514-.4257,1.9388,1.9388,0,0,1-.3613-1.28V15.42h-.6309v-.5947l.7256-.4707.3808-1.0879h.8428v1.0977H63.07V15.42H61.7175v2.4854a.5729.5729,0,0,0,.1572.4433A.6.6,0,0,0,62.2917,18.4913Z"/><path class="cls-1" d="M66.2849,19.6114a2.4022,2.4022,0,0,1-1.8232-.6865,2.7014,2.7014,0,0,1-.6573-1.9463,2.9825,2.9825,0,0,1,.6075-2.0029,2.09,2.09,0,0,1,1.6787-.708,2.0535,2.0535,0,0,1,1.5947.6221,2.4515,2.4515,0,0,1,.57,1.72v.6826H65.14a1.4031,1.4031,0,0,0,.332.9365,1.1308,1.1308,0,0,0,.873.3369,3.3589,3.3589,0,0,0,.8252-.0976,3.932,3.932,0,0,0,.8125-.3086v1.0879a2.9526,2.9526,0,0,1-.7382.2744A4.3488,4.3488,0,0,1,66.2849,19.6114Zm-.1855-4.3437a.812.812,0,0,0-.6573.2842,1.3614,1.3614,0,0,0-.2715.8046h1.85a1.2169,1.2169,0,0,0-.2559-.8046A.8347.8347,0,0,0,66.0994,15.2677Z"/><path class="cls-1" d="M71.29,19.6114q-2.2558,0-2.2559-2.6416a2.9424,2.9424,0,0,1,.6143-2.0088,2.2242,2.2242,0,0,1,1.7588-.6933,3.1722,3.1722,0,0,1,1.5039.3506l-.39,1.0879q-.31-.1334-.5791-.2188a1.7319,1.7319,0,0,0-.5351-.0859q-1.03,0-1.0293,1.5586,0,1.5132,1.0293,1.5127a2.21,2.21,0,0,0,.7041-.1084,2.4806,2.4806,0,0,0,.6484-.3389V19.23a2.0464,2.0464,0,0,1-.6465.2988A3.3972,3.3972,0,0,1,71.29,19.6114Z"/><path class="cls-1" d="M75.9138,18.4913a2.7009,2.7009,0,0,0,.83-.1611v1.0469a2.803,2.803,0,0,1-1.21.2343,1.4272,1.4272,0,0,1-1.1513-.4257,1.9382,1.9382,0,0,1-.3614-1.28V15.42H73.39v-.5947l.7256-.4707.3808-1.0879H75.34v1.0977h1.3525V15.42H75.34v2.4854a.5726.5726,0,0,0,.1572.4433A.6.6,0,0,0,75.9138,18.4913Z"/><path class="cls-1" d="M81.0915,17.9884a1.4587,1.4587,0,0,1-.5166,1.208,2.4282,2.4282,0,0,1-1.5449.415,4.6409,4.6409,0,0,1-.8994-.0752,3.2825,3.2825,0,0,1-.6953-.2236V18.1505a4.41,4.41,0,0,0,.8271.3086,3.1593,3.1593,0,0,0,.8106.124q.7178,0,.7178-.4424a.3842.3842,0,0,0-.0957-.2695,1.3883,1.3883,0,0,0-.3282-.2354c-.1552-.0878-.3633-.1894-.622-.3066a3.835,3.835,0,0,1-.8194-.4609,1.2881,1.2881,0,0,1-.38-.4864,1.705,1.705,0,0,1-.1191-.6757,1.2529,1.2529,0,0,1,.499-1.0625,2.3136,2.3136,0,0,1,1.416-.376,3.81,3.81,0,0,1,1.6983.4053l-.3975,1.0146a7.0637,7.0637,0,0,0-.6787-.2715,1.9949,1.9949,0,0,0-.6445-.1064q-.5831,0-.583.3369a.4.4,0,0,0,.1884.3271,5.01,5.01,0,0,0,.8233.41,3.75,3.75,0,0,1,.8291.457,1.3161,1.3161,0,0,1,.3887.4883A1.5829,1.5829,0,0,1,81.0915,17.9884Z"/><path class="cls-1" d="M87.487,19.52l-.2548-.7011H87.198a1.9806,1.9806,0,0,1-.6856.62,2.0909,2.0909,0,0,1-.9179.1728,1.4315,1.4315,0,0,1-1.0957-.4238,1.6945,1.6945,0,0,1-.3994-1.208,1.3937,1.3937,0,0,1,.538-1.2109A2.9622,2.9622,0,0,1,86.26,16.338l.8389-.0273v-.2266q0-.7837-.752-.7842a3.2542,3.2542,0,0,0-1.3613.374l-.4365-.95a3.728,3.728,0,0,1,1.85-.4658,2.2057,2.2057,0,0,1,1.4912.4522,1.7272,1.7272,0,0,1,.5185,1.374V19.52Zm-.3886-2.3886-.51.0185a1.5547,1.5547,0,0,0-.8564.2217.7114.7114,0,0,0-.28.6172q0,.5947.64.5947a.9787.9787,0,0,0,.7325-.2812,1.0254,1.0254,0,0,0,.2744-.7471Z"/><path class="cls-1" d="M93.987,19.5284A2.2126,2.2126,0,0,1,93.38,21.214a2.5433,2.5433,0,0,1-1.8086.5742,4.8057,4.8057,0,0,1-1.8066-.3037v-1.126a4.5155,4.5155,0,0,0,1.8838.3965q1.0165,0,1.0156-1.1709v-.1016l.0391-.6318h-.0391a1.5007,1.5007,0,0,1-1.3691.7607,1.5275,1.5275,0,0,1-1.3467-.7138,3.4655,3.4655,0,0,1-.4776-1.9463,3.4056,3.4056,0,0,1,.4952-1.9756,1.5722,1.5722,0,0,1,1.3632-.708,1.6022,1.6022,0,0,1,1.4.7558h.0342l.1084-.6591H93.987ZM91.7654,18.51a.8657.8657,0,0,0,.7607-.3252,1.8749,1.8749,0,0,0,.2285-1.0537V16.96a2.2273,2.2273,0,0,0-.2392-1.1875.8577.8577,0,0,0-.7715-.3614q-.9288,0-.93,1.5586a2.2837,2.2837,0,0,0,.2314,1.1573A.7826.7826,0,0,0,91.7654,18.51Z"/><path class="cls-1" d="M98.4343,19.52l-.2549-.7011h-.0341a1.9806,1.9806,0,0,1-.6856.62,2.0914,2.0914,0,0,1-.918.1728,1.4316,1.4316,0,0,1-1.0957-.4238,1.6945,1.6945,0,0,1-.3994-1.208,1.3935,1.3935,0,0,1,.5381-1.2109,2.9619,2.9619,0,0,1,1.6221-.4307l.8388-.0273v-.2266q0-.7837-.7519-.7842a3.2539,3.2539,0,0,0-1.3613.374l-.4366-.95a3.7286,3.7286,0,0,1,1.85-.4658,2.2058,2.2058,0,0,1,1.4913.4522,1.7272,1.7272,0,0,1,.5185,1.374V19.52Zm-.3887-2.3886-.51.0185a1.5551,1.5551,0,0,0-.8565.2217.7115.7115,0,0,0-.28.6172q0,.5947.64.5947a.9785.9785,0,0,0,.7324-.2812,1.0254,1.0254,0,0,0,.2744-.7471Z"/><path class="cls-1" d="M100.656,13.0314q0-.6872.7168-.6866t.7178.6866a.6964.6964,0,0,1-.18.51.7248.7248,0,0,1-.5381.1826A.623.623,0,0,1,100.656,13.0314ZM102.03,19.52h-1.3183V14.3644H102.03Z"/><path class="cls-1" d="M107.8728,19.52h-1.3184V16.5089a1.5205,1.5205,0,0,0-.1855-.8369.6588.6588,0,0,0-.5918-.2793.8692.8692,0,0,0-.8.3945,2.5816,2.5816,0,0,0-.2461,1.3067V19.52h-1.3184V14.3644H104.42l.1777.6591h.0732a1.4183,1.4183,0,0,1,.6075-.5644,1.9511,1.9511,0,0,1,.8789-.1914,1.631,1.631,0,0,1,1.2793.4863,2.0347,2.0347,0,0,1,.4365,1.4043Z"/><path class="cls-1" d="M112.6,17.9884a1.4587,1.4587,0,0,1-.5166,1.208,2.4282,2.4282,0,0,1-1.5449.415,4.64,4.64,0,0,1-.8994-.0752,3.2825,3.2825,0,0,1-.6953-.2236V18.1505a4.41,4.41,0,0,0,.8271.3086,3.1587,3.1587,0,0,0,.8106.124q.7177,0,.7177-.4424a.3837.3837,0,0,0-.0957-.2695,1.3852,1.3852,0,0,0-.3281-.2354c-.1553-.0878-.3633-.1894-.6221-.3066a3.8363,3.8363,0,0,1-.8193-.4609,1.2881,1.2881,0,0,1-.38-.4864,1.705,1.705,0,0,1-.1191-.6757,1.2529,1.2529,0,0,1,.499-1.0625,2.3136,2.3136,0,0,1,1.416-.376,3.81,3.81,0,0,1,1.6983.4053l-.3975,1.0146a7.0637,7.0637,0,0,0-.6787-.2715,1.9949,1.9949,0,0,0-.6445-.1064q-.5831,0-.583.3369a.4.4,0,0,0,.1884.3271,5.01,5.01,0,0,0,.8233.41,3.75,3.75,0,0,1,.8291.457,1.3171,1.3171,0,0,1,.3887.4883A1.5829,1.5829,0,0,1,112.6,17.9884Z"/><path class="cls-1" d="M115.6638,18.4913a2.7009,2.7009,0,0,0,.83-.1611v1.0469a2.803,2.803,0,0,1-1.21.2343,1.4272,1.4272,0,0,1-1.1513-.4257,1.9382,1.9382,0,0,1-.3614-1.28V15.42H113.14v-.5947l.7256-.4707.3808-1.0879h.8428v1.0977h1.3525V15.42H115.09v2.4854a.5726.5726,0,0,0,.1572.4433A.6.6,0,0,0,115.6638,18.4913Z"/><path class="cls-1" d="M50.6326,26.8829a3.1011,3.1011,0,0,1-3.4532,3.4356H45.39V23.5773h1.9834a3.2139,3.2139,0,0,1,2.4033.871A3.3275,3.3275,0,0,1,50.6326,26.8829ZM49.241,26.92q0-2.1723-1.7979-2.1718H46.73v4.39h.5752Q49.24,29.1378,49.241,26.92Z"/><path class="cls-1" d="M54.0251,30.41a2.4023,2.4023,0,0,1-1.8232-.6866,2.7014,2.7014,0,0,1-.6572-1.9463,2.9827,2.9827,0,0,1,.6074-2.0029,2.0907,2.0907,0,0,1,1.6787-.708,2.0535,2.0535,0,0,1,1.5947.6221,2.4517,2.4517,0,0,1,.57,1.72v.6826H52.8806a1.4036,1.4036,0,0,0,.332.9365,1.1308,1.1308,0,0,0,.8731.337,3.36,3.36,0,0,0,.8252-.0977,3.9306,3.9306,0,0,0,.8125-.3086V30.046a2.9547,2.9547,0,0,1-.7383.2744A4.3415,4.3415,0,0,1,54.0251,30.41ZM53.84,26.0665a.8117.8117,0,0,0-.6572.2842,1.3611,1.3611,0,0,0-.2715.8047h1.85a1.2167,1.2167,0,0,0-.2559-.8047A.8344.8344,0,0,0,53.84,26.0665Z"/><path class="cls-1" d="M61.5271,30.3185H60.2087V27.3077a1.521,1.521,0,0,0-.1855-.8369.6588.6588,0,0,0-.5918-.2793.8694.8694,0,0,0-.8.3945,2.5816,2.5816,0,0,0-.2461,1.3067v2.4258H57.0671V25.1632H58.074l.1777.6592h.0732a1.418,1.418,0,0,1,.6075-.5645,1.9511,1.9511,0,0,1,.8789-.1914,1.6311,1.6311,0,0,1,1.2793.4863,2.0348,2.0348,0,0,1,.4365,1.4043Z"/><path class="cls-1" d="M62.8288,23.83q0-.687.7168-.6865t.7178.6865a.6958.6958,0,0,1-.18.51.7245.7245,0,0,1-.5381.1827A.623.623,0,0,1,62.8288,23.83Zm1.3741,6.4883H62.8845V25.1632h1.3184Z"/><path class="cls-1" d="M67.6208,29.29a2.7009,2.7009,0,0,0,.83-.1611v1.0469a2.8025,2.8025,0,0,1-1.21.2344,1.427,1.427,0,0,1-1.1514-.4258,1.9388,1.9388,0,0,1-.3613-1.28V26.2189h-.6309v-.5948l.7256-.4707.3808-1.0879h.8428v1.0977h1.3526v1.0557H67.0466v2.4853a.5732.5732,0,0,0,.1572.4434A.6.6,0,0,0,67.6208,29.29Z"/><path class="cls-1" d="M72.1238,25.0665a2.0236,2.0236,0,0,1,.4453.041l-.1,1.3194a1.3906,1.3906,0,0,0-.3887-.0469,1.3451,1.3451,0,0,0-.9834.3467,1.2949,1.2949,0,0,0-.3516.9677v2.6241H69.4275V25.1632h.998l.1944.8672h.0654a1.8849,1.8849,0,0,1,.6074-.6992A1.4288,1.4288,0,0,1,72.1238,25.0665Z"/><path class="cls-1" d="M73.39,23.83q0-.687.7168-.6865t.7177.6865a.6962.6962,0,0,1-.18.51.7249.7249,0,0,1-.5381.1827A.623.623,0,0,1,73.39,23.83Zm1.374,6.4883H73.446V25.1632h1.3184Z"/><path class="cls-1" d="M78.8181,26.2189H77.6775v4.1H76.3591v-4.1h-.7265v-.6778l.7265-.3779v-.3779a1.76,1.76,0,0,1,.4063-1.2871,1.7817,1.7817,0,0,1,1.3007-.4053A3.1873,3.1873,0,0,1,79.28,23.31l-.3369,1.0322a2.3215,2.3215,0,0,0-.7344-.1338.4622.4622,0,0,0-.4062.1777.7654.7654,0,0,0-.125.4541v.3233h1.1406Z"/><path class="cls-1" d="M79.5183,23.83q0-.687.7168-.6865t.7178.6865a.6962.6962,0,0,1-.18.51.7247.7247,0,0,1-.5381.1827A.623.623,0,0,1,79.5183,23.83Zm1.374,6.4883H79.574V25.1632h1.3183Z"/><path class="cls-1" d="M84.237,30.41q-2.2559,0-2.2558-2.6416a2.9427,2.9427,0,0,1,.6142-2.0088,2.2244,2.2244,0,0,1,1.7588-.6934,3.1719,3.1719,0,0,1,1.5039.3506l-.39,1.0879q-.3105-.1333-.5791-.2188a1.7325,1.7325,0,0,0-.5352-.0859q-1.03,0-1.0293,1.5586,0,1.5132,1.0293,1.5127a2.2065,2.2065,0,0,0,.7041-.1084,2.48,2.48,0,0,0,.6485-.3389v1.2041a2.0446,2.0446,0,0,1-.6465.2989A3.4031,3.4031,0,0,1,84.237,30.41Z"/><path class="cls-1" d="M89.8943,30.3185l-.2549-.7012h-.0342a1.9794,1.9794,0,0,1-.6855.62,2.0916,2.0916,0,0,1-.918.1729,1.4316,1.4316,0,0,1-1.0957-.4239,1.6945,1.6945,0,0,1-.3994-1.208,1.3936,1.3936,0,0,1,.5381-1.2109,2.9627,2.9627,0,0,1,1.622-.4307l.8389-.0273v-.2266q0-.7836-.752-.7842a3.2531,3.2531,0,0,0-1.3613.3741l-.4365-.95a3.7273,3.7273,0,0,1,1.85-.4659,2.2057,2.2057,0,0,1,1.4912.4522,1.7275,1.7275,0,0,1,.5186,1.374v3.4356ZM89.5056,27.93l-.51.0185a1.5547,1.5547,0,0,0-.8564.2217.7116.7116,0,0,0-.28.6172q0,.5948.64.5947a.9785.9785,0,0,0,.7324-.2812,1.0253,1.0253,0,0,0,.2744-.7471Z"/><path class="cls-1" d="M94.2068,29.29a2.7014,2.7014,0,0,0,.83-.1611v1.0469a2.8033,2.8033,0,0,1-1.21.2344,1.4272,1.4272,0,0,1-1.1514-.4258,1.9388,1.9388,0,0,1-.3613-1.28V26.2189h-.6309v-.5948l.7256-.4707.3809-1.0879h.8428v1.0977h1.3525v1.0557H93.6326v2.4853a.5728.5728,0,0,0,.1572.4434A.6.6,0,0,0,94.2068,29.29Z"/><path class="cls-1" d="M95.9578,23.83q0-.687.7167-.6865t.7178.6865a.6958.6958,0,0,1-.18.51.7245.7245,0,0,1-.5381.1827A.623.623,0,0,1,95.9578,23.83Zm1.374,6.4883H96.0134V25.1632h1.3184Z"/><path class="cls-1" d="M103.1052,27.7315a2.8851,2.8851,0,0,1-.6221,1.9688,2.1822,2.1822,0,0,1-1.7334.71,2.3068,2.3068,0,0,1-1.2265-.3243,2.1157,2.1157,0,0,1-.8174-.9345,3.3087,3.3087,0,0,1-.2852-1.42,2.8746,2.8746,0,0,1,.6182-1.9648,2.1956,2.1956,0,0,1,1.7373-.7,2.32,2.32,0,0,1,1.2275.3223,2.11,2.11,0,0,1,.8165.9267A3.2846,3.2846,0,0,1,103.1052,27.7315Zm-3.3408,0a2.2771,2.2771,0,0,0,.2363,1.1573.8239.8239,0,0,0,.7666.3926.8137.8137,0,0,0,.7588-.39,2.3168,2.3168,0,0,0,.2305-1.16,2.2557,2.2557,0,0,0-.2324-1.1484.9536.9536,0,0,0-1.5264-.0019A2.2466,2.2466,0,0,0,99.7644,27.7315Z"/><path class="cls-1" d="M108.654,30.3185h-1.3183V27.3077a1.52,1.52,0,0,0-.1856-.8369.6588.6588,0,0,0-.5918-.2793.87.87,0,0,0-.8.3945,2.5827,2.5827,0,0,0-.2461,1.3067v2.4258h-1.3183V25.1632h1.0068l.1777.6592h.0733a1.4183,1.4183,0,0,1,.6074-.5645,1.9514,1.9514,0,0,1,.8789-.1914,1.631,1.631,0,0,1,1.2793.4863,2.0348,2.0348,0,0,1,.4365,1.4043Z"/><path class="cls-1" d="M113.6286,30.3185H112.31V23.1437h1.3183Z"/><path class="cls-1" d="M119.4021,27.7315A2.8851,2.8851,0,0,1,118.78,29.7a2.1823,2.1823,0,0,1-1.7334.71,2.3068,2.3068,0,0,1-1.2265-.3243,2.1157,2.1157,0,0,1-.8174-.9345,3.3072,3.3072,0,0,1-.2852-1.42,2.8746,2.8746,0,0,1,.6182-1.9648,2.1956,2.1956,0,0,1,1.7373-.7,2.3206,2.3206,0,0,1,1.2275.3223,2.1088,2.1088,0,0,1,.8164.9267A3.2831,3.2831,0,0,1,119.4021,27.7315Zm-3.3408,0a2.2771,2.2771,0,0,0,.2363,1.1573.8238.8238,0,0,0,.7666.3926.8137.8137,0,0,0,.7588-.39,2.3168,2.3168,0,0,0,.2305-1.16,2.2546,2.2546,0,0,0-.2325-1.1484.9535.9535,0,0,0-1.5263-.0019A2.2466,2.2466,0,0,0,116.0613,27.7315Z"/><path class="cls-1" d="M123.862,28.7872a1.4586,1.4586,0,0,1-.5166,1.208,2.4276,2.4276,0,0,1-1.5449.4151,4.6416,4.6416,0,0,1-.8994-.0752,3.2883,3.2883,0,0,1-.6953-.2237V28.9493a4.4029,4.4029,0,0,0,.8271.3086,3.1593,3.1593,0,0,0,.8106.124q.7177,0,.7178-.4423a.3844.3844,0,0,0-.0957-.27,1.3885,1.3885,0,0,0-.3282-.2353c-.1552-.0879-.3632-.1895-.622-.3067a3.835,3.835,0,0,1-.8194-.4609,1.29,1.29,0,0,1-.38-.4863,1.7052,1.7052,0,0,1-.1191-.6758,1.2529,1.2529,0,0,1,.499-1.0625,2.3136,2.3136,0,0,1,1.416-.376,3.8115,3.8115,0,0,1,1.6983.4053l-.3975,1.0146a7.09,7.09,0,0,0-.6787-.2715,1.9976,1.9976,0,0,0-.6445-.1064q-.5831,0-.583.3369a.4.4,0,0,0,.1885.3272,5.01,5.01,0,0,0,.8232.41,3.7472,3.7472,0,0,1,.8291.4571,1.3166,1.3166,0,0,1,.3887.4882A1.5813,1.5813,0,0,1,123.862,28.7872Z"/><path class="cls-1" d="M128.2615,28.7872a1.4589,1.4589,0,0,1-.5166,1.208,2.4281,2.4281,0,0,1-1.545.4151,4.6416,4.6416,0,0,1-.8994-.0752,3.29,3.29,0,0,1-.6953-.2237V28.9493a4.4014,4.4014,0,0,0,.8272.3086,3.158,3.158,0,0,0,.8105.124q.7177,0,.7178-.4423a.384.384,0,0,0-.0957-.27,1.39,1.39,0,0,0-.3281-.2353c-.1553-.0879-.3633-.1895-.6221-.3067a3.8375,3.8375,0,0,1-.8194-.4609,1.2882,1.2882,0,0,1-.38-.4863,1.7051,1.7051,0,0,1-.1192-.6758,1.2529,1.2529,0,0,1,.499-1.0625,2.314,2.314,0,0,1,1.4161-.376,3.8114,3.8114,0,0,1,1.6982.4053l-.3975,1.0146a7.08,7.08,0,0,0-.6787-.2715,1.9976,1.9976,0,0,0-.6445-.1064q-.5831,0-.583.3369a.4.4,0,0,0,.1885.3272,5.01,5.01,0,0,0,.8232.41,3.7472,3.7472,0,0,1,.8291.4571,1.3166,1.3166,0,0,1,.3887.4882A1.5813,1.5813,0,0,1,128.2615,28.7872Z"/><path class="cls-1" d="M131.4763,30.41a2.4023,2.4023,0,0,1-1.8232-.6866,2.7014,2.7014,0,0,1-.6573-1.9463,2.9827,2.9827,0,0,1,.6075-2.0029,2.0905,2.0905,0,0,1,1.6787-.708,2.0535,2.0535,0,0,1,1.5947.6221,2.4517,2.4517,0,0,1,.57,1.72v.6826h-3.1152a1.4031,1.4031,0,0,0,.332.9365,1.1306,1.1306,0,0,0,.8731.337,3.3586,3.3586,0,0,0,.8251-.0977,3.9263,3.9263,0,0,0,.8125-.3086V30.046a2.9526,2.9526,0,0,1-.7382.2744A4.3421,4.3421,0,0,1,131.4763,30.41Zm-.1855-4.3438a.812.812,0,0,0-.6573.2842,1.3618,1.3618,0,0,0-.2715.8047h1.85a1.2172,1.2172,0,0,0-.2559-.8047A.8345.8345,0,0,0,131.2908,26.0665Z"/><path class="cls-1" d="M137.89,28.7872a1.4589,1.4589,0,0,1-.5166,1.208,2.4281,2.4281,0,0,1-1.545.4151,4.6416,4.6416,0,0,1-.8994-.0752,3.29,3.29,0,0,1-.6953-.2237V28.9493a4.4014,4.4014,0,0,0,.8272.3086,3.158,3.158,0,0,0,.8105.124q.7177,0,.7178-.4423a.384.384,0,0,0-.0957-.27,1.39,1.39,0,0,0-.3281-.2353c-.1553-.0879-.3633-.1895-.6221-.3067a3.8338,3.8338,0,0,1-.8193-.4609,1.2876,1.2876,0,0,1-.38-.4863,1.7051,1.7051,0,0,1-.1192-.6758,1.2527,1.2527,0,0,1,.4991-1.0625,2.3134,2.3134,0,0,1,1.416-.376,3.8114,3.8114,0,0,1,1.6982.4053l-.3975,1.0146a7.08,7.08,0,0,0-.6787-.2715,1.9976,1.9976,0,0,0-.6445-.1064q-.583,0-.583.3369a.4.4,0,0,0,.1885.3272,5.01,5.01,0,0,0,.8232.41,3.7472,3.7472,0,0,1,.8291.4571,1.3166,1.3166,0,0,1,.3887.4882A1.5813,1.5813,0,0,1,137.89,28.7872Z"/><g id="Denitrification_Icon" data-name="Denitrification Icon"><path class="cls-2" d="M7.57,20.5124l-.0333.0266v-.0444Z"/><path class="cls-2" d="M8.8509,11.4145a14.0879,14.0879,0,0,0-2.87,8.1216L1.88,17.0153v1.8284H.1081V22.19A19.6227,19.6227,0,0,1,0,20.0775,20.7469,20.7469,0,0,1,4.1926,7.4558l1.256,1.34-1.2145,1.287Z"/><path class="cls-2" d="M5.8729,34.51l1.0814,1.1539A20.39,20.39,0,0,1,.1081,22.19H1.88v1.8284l4.1426-2.5563A14.1307,14.1307,0,0,0,9.375,29.38L4.8081,30.6843,6.0226,31.98,4.7582,33.32Z"/><path class="cls-2" d="M10.5812,11.9027l-.0333-.0089.0083-.0089s0-.0177.0083-.0177Z"/><polygon class="cls-2" points="11.138 28.882 11.13 28.9 11.122 28.9 11.122 28.891 11.138 28.882"/><path class="cls-2" d="M17.5188,6.4262a12.4015,12.4015,0,0,0-7.4118,3.5859L8.8842,5.13,7.6614,6.4262l-1.2561-1.34-2.2127,2.37A18.4433,18.4433,0,0,1,16.8533.1154V2.0148H15.1314Z"/><path class="cls-2" d="M18.4421,8.0416l-.0249.0355-.0167-.0355h.0416Z"/><polygon class="cls-2" points="19.232 32.113 19.216 32.113 19.224 32.096 19.232 32.113"/><path class="cls-2" d="M20.738,40.0573c-.6239.0621-1.2727.0977-1.9216.0977A18.0266,18.0266,0,0,1,6.9792,35.69l1.2561-1.3491L9.45,35.6371l1.2312-4.944a12.2415,12.2415,0,0,0,7.628,3.08l-2.3707,4.3848h1.7136v1.8994Z"/><path class="cls-2" d="M28.5324,20.0775c0,5.725-4.3588,10.376-9.716,10.376-5.3654,0-9.7243-4.651-9.7243-10.376C9.0921,14.37,13.451,9.71,18.8164,9.71,24.1736,9.71,28.5324,14.37,28.5324,20.0775Z"/><path class="cls-2" d="M26.5194,11.2813l-.0333.0089.0084-.0355.0166.0178A.0083.0083,0,0,1,26.5194,11.2813Z"/><path class="cls-2" d="M27.0934,28.2789c-.0084,0-.0084.0089-.0084.0177,0,0-.0166.0178-.0249.0178l-.0083-.0444Z"/><path class="cls-2" d="M30.0963,19.6337v.0443l-.0332-.0266Z"/><path class="cls-2" d="M30.6537,4.4735l-1.2478,1.34-1.2145-1.296-1.2478,4.944a12.2556,12.2556,0,0,0-7.6031-3.08l2.3625-4.367H19.9894V.1154H16.8533A15.7878,15.7878,0,0,1,18.8164,0,18.0182,18.0182,0,0,1,30.6537,4.4735Z"/><path class="cls-2" d="M35.7446,17.9828V16.1543L31.61,18.6928a14.0018,14.0018,0,0,0-3.3607-7.9L32.8332,9.48l-1.2146-1.287,1.2561-1.3491L31.7684,5.654,30.6786,4.5a20.43,20.43,0,0,1,6.8461,13.4827Z"/><path class="cls-2" d="M33.3655,32.7967A18.4843,18.4843,0,0,1,20.7879,40.04V38.1579h1.7136l-2.3874-4.4292a12.53,12.53,0,0,0,7.42-3.5681l1.2228,4.8729,1.2145-1.2959,1.2478,1.34Z"/><path class="cls-2" d="M37.6329,20.0775A20.8532,20.8532,0,0,1,33.44,32.7169l-1.2561-1.34,1.2145-1.2959-4.6334-1.3225a14.148,14.148,0,0,0,2.8865-8.1215l4.0927,2.5207V21.329h1.7885V18.0271C37.6,18.6928,37.6329,19.3851,37.6329,20.0775Z"/><path class="cls-2" d="M7.57,20.5124l-.0333.0266v-.0444Z"/><path class="cls-2" d="M10.5812,11.9027l-.0333-.0089.0083-.0089s0-.0177.0083-.0177Z"/><polygon class="cls-2" points="11.138 28.882 11.13 28.9 11.122 28.9 11.122 28.891 11.138 28.882"/><path class="cls-2" d="M18.4421,8.0416l-.0249.0355-.0167-.0355h.0416Z"/><polygon class="cls-2" points="19.232 32.113 19.216 32.113 19.224 32.096 19.232 32.113"/><path class="cls-2" d="M28.5324,20.0775c0,5.725-4.3588,10.376-9.716,10.376-5.3654,0-9.7243-4.651-9.7243-10.376C9.0921,14.37,13.451,9.71,18.8164,9.71,24.1736,9.71,28.5324,14.37,28.5324,20.0775Z"/><path class="cls-2" d="M26.5194,11.2813l-.0333.0089.0084-.0355.0166.0178A.0083.0083,0,0,1,26.5194,11.2813Z"/><path class="cls-2" d="M27.0934,28.2789c-.0084,0-.0084.0089-.0084.0177,0,0-.0166.0178-.0249.0178l-.0083-.0444Z"/><path class="cls-2" d="M30.0963,19.6337v.0443l-.0332-.0266Z"/><path class="cls-3" d="M30.0631,19.6514l.0332.0266v-.0443ZM27.0518,28.27l.0083.0444c.0083,0,.0249-.0178.0249-.0178,0-.0088,0-.0177.0084-.0177Zm-.5407-16.9975-.0166-.0178-.0084.0355.0333-.0089A.0083.0083,0,0,0,26.5111,11.2725ZM19.224,32.0955l-.0082.0178h.0166ZM18.4172,8.0416h-.0167l.0167.0355.0249-.0355Zm-7.2954,20.85V28.9H11.13l.0083-.0178Zm-.5573-17.0241c-.0083,0-.0083.0177-.0083.0177l-.0083.0089.0333.0089ZM7.5366,20.4946v.0444l.0333-.0266Z"/><path class="cls-3" d="M28.7654,28.7582a14.148,14.148,0,0,0,2.8865-8.1215l-1.5556-.9587-.0332-.0266.0332-.0177,1.514-.9232v-.0177a14.0018,14.0018,0,0,0-3.3607-7.9l-1.73.4881-.0333.0089.0084-.0355.4491-1.7929a12.2556,12.2556,0,0,0-7.6031-3.08l-.8984,1.66-.0249.0355-.0167-.0355-.8734-1.6154h-.0083a12.4015,12.4015,0,0,0-7.4118,3.5859l.4575,1.8551.0167.0355-.0333-.0089-1.697-.4793a14.0879,14.0879,0,0,0-2.87,8.1216l1.5556.9585.0333.0178-.0333.0266-1.514.9231A14.1307,14.1307,0,0,0,9.375,29.38l1.7385-.4882h.0083l.0167-.0089L11.13,28.9v.0089l-.4492,1.784a12.2415,12.2415,0,0,0,7.628,3.08l.9068-1.66.0082-.0178.0084.0178.8817,1.6154a12.53,12.53,0,0,0,7.42-3.5681L27.06,28.3144l-.0083-.0444.0416.0089Zm-9.949,1.6953c-5.3654,0-9.7243-4.651-9.7243-10.376C9.0921,14.37,13.451,9.71,18.8164,9.71c5.3572,0,9.716,4.66,9.716,10.3672C28.5324,25.8025,24.1736,30.4535,18.8164,30.4535Z"/><path class="cls-3" d="M14.8562,14.9591h2.375L19.7283,18.68V14.9591h2.8359v9.6572H20.1755l-2.4834-3.707v3.707H14.8562Zm1.6152,8.499V16.7687l4.4776,6.6894h.3535V16.1173H20.949v6.6894l-4.4776-6.6894h-.3525v7.3408Z"/><line class="cls-4" x1="18.4175" y1="8.0786" x2="18.4175" y2="8.0451"/><path class="cls-3" d="M21.703,2.0148l-2.3625,4.367-.8984,1.66h-.0416l-.8734-1.6154h-.0083L15.1314,2.0148h1.7219V.1154h3.1361V2.0148Z"/><path class="cls-5" d="M18.4421,8.0416l-.0249.0355-.0167-.0355h.0416Z"/><line class="cls-4" x1="10.5781" y1="11.9041" x2="10.5572" y2="11.8818"/><path class="cls-3" d="M10.5645,11.8672c-.0083,0-.0083.0177-.0083.0177l-.0083.0089-1.697-.4793L4.2341,10.0831l1.2145-1.287-1.256-1.34,2.2127-2.37,1.2561,1.34L8.8842,5.13l1.2228,4.8818Z"/><path class="cls-5" d="M10.5812,11.9027l-.0333-.0089.0083-.0089s0-.0177.0083-.0177Z"/><line class="cls-4" x1="7.5677" y1="20.5143" x2="7.5363" y2="20.5143"/><path class="cls-3" d="M7.5366,20.4946v.0444l-1.514.9231L1.88,24.0184V22.19H.1081V18.8437H1.88V17.0153l4.101,2.5208Z"/><path class="cls-5" d="M7.57,20.5124l-.0333.0266v-.0444Z"/><polygon class="cls-3" points="11.13 28.9 11.13 28.909 10.681 30.693 9.45 35.637 8.235 34.341 6.979 35.69 6.954 35.664 5.873 34.51 4.758 33.32 6.023 31.98 4.808 30.684 9.375 29.379 11.114 28.891 11.122 28.891 11.122 28.9 11.13 28.9"/><polygon class="cls-3" points="11.138 28.882 11.13 28.9 11.122 28.9 11.122 28.891 11.138 28.882"/><line class="cls-4" x1="19.2224" y1="32.1136" x2="19.2224" y2="32.0913"/><path class="cls-5" d="M20.79,40.0434v.0111H20.738C20.7589,40.0545,20.7693,40.0434,20.79,40.0434Z"/><path class="cls-3" d="M22.5015,38.1579H20.7879V40.04c-.0166,0-.0249.0177-.05.0177H17.6519V38.1579H15.9383l2.3707-4.3848.9068-1.66h.0166l.8817,1.6154Z"/><polygon class="cls-5" points="19.232 32.113 19.216 32.113 19.224 32.096 19.232 32.113"/><line class="cls-4" x1="27.0827" y1="28.2992" x2="27.0514" y2="28.2657"/><path class="cls-3" d="M33.44,32.7169l-.0749.08-2.1461,2.2812-1.2478-1.34-1.2145,1.2959-1.2228-4.8729L27.06,28.3144c.0083,0,.0249-.0178.0249-.0178,0-.0088,0-.0177.0084-.0177l1.672.4793,4.6334,1.3225-1.2145,1.2959Z"/><path class="cls-5" d="M27.0934,28.2789c-.0084,0-.0084.0089-.0084.0177,0,0-.0166.0178-.0249.0178l-.0083-.0444Z"/><line class="cls-4" x1="30.0931" y1="19.6555" x2="30.0617" y2="19.6555"/><line class="cls-4" x1="37.5249" y1="19.6555" x2="35.7479" y2="19.6555"/><path class="cls-3" d="M37.5331,17.9828V21.329H35.7446v1.8284l-4.0927-2.5207-1.5556-.9587v-.0443l1.514-.9232v-.0177l4.1343-2.5385v1.8285Z"/><path class="cls-5" d="M30.0963,19.6337v.0443l-.0332-.0266Z"/><line class="cls-4" x1="26.5078" y1="11.2684" x2="26.4869" y2="11.2907"/><path class="cls-3" d="M31.6186,8.1925,32.8332,9.48,28.25,10.7932l-1.73.4881a.0083.0083,0,0,0-.0083-.0088l-.0166-.0178.4491-1.7929,1.2478-4.944,1.2145,1.296,1.2478-1.34.0249.0266,1.09,1.1539,1.1063,1.1894Z"/><path class="cls-5" d="M26.5194,11.2813l-.0333.0089.0084-.0355.0166.0178A.0083.0083,0,0,1,26.5194,11.2813Z"/></g></g></g></g></g></g></svg>