<svg xmlns="http://www.w3.org/2000/svg" viewBox="0 0 152.8999 24.2578"><defs><style>.cls-1{fill:#2e3192;}.cls-2{fill:#92278f;}</style></defs><g id="Layer_2" data-name="Layer 2"><g id="Layer_1-2" data-name="Layer 1"><g id="page_1" data-name="page 1"><g id="ProductNames-TM"><g id="nitrifiXTM"><path class="cls-1" d="M146.6353,10.4077h-1.0821V6.2051h-1.3857v-.9h3.8535v.9h-1.3857Z" transform="translate(-1.3623 -2.8711)"/><path class="cls-1" d="M150.9673,10.4077l-1.2285-4.0034h-.0313q.066,1.2217.0654,1.63v2.3735h-.9667V5.3047H150.28l1.207,3.9023h.0215L152.79,5.3047h1.4726v5.103h-1.0088V7.9922c0-.1138.002-.2456.0049-.3945s.02-.5445.0479-1.1866h-.0313l-1.3164,3.9966Z" transform="translate(-1.3623 -2.8711)"/><path class="cls-2" d="M2.417,7.8516V27.1289H1.3623V6.0352h1.26L14.7944,27.1289H13.58Zm1.0547,2.9,1.0547,1.9335V27.1289H3.4717Zm.3662-4.7168h1.23L17.2847,27.1289h-1.23Zm1.7432,8.5107,1.0546,1.9189V27.1289H5.5811Zm.747-8.5107H7.5732L19.7749,27.1289h-1.26Zm2.4756,0h1.2305L21.1675,25.2979V6.0352h1.0547V27.1289H20.9761Zm9.2,12.583-1.0547-1.919V6.0352h1.0547Zm2.1094,3.6474-1.0547-1.7871V6.0352h1.0547Z" transform="translate(-1.3623 -2.8711)"/><path class="cls-2" d="M24.9751,6.0352H26.03V27.1289H24.9751Zm2.1094,0h1.0547V27.1289H27.0845Zm2.1093,0h1.0547V27.1289H29.1938Zm2.1094,0h1.0547V27.1289H31.3032Z" transform="translate(-1.3623 -2.8711)"/><path class="cls-2" d="M34.6284,7.09V6.0352h15.82V7.09Zm0,2.1094V8.1445h15.82V9.1992Zm0,2.1094V10.2539h15.82v1.0547Zm4.2188.5713h1.0547v15.249H38.8472Zm2.1093,0h1.0547v15.249H40.9565Zm2.1094,0h1.0547v15.249H43.0659Zm2.1094,0H46.23v15.249H45.1753Z" transform="translate(-1.3623 -2.8711)"/><path class="cls-2" d="M60.7329,21.27H67.09a7.188,7.188,0,0,0,3.6035-.9375,7.1863,7.1863,0,0,0,3.6329-6.2988,6.4688,6.4688,0,0,0-.9815-3.4351A7.2683,7.2683,0,0,0,70.687,8.042,7.1712,7.1712,0,0,0,67.09,7.09H53.8188V27.1289H52.7642V6.0352H67.09a8.0573,8.0573,0,0,1,3.1866.6518A8.6249,8.6249,0,0,1,72.92,8.4155a8.3031,8.3031,0,0,1,1.7871,2.5562,7.3091,7.3091,0,0,1,.6738,3.0615A8.3908,8.3908,0,0,1,74.21,18.5083,7.6877,7.6877,0,0,1,71.06,21.416l2.2119,5.7129H72.144l-2.0947-5.2881q-.3956.1318-.9228.2637l1.9775,5.0244H69.9761L68.0425,22.28q-.4542.0439-.9522.0439l1.86,4.8047H67.8374l-1.8457-4.8047H65.04l1.7724,4.8047H65.6987l-1.7871-4.8047H60.7329Zm0-2.1093H67.09a5.064,5.064,0,0,0,3.6182-1.4356,4.869,4.869,0,0,0,1.5088-3.6914,4.5219,4.5219,0,0,0-1.5381-3.3765A5.054,5.054,0,0,0,67.09,9.1992H55.9282v17.93H54.8735V8.1445H67.09A6.07,6.07,0,0,1,71.4263,9.91a5.534,5.534,0,0,1,1.8457,4.1235,5.9022,5.9022,0,0,1-1.8233,4.4092A6.0369,6.0369,0,0,1,67.09,20.2148H60.7329Zm0-2.1094H67.09a3.083,3.083,0,0,0,2.1387-.791,2.8417,2.8417,0,0,0,.8789-2.2266,2.51,2.51,0,0,0-.915-1.89,3.0319,3.0319,0,0,0-2.1026-.835H58.0376v15.82H56.9829V10.2539H67.09a4.0427,4.0427,0,0,1,2.8487,1.1426,3.5134,3.5134,0,0,1,1.2236,2.6367A3.86,3.86,0,0,1,69.9761,17a4.078,4.078,0,0,1-2.8858,1.106H60.7329ZM60.147,27.1289H59.0923V12.3633H67.09a2.0625,2.0625,0,0,1,1.3916.4907,1.5039,1.5039,0,0,1,.5713,1.1792A1.735,1.735,0,0,1,67.09,15.9961H60.7329V14.9414H67.09a.8027.8027,0,0,0,.9082-.9082.5229.5229,0,0,0-.2705-.4321,1.1141,1.1141,0,0,0-.6377-.1831H60.147Z" transform="translate(-1.3623 -2.8711)"/><path class="cls-2" d="M77.71,6.0352h1.0547V27.1289H77.71Zm2.1093,0h1.0547V27.1289H79.8188Zm2.1094,0h1.0547V27.1289H81.9282Zm2.1094,0h1.0547V27.1289H84.0376Z" transform="translate(-1.3623 -2.8711)"/><path class="cls-2" d="M88.9009,27.1289H87.8462V6.0352h1.0547Zm2.1094,0H89.9556V6.0352H91.01Zm2.1093,0H92.0649V6.0352H93.12Zm2.1094,0H94.1743V6.0352h10.0635V7.09H95.229V8.1445h9.0088V9.1992H95.229v1.0547h9.0088v1.0547H95.229v3.2226h8.3057v1.0547H95.229v1.0547h8.3057v1.0547H95.229V18.75h8.3057v1.0547H95.229Z" transform="translate(-1.3623 -2.8711)"/><path class="cls-2" d="M106.6118,6.0352h1.0547V27.1289h-1.0547Zm2.1094,0h1.0547V27.1289h-1.0547Zm2.1094,0h1.0547V27.1289h-1.0547Zm2.1093,0h1.0547V27.1289H112.94Z" transform="translate(-1.3623 -2.8711)"/><path class="cls-2" d="M124.1021,14.0186l-.63.996L115.84,2.8711h1.2451Zm7.749-11.1475h1.2451L117.8179,27.1289h-1.2451Zm-6.5039,9.1846-.63.9814-6.3867-10.166h1.23Zm8.9941-9.1846h1.2451L120.3081,27.1289H119.063Zm-7.749,7.1924-.6152.9814-5.1563-8.1738h1.2451Zm10.2539-7.1924h1.23L122.813,27.1289h-1.2451Zm-9.0088,5.2148-.6152.9961L123.311,2.8711h1.2452Zm11.4844-5.2148h1.2451L125.3032,27.1289h-1.2451Zm-10.02,19.0723.6153-.9961,3.8965,6.1816h-1.2452Zm1.2452-1.9776.6152-.9961,5.1416,8.1592h-1.2451Zm1.26-1.9922.6153-.9961,6.3867,10.1514H137.564Zm1.2305-1.9775L133.6528,15l7.6465,12.1289h-1.2451Z" transform="translate(-1.3623 -2.8711)"/></g></g></g></g></g></svg>