<svg xmlns="http://www.w3.org/2000/svg" viewBox="0 0 117.8809 30.562"><defs><style>.cls-1{fill:#92278f;}.cls-2{fill:#2e3192;}</style></defs><g id="Layer_2" data-name="Layer 2"><g id="Layer_1-2" data-name="Layer 1"><g id="page_3" data-name="page 3"><path class="cls-1" d="M1.7148,30.9268c-.1865,0-.28-.0816-.28-.2452L1.4,6.8467a.247.247,0,0,1,.2793-.28H4.83l5.915,13.79L10.57,6.8467c0-.1865.1045-.28.3145-.28H14.35c.1406,0,.21.0933.21.28l.0351,23.87c0,.14-.0586.21-.1748.21H11.34l-6.0546-12.88.2451,12.6c0,.187-.1055.28-.3155.28Z" transform="translate(-1.4004 -0.7148)"/><path class="cls-1" d="M24.0791,31.2769a6.4579,6.4579,0,0,1-3.43-.9624,7.1463,7.1463,0,0,1-2.5029-2.5728,6.9556,6.9556,0,0,1-.9268-3.5352l.0694-17.5a.124.124,0,0,1,.1406-.14h3.92a.1237.1237,0,0,1,.14.14v17.5a2.8657,2.8657,0,0,0,.7529,2.0127,2.3939,2.3939,0,0,0,1.8369.8228,2.435,2.435,0,0,0,1.873-.8228,2.8734,2.8734,0,0,0,.752-2.0127v-17.5a.124.124,0,0,1,.1406-.14h3.92a.1237.1237,0,0,1,.14.14l.07,17.5a7.0873,7.0873,0,0,1-3.4131,6.125A6.5778,6.5778,0,0,1,24.0791,31.2769Z" transform="translate(-1.4004 -0.7148)"/><path class="cls-1" d="M33.8789,30.9268c-.0937,0-.14-.0581-.14-.1748l.0693-24.0455a.124.124,0,0,1,.1406-.14h7.0694a6.801,6.801,0,0,1,3.4824.9272A7.1045,7.1045,0,0,1,47.0391,9.98a6.6468,6.6468,0,0,1,.9443,3.5171,6.6174,6.6174,0,0,1-.3848,2.3276,7.2041,7.2041,0,0,1-.91,1.75,6.0808,6.0808,0,0,1-.9444,1.0674,7.14,7.14,0,0,1,1.89,4.9351l.0351,7.1753a.1545.1545,0,0,1-.1748.1748h-3.955c-.0938,0-.1407-.0352-.1407-.105V23.5767a3.0511,3.0511,0,0,0-.8916-2.1875,2.9231,2.9231,0,0,0-2.1875-.9273h-2.31l-.0352,10.29c0,.1167-.0468.1748-.14.1748Zm4.13-14.6651h3.01a2.7038,2.7038,0,0,0,1.9257-.8052,2.6842,2.6842,0,0,0,.0166-3.8847,2.6835,2.6835,0,0,0-1.9423-.8052h-3.01Z" transform="translate(-1.4004 -0.7148)"/><path class="cls-1" d="M53.41,30.9268q-.1407,0-.1407-.1748v-19.95H48.72a.1542.1542,0,0,1-.1748-.1748L48.58,6.7065a.1233.1233,0,0,1,.14-.14h13.3c.1172,0,.1748.0469.1748.14V10.627c0,.1167-.0468.1748-.14.1748H57.47l.0352,19.95c0,.1167-.0469.1748-.14.1748Z" transform="translate(-1.4004 -0.7148)"/><path class="cls-1" d="M70.35,31.2769a6.4579,6.4579,0,0,1-3.43-.9624,7.1471,7.1471,0,0,1-2.5029-2.5728,6.9556,6.9556,0,0,1-.9268-3.5352l.0694-17.5a.124.124,0,0,1,.1406-.14h3.92a.1237.1237,0,0,1,.14.14v17.5a2.8657,2.8657,0,0,0,.7529,2.0127,2.3939,2.3939,0,0,0,1.8369.8228,2.4353,2.4353,0,0,0,1.8731-.8228,2.8738,2.8738,0,0,0,.7519-2.0127v-17.5a.124.124,0,0,1,.1406-.14h3.92a.1237.1237,0,0,1,.14.14l.07,17.5a7.0873,7.0873,0,0,1-3.4131,6.125A6.5778,6.5778,0,0,1,70.35,31.2769Z" transform="translate(-1.4004 -0.7148)"/><path class="cls-1" d="M80.1494,30.9268c-.0937,0-.14-.0581-.14-.1748l.0693-24.0455a.124.124,0,0,1,.1406-.14h7.0694a6.801,6.801,0,0,1,3.4824.9272A7.1045,7.1045,0,0,1,93.31,9.98a6.6459,6.6459,0,0,1,.9443,3.5171,6.6174,6.6174,0,0,1-.3848,2.3276,7.2041,7.2041,0,0,1-.91,1.75,6.0808,6.0808,0,0,1-.9444,1.0674,7.14,7.14,0,0,1,1.89,4.9351L93.94,30.752a.1546.1546,0,0,1-.1749.1748H89.81c-.0938,0-.1407-.0352-.1407-.105V23.5767a3.0511,3.0511,0,0,0-.8916-2.1875,2.9231,2.9231,0,0,0-2.1875-.9273h-2.31l-.0352,10.29c0,.1167-.0468.1748-.14.1748Zm4.13-14.6651h3.01a2.7038,2.7038,0,0,0,1.9257-.8052,2.6842,2.6842,0,0,0,.0166-3.8847,2.6835,2.6835,0,0,0-1.9423-.8052h-3.01Z" transform="translate(-1.4004 -0.7148)"/><path class="cls-1" d="M97.0186,30.9268c-.0938,0-.14-.0581-.14-.1748l.0342-24.0455a.124.124,0,0,1,.1406-.14h11.2344c.0937,0,.1406.0586.1406.1748v3.92a.124.124,0,0,1-.1406.14h-7.1748v5.46h7.1748a.1242.1242,0,0,1,.1406.14l.0352,3.955a.1243.1243,0,0,1-.1407.14h-7.21v6.125h7.21c.0928,0,.1407.0586.1407.1753v3.99a.1244.1244,0,0,1-.1407.14Z" transform="translate(-1.4004 -0.7148)"/><path class="cls-2" d="M111.6113,6.4336V1.6582h-.9941V.7148H113.67v.9434h-.9863V6.4336Z" transform="translate(-1.4004 -0.7148)"/><path class="cls-2" d="M113.9561,6.4336V.7148h1.9365l.4717,2.1661L116.458,5.49h.3281l.086-2.6088.48-2.1661h1.93V6.4336h-1.1083V4.6748l.208-3.0166h-.336l-.3008,3.0884-.4785,1.687h-1.33L115.5,4.7466l-.3076-3.0884h-.3291l.2,3.0166V6.4336Z" transform="translate(-1.4004 -0.7148)"/></g></g></g></svg>