<svg xmlns="http://www.w3.org/2000/svg" viewBox="0 0 35.636 35.636"><defs><style>.cls-1{fill:#58595b;}.cls-2{fill:#fff;}</style></defs><g id="Layer_2" data-name="Layer 2"><g id="Layer_1-2" data-name="Layer 1"><g id="page_1" data-name="page 1"><g id="Icons"><g id="Icons-Shape"><g id="Volatility_Icon" data-name="Volatility Icon"><path class="cls-1" d="M33.3985,9.1663a17.2873,17.2873,0,0,0-1.38-2.1032,17.807,17.807,0,0,0-28.4013,0A16.8739,16.8739,0,0,0,2.163,9.3006a17.8184,17.8184,0,1,0,31.2355-.1343ZM13.47,20.5627a3.29,3.29,0,0,1-2.7745,1.4394c-.5444.0746-1.2158.1716-1.3649.41-.067.1045-.5668,1.1487,2.342,5.1239l-1.805,1.32C7.2124,25.2242,6.4439,22.8,7.436,21.219a3.8118,3.8118,0,0,1,2.9385-1.432,8.2078,8.2078,0,0,0,.9472-.179,8.7719,8.7719,0,0,0-.6786-.7906,11.2975,11.2975,0,0,1-1.7-2.2673l-2.1778-.1193,3.662-5.6013,3.0206,5.9742-1.6781-.097c.179.2088.358.41.53.6042C13.1565,18.2432,14.1186,19.31,13.47,20.5627Zm7.2346,0A3.2988,3.2988,0,0,1,17.93,22.0021c-.5444.0746-1.2158.1716-1.3649.41-.067.1045-.5669,1.1487,2.342,5.1239l-1.805,1.32c-2.6551-3.6322-3.4233-6.0562-2.4313-7.6374a3.8,3.8,0,0,1,2.9386-1.432,8.2241,8.2241,0,0,0,.9472-.179,8.8246,8.8246,0,0,0-.6788-.7906A11.3015,11.3015,0,0,1,16.1771,16.55l-2.1778-.1193,3.662-5.6013,3.0207,5.9742-1.6781-.097c.179.2088.358.41.5295.6042C20.3837,18.2432,21.3534,19.31,20.7044,20.5627Zm7.8238,0a3.28,3.28,0,0,1-2.7745,1.4394c-.537.0746-1.2083.1716-1.3575.41-.067.1119-.5668,1.1487,2.3421,5.1239l-1.8051,1.32c-2.655-3.6322-3.4307-6.0562-2.4312-7.6374a3.79,3.79,0,0,1,2.9385-1.432,8.54,8.54,0,0,0,.9473-.179,8.81,8.81,0,0,0-.6789-.7906,11.305,11.305,0,0,1-1.7-2.2673l-2.1778-.1193,3.662-5.6013,3.0207,5.9742-1.6782-.097c.1716.2088.358.41.53.6042C28.215,18.2432,29.1846,19.31,28.5282,20.5627Z"/><path class="cls-2" d="M13.47,20.5627a3.29,3.29,0,0,1-2.7745,1.4394c-.5444.0746-1.2158.1716-1.3649.41-.067.1045-.5668,1.1487,2.342,5.1239l-1.805,1.32C7.2124,25.2242,6.4439,22.8,7.436,21.219a3.8118,3.8118,0,0,1,2.9385-1.432,8.2078,8.2078,0,0,0,.9472-.179,8.7719,8.7719,0,0,0-.6786-.7906,11.2975,11.2975,0,0,1-1.7-2.2673l-2.1778-.1193,3.662-5.6013,3.0206,5.9742-1.6781-.097c.179.2088.358.41.53.6042C13.1565,18.2432,14.1186,19.31,13.47,20.5627Z"/><path class="cls-2" d="M20.7044,20.5627A3.2988,3.2988,0,0,1,17.93,22.0021c-.5444.0746-1.2158.1716-1.3649.41-.067.1045-.5669,1.1487,2.342,5.1239l-1.805,1.32c-2.6551-3.6322-3.4233-6.0562-2.4313-7.6374a3.8,3.8,0,0,1,2.9386-1.432,8.2241,8.2241,0,0,0,.9472-.179,8.8246,8.8246,0,0,0-.6788-.7906A11.3015,11.3015,0,0,1,16.1771,16.55l-2.1778-.1193,3.662-5.6013,3.0207,5.9742-1.6781-.097c.179.2088.358.41.5295.6042C20.3837,18.2432,21.3534,19.31,20.7044,20.5627Z"/><path class="cls-2" d="M28.5282,20.5627a3.28,3.28,0,0,1-2.7745,1.4394c-.537.0746-1.2083.1716-1.3575.41-.067.1119-.5668,1.1487,2.3421,5.1239l-1.8051,1.32c-2.655-3.6322-3.4307-6.0562-2.4312-7.6374a3.79,3.79,0,0,1,2.9385-1.432,8.54,8.54,0,0,0,.9473-.179,8.81,8.81,0,0,0-.6789-.7906,11.305,11.305,0,0,1-1.7-2.2673l-2.1778-.1193,3.662-5.6013,3.0207,5.9742-1.6782-.097c.1716.2088.358.41.53.6042C28.215,18.2432,29.1846,19.31,28.5282,20.5627Z"/><path class="cls-2" d="M33.3985,9.1663v.1343H2.163A16.8739,16.8739,0,0,1,3.6174,7.0631H32.0187A17.2873,17.2873,0,0,1,33.3985,9.1663Z"/></g></g></g></g></g></g></svg>