<svg xmlns="http://www.w3.org/2000/svg" viewBox="0 0 83.5962 32.3071"><defs><style>.cls-1{fill:#00aeef;}.cls-2{fill:#2e3192;}</style></defs><g id="Layer_2" data-name="Layer 2"><g id="Layer_1-2" data-name="Layer 1"><g id="page_1" data-name="page 1"><g id="ProductNames-TM"><g id="VoLitTM"><path class="cls-1" d="M5.0322,33.3.74,3.7H6.4751L8.6582,18.5366l.333,9.8794h1.7759l.333-9.8794L13.2832,3.7h5.7349l-4.292,29.6Z" transform="translate(-0.7402 -1.3628)"/><path class="cls-1" d="M27.084,33.67a11.4825,11.4825,0,0,1-4.5137-.74,4.9058,4.9058,0,0,1-2.5161-2.3677,11.1183,11.1183,0,0,1-.9619-4.3291q-.0374-.7024-.0557-1.7944t-.0185-2.294q0-1.2018.0185-2.2758.0183-1.0724.0557-1.7388a11.7262,11.7262,0,0,1,.98-4.3477,4.758,4.758,0,0,1,2.4975-2.331A11.745,11.745,0,0,1,27.084,10.73a11.33,11.33,0,0,1,4.57.7583,4.8386,4.8386,0,0,1,2.46,2.3867,11.4657,11.4657,0,0,1,.9248,4.2549q.0366.7031.0556,1.7944t.0186,2.294q0,1.2026-.0186,2.2754t-.0556,1.7392a11.3986,11.3986,0,0,1-.9434,4.3291,4.8477,4.8477,0,0,1-2.46,2.3677A11.4382,11.4382,0,0,1,27.084,33.67Zm0-4.144a2.6622,2.6622,0,0,0,1.813-.481,1.9378,1.9378,0,0,0,.5551-1.4062q.0741-2.1827.0923-3.9033t0-3.3858q-.019-1.6648-.0923-3.626a1.8911,1.8911,0,0,0-.5551-1.3686,2.6649,2.6649,0,0,0-1.813-.481,2.6885,2.6885,0,0,0-1.8316.5176,1.8316,1.8316,0,0,0-.61,1.332q-.0747,2.2573-.0742,5.1245t.1113,5.7906a1.86,1.86,0,0,0,.5918,1.4062A2.75,2.75,0,0,0,27.084,29.5259Z" transform="translate(-0.7402 -1.3628)"/><path class="cls-1" d="M38.0728,33.3V3.7h5.55V28.416h7.289V33.3Z" transform="translate(-0.7402 -1.3628)"/><path class="cls-1" d="M53.1318,7.8809V3.7h5.55V7.8809Zm0,25.4189V11.1h5.55V33.3Z" transform="translate(-0.7402 -1.3628)"/><path class="cls-1" d="M71.4839,33.67q-4.4774,0-6.4009-1.5356T63.1587,27.01l-.0366-11.729h-2.22V11.1h2.331V4.81h5.772L68.894,11.1h4.1807v4.1812H68.7461l.0737,12.395a1.638,1.638,0,0,0,.61,1.5171,4.1854,4.1854,0,0,0,2.0537.37q.5178,0,.9619-.0186t1.0361-.0185v3.959a5.6314,5.6314,0,0,1-.9253.1479Q72.0754,33.6694,71.4839,33.67Z" transform="translate(-0.7402 -1.3628)"/><path class="cls-2" d="M76.71,6.4658H75.6274V2.2632H74.2417v-.9h3.8535v.9H76.71Z" transform="translate(-0.7402 -1.3628)"/><path class="cls-2" d="M81.041,6.4658,79.8125,2.4624h-.0313q.066,1.2217.066,1.63V6.4658H78.88V1.3628h1.4731L81.561,5.2651h.021l1.2813-3.9023h1.4731v5.103H83.3276V4.05c0-.1138.0015-.2456.0049-.3945s.02-.5445.0474-1.1866h-.0313L82.0327,6.4658Z" transform="translate(-0.7402 -1.3628)"/></g></g></g></g></g></svg>